<svg width="117" height="372" viewBox="0 0 117 372" fill="none" xmlns="http://www.w3.org/2000/svg">
<path opacity="0.63" d="M0.849616 1.16627L114.449 0.854403L114.535 32.0543L0.93527 32.3662L0.849616 1.16627ZM56.9145 82.9939L1.07468 83.1472L0.989027 51.9473L114.589 51.6355L114.655 75.9554L57.0208 121.714L114.781 121.555L114.866 152.755L1.26663 153.067L1.19855 128.267L56.9145 82.9939ZM0.655035 221.694C0.634829 214.334 1.8955 207.29 4.43704 200.563C7.08554 193.943 10.9094 188.066 15.9087 182.932C21.0146 177.798 27.1368 173.728 34.2752 170.721C41.5206 167.821 49.7833 166.359 59.0633 166.333C67.0632 166.311 74.4807 167.784 81.3155 170.752C88.1503 173.72 94.1349 177.81 99.2693 183.023C104.511 188.342 108.581 194.517 111.48 201.55C114.379 208.582 115.84 216.204 115.863 224.418C115.891 234.658 113.677 243.944 109.219 252.276C104.869 260.608 98.8593 266.811 91.1904 270.886L73.3668 247.734C77.8406 245.482 81.4047 242.112 84.0591 237.625C86.8201 233.137 88.1937 228.387 88.18 223.374C88.1697 219.64 87.4137 216.229 85.9119 213.14C84.4101 210.051 82.3226 207.336 79.6495 204.997C76.9767 202.764 73.7719 201.013 70.035 199.743C66.4052 198.58 62.4036 198.004 58.0302 198.016C53.5503 198.029 49.4987 198.68 45.8756 199.97C42.2524 201.26 39.1106 203.028 36.4501 205.276C33.8966 207.629 31.8775 210.408 30.393 213.612C29.0151 216.816 28.3316 220.391 28.3424 224.338C28.3562 229.351 29.596 234.148 32.0619 238.728C34.6345 243.307 38.2192 247.458 42.8161 251.178L12.4163 251.262C4.60619 242.75 0.685783 232.894 0.655035 221.694ZM39.6118 249.587L39.5542 228.627L61.9541 228.566L62.0824 275.285L1.60262 275.452L1.5319 249.692L39.6118 249.587ZM29.0671 371.738L1.86716 371.812L1.6449 290.853L115.244 290.541L115.463 370.061L88.2629 370.135L88.1302 321.815L72.1303 321.859L72.2436 363.139L46.9637 363.209L46.8504 321.929L28.9305 321.978L29.0671 371.738Z" fill="#EFEFEF"/>
</svg>
