<svg width="132" height="377" viewBox="0 0 132 377" fill="none" xmlns="http://www.w3.org/2000/svg">
<path opacity="0.63" d="M66.9883 0.198884C74.7882 0.17747 82.4122 1.59655 89.86 4.45611C97.4283 7.43534 104.28 11.7365 110.416 17.3597C116.551 22.9829 121.43 29.8095 125.052 37.8396C128.794 45.9894 130.679 55.1642 130.707 65.3642C130.741 77.6042 128.19 88.2912 123.055 97.4253C118.04 106.559 111.339 113.358 102.951 117.821L83.7978 91.0531C87.9935 89.4816 91.2272 87.1927 93.4989 84.1864C95.771 81.3002 97.3223 78.1159 98.1527 74.6336C99.1035 71.271 99.5744 67.9697 99.5656 64.7297C99.5517 59.6897 98.5197 55.3125 96.4695 51.5981C94.5396 48.0034 91.9514 45.0105 88.7048 42.6194C85.4586 40.3483 81.8538 38.6182 77.8905 37.4291C73.9276 36.36 69.9661 35.8308 66.0061 35.8417C61.5661 35.8539 57.308 36.5256 53.2316 37.8568C49.1552 39.188 45.5005 41.118 42.2675 43.6469C39.1544 46.1755 36.7028 49.2422 34.9127 52.8471C33.1229 56.5721 32.2343 60.7145 32.2468 65.2745C32.2557 68.5145 32.7447 71.8132 33.714 75.1705C34.8032 78.5275 36.4916 81.5829 38.7791 84.3366C41.0667 87.0904 44.1325 89.182 47.9764 90.6114L30.955 119.278C24.7082 116.775 19.3566 112.59 14.9005 106.722C10.4444 100.854 7.00612 94.2039 4.5857 86.7705C2.28528 79.3368 1.12503 71.96 1.10493 64.64C1.07891 55.16 2.91501 46.455 6.61326 38.5248C10.4318 30.7143 15.4532 23.9205 21.6774 18.1433C28.0219 12.4859 35.0898 8.08648 42.8812 4.94508C50.7926 1.80335 58.8283 0.221286 66.9883 0.198884ZM130.479 244.539L2.67978 244.889L2.58342 209.79L52.6232 209.652L52.5056 166.812L2.46581 166.95L2.36945 131.85L130.169 131.499L130.265 166.599L83.1055 166.728L83.2231 209.568L130.383 209.439L130.479 244.539ZM130.621 296.018L130.728 335.258L3.04052 376.289L2.94267 340.649L27.9413 332.84L27.8479 298.821L2.80727 291.329L2.70894 255.509L130.621 296.018ZM51.3259 327.196L96.2946 315.733L51.2622 303.976L51.3259 327.196Z" fill="#EFEFEF"/>
</svg>
