<svg width="110" height="15" viewBox="0 0 110 15" fill="none" xmlns="http://www.w3.org/2000/svg">
<path d="M0.292 14V0.509999H9.45V3.246H3.408V6.153H8.386V8.68H3.408V14H0.292ZM16.8328 14.114C15.8195 14.114 14.9012 13.924 14.0778 13.544C13.2672 13.1513 12.5642 12.632 11.9688 11.986C11.3862 11.3273 10.9365 10.5927 10.6198 9.782C10.3032 8.95867 10.1448 8.11 10.1448 7.236C10.1448 6.33667 10.3095 5.48167 10.6388 4.671C10.9808 3.86033 11.4495 3.13833 12.0448 2.505C12.6528 1.859 13.3685 1.35233 14.1918 0.984999C15.0152 0.617666 15.9145 0.433999 16.8898 0.433999C17.8905 0.433999 18.7962 0.630333 19.6068 1.023C20.4302 1.403 21.1332 1.92233 21.7158 2.581C22.3112 3.23967 22.7672 3.98067 23.0838 4.804C23.4005 5.61467 23.5588 6.44433 23.5588 7.293C23.5588 8.19233 23.3942 9.04733 23.0648 9.858C22.7355 10.6687 22.2668 11.397 21.6588 12.043C21.0508 12.6763 20.3352 13.183 19.5118 13.563C18.7012 13.9303 17.8082 14.114 16.8328 14.114ZM13.3178 7.274C13.3178 7.79333 13.3938 8.3 13.5458 8.794C13.6978 9.27533 13.9195 9.706 14.2108 10.086C14.5148 10.466 14.8885 10.77 15.3318 10.998C15.7752 11.226 16.2818 11.34 16.8518 11.34C17.4472 11.34 17.9665 11.226 18.4098 10.998C18.8532 10.7573 19.2205 10.4407 19.5118 10.048C19.8032 9.65533 20.0185 9.21833 20.1578 8.737C20.3098 8.243 20.3858 7.74267 20.3858 7.236C20.3858 6.71667 20.3098 6.21633 20.1578 5.735C20.0058 5.25367 19.7778 4.823 19.4738 4.443C19.1698 4.05033 18.7962 3.74633 18.3528 3.531C17.9095 3.31567 17.4092 3.208 16.8518 3.208C16.2565 3.208 15.7372 3.322 15.2938 3.55C14.8632 3.778 14.4958 4.08833 14.1918 4.481C13.9005 4.861 13.6788 5.298 13.5268 5.792C13.3875 6.27333 13.3178 6.76733 13.3178 7.274ZM25.3594 14V0.509999H28.4754V11.264H35.0114V14H25.3594ZM36.4736 14V0.509999H39.5896V11.264H46.1256V14H36.4736ZM53.2557 14.114C52.2424 14.114 51.324 13.924 50.5007 13.544C49.69 13.1513 48.987 12.632 48.3917 11.986C47.809 11.3273 47.3594 10.5927 47.0427 9.782C46.726 8.95867 46.5677 8.11 46.5677 7.236C46.5677 6.33667 46.7324 5.48167 47.0617 4.671C47.4037 3.86033 47.8724 3.13833 48.4677 2.505C49.0757 1.859 49.7914 1.35233 50.6147 0.984999C51.438 0.617666 52.3374 0.433999 53.3127 0.433999C54.3134 0.433999 55.219 0.630333 56.0297 1.023C56.853 1.403 57.556 1.92233 58.1387 2.581C58.734 3.23967 59.19 3.98067 59.5067 4.804C59.8234 5.61467 59.9817 6.44433 59.9817 7.293C59.9817 8.19233 59.817 9.04733 59.4877 9.858C59.1584 10.6687 58.6897 11.397 58.0817 12.043C57.4737 12.6763 56.758 13.183 55.9347 13.563C55.124 13.9303 54.231 14.114 53.2557 14.114ZM49.7407 7.274C49.7407 7.79333 49.8167 8.3 49.9687 8.794C50.1207 9.27533 50.3424 9.706 50.6337 10.086C50.9377 10.466 51.3114 10.77 51.7547 10.998C52.198 11.226 52.7047 11.34 53.2747 11.34C53.87 11.34 54.3894 11.226 54.8327 10.998C55.276 10.7573 55.6434 10.4407 55.9347 10.048C56.226 9.65533 56.4414 9.21833 56.5807 8.737C56.7327 8.243 56.8087 7.74267 56.8087 7.236C56.8087 6.71667 56.7327 6.21633 56.5807 5.735C56.4287 5.25367 56.2007 4.823 55.8967 4.443C55.5927 4.05033 55.219 3.74633 54.7757 3.531C54.3324 3.31567 53.832 3.208 53.2747 3.208C52.6794 3.208 52.16 3.322 51.7167 3.55C51.286 3.778 50.9187 4.08833 50.6147 4.481C50.3234 4.861 50.1017 5.298 49.9497 5.792C49.8104 6.27333 49.7407 6.76733 49.7407 7.274ZM65.6901 0.528999H68.5591L69.9651 4.842L71.3711 0.528999H74.2591L71.9601 6.799L73.3281 10.39L76.7101 0.509999H80.1112L74.8481 14H72.1501L69.9651 8.718L67.7991 14H65.0821L59.8381 0.509999H63.2201L66.6211 10.39L67.9511 6.799L65.6901 0.528999ZM90.8448 14.114C89.7681 14.114 88.8498 13.9367 88.0898 13.582C87.3298 13.2147 86.7091 12.7207 86.2278 12.1C85.7591 11.4667 85.4108 10.751 85.1828 9.953C84.9675 9.14233 84.8598 8.29367 84.8598 7.407V0.509999H87.9758V7.407C87.9758 7.91367 88.0265 8.40767 88.1278 8.889C88.2291 9.35767 88.3938 9.77567 88.6218 10.143C88.8498 10.5103 89.1411 10.8017 89.4958 11.017C89.8631 11.2323 90.3128 11.34 90.8448 11.34C91.3895 11.34 91.8455 11.2323 92.2128 11.017C92.5801 10.789 92.8715 10.4913 93.0868 10.124C93.3021 9.744 93.4605 9.31967 93.5618 8.851C93.6631 8.38233 93.7138 7.901 93.7138 7.407V0.509999H96.8298V7.407C96.8298 8.34433 96.7095 9.21833 96.4688 10.029C96.2408 10.8397 95.8861 11.5553 95.4048 12.176C94.9235 12.784 94.3028 13.259 93.5428 13.601C92.7955 13.943 91.8961 14.114 90.8448 14.114ZM107.338 4.462C107.3 4.39867 107.167 4.30367 106.939 4.177C106.711 4.03767 106.426 3.892 106.084 3.74C105.742 3.588 105.368 3.455 104.963 3.341C104.558 3.227 104.152 3.17 103.747 3.17C103.215 3.17 102.803 3.265 102.512 3.455C102.221 3.63233 102.075 3.911 102.075 4.291C102.075 4.595 102.183 4.83567 102.398 5.013C102.626 5.19033 102.949 5.34867 103.367 5.488C103.785 5.61467 104.298 5.76667 104.906 5.944C105.767 6.172 106.515 6.45067 107.148 6.78C107.781 7.09667 108.263 7.50833 108.592 8.015C108.934 8.52167 109.105 9.193 109.105 10.029C109.105 10.789 108.966 11.435 108.687 11.967C108.408 12.4863 108.028 12.9107 107.547 13.24C107.078 13.5567 106.54 13.791 105.932 13.943C105.324 14.0823 104.697 14.152 104.051 14.152C103.392 14.152 102.715 14.0887 102.018 13.962C101.334 13.8227 100.675 13.6327 100.042 13.392C99.4088 13.1387 98.8261 12.8347 98.2941 12.48L99.6621 9.763C99.7128 9.82633 99.8775 9.94667 100.156 10.124C100.435 10.2887 100.777 10.466 101.182 10.656C101.6 10.8333 102.062 10.9917 102.569 11.131C103.076 11.2703 103.589 11.34 104.108 11.34C104.665 11.34 105.077 11.2513 105.343 11.074C105.622 10.8967 105.761 10.6497 105.761 10.333C105.761 9.991 105.615 9.725 105.324 9.535C105.045 9.345 104.659 9.174 104.165 9.022C103.684 8.87 103.126 8.699 102.493 8.509C101.67 8.25567 100.986 7.97067 100.441 7.654C99.9091 7.33733 99.5101 6.951 99.2441 6.495C98.9908 6.039 98.8641 5.469 98.8641 4.785C98.8641 3.835 99.0858 3.037 99.5291 2.391C99.9851 1.73233 100.593 1.23833 101.353 0.909C102.113 0.567 102.943 0.396 103.842 0.396C104.475 0.396 105.083 0.471999 105.666 0.623999C106.261 0.775999 106.812 0.965999 107.319 1.194C107.838 1.422 108.301 1.65 108.706 1.878L107.338 4.462Z" fill="#747070"/>
</svg>
