<svg width="695" height="388" viewBox="0 0 695 388" fill="none" xmlns="http://www.w3.org/2000/svg">
<path opacity="0.63" d="M0.464255 79.4697C0.464255 69.7631 2.25626 60.2804 5.84026 51.0217C9.57359 41.6137 14.9496 33.1017 21.9683 25.4857C28.9869 17.8697 37.4989 11.8217 47.5043 7.34173C57.6589 2.7124 69.0829 0.39773 81.7763 0.39773C97.0083 0.39773 110.299 3.6084 121.648 10.0297C132.998 16.3017 141.435 24.6644 146.96 35.1177L113.584 58.8617C111.643 53.6351 108.806 49.6031 105.072 46.7657C101.488 43.9284 97.5309 41.9871 93.2003 40.9417C89.0189 39.7471 84.9123 39.1497 80.8803 39.1497C74.6083 39.1497 69.1576 40.4191 64.5283 42.9577C60.0483 45.3471 56.3149 48.5577 53.3283 52.5897C50.4909 56.6217 48.3256 61.1017 46.8323 66.0297C45.4883 70.9577 44.8163 75.8857 44.8163 80.8137C44.8163 86.3391 45.6376 91.6404 47.2803 96.7177C48.9229 101.795 51.3123 106.35 54.4483 110.382C57.5843 114.264 61.3923 117.326 65.8723 119.566C70.5016 121.806 75.6536 122.926 81.3283 122.926C85.3603 122.926 89.4669 122.328 93.6483 121.134C97.8296 119.79 101.638 117.699 105.072 114.862C108.507 112.024 111.12 108.216 112.912 103.438L148.528 124.718C145.392 132.483 140.166 139.128 132.848 144.654C125.531 150.179 117.243 154.435 107.984 157.422C98.7256 160.259 89.5416 161.678 80.4323 161.678C68.6349 161.678 57.8083 159.363 47.9523 154.734C38.2456 149.955 29.8083 143.683 22.6403 135.918C15.6216 128.003 10.1709 119.192 6.28825 109.486C2.40559 99.6297 0.464255 89.6244 0.464255 79.4697ZM304.747 1.29373V160.334H261.067V98.0617H207.755V160.334H164.075V1.29373H207.755V59.9817H261.067V1.29373H304.747ZM368.811 1.29373H417.643L468.267 160.334H423.915L414.283 129.198H371.947L362.539 160.334H317.963L368.811 1.29373ZM407.339 100.078L393.227 44.0777L378.443 100.078H407.339ZM481.482 160.334V1.29373L525.162 1.29373V160.334H481.482ZM596.255 82.1577V160.334H552.575V1.29373H586.623L650.463 82.1577V1.29373H694.143V160.334H659.423L596.255 82.1577Z" fill="#EFEFEF"/>
<path opacity="0.63" d="M77.9936 387.464C67.6896 387.464 57.8336 385.672 48.4256 382.088C39.1669 378.355 30.9536 372.979 23.7856 365.96C16.6176 358.792 10.9429 350.206 6.76158 340.2C2.72958 330.046 0.713585 318.472 0.713585 305.48C0.713585 294.28 2.80425 283.902 6.98559 274.344C11.1669 264.787 16.9163 256.424 24.2336 249.256C31.7003 241.939 40.3616 236.264 50.2176 232.232C60.0736 228.2 70.7509 226.184 82.2496 226.184C96.5856 226.184 109.578 229.32 121.226 235.592C132.874 241.715 141.535 250.152 147.21 260.904L114.73 285.768C111.594 279.496 106.89 274.494 100.618 270.76C94.3456 266.878 87.7003 264.936 80.6816 264.936C75.4549 264.936 70.6763 265.982 66.3456 268.072C62.0149 270.163 58.2069 273.075 54.9216 276.808C51.7856 280.542 49.3216 285.022 47.5296 290.248C45.8869 295.326 45.0656 300.926 45.0656 307.048C45.0656 313.32 45.9616 318.995 47.7536 324.072C49.5456 329.15 52.0096 333.555 55.1456 337.288C58.4309 340.872 62.3136 343.71 66.7936 345.8C71.2736 347.742 76.2763 348.712 81.8016 348.712C88.8203 348.712 95.5403 346.995 101.962 343.56C108.383 339.976 114.207 334.974 119.434 328.552V371.112C107.487 382.014 93.6736 387.464 77.9936 387.464ZM117.194 333.032H87.8496V301.672H153.258V386.344H117.194V333.032ZM288.163 348.264V386.344H174.819V227.304H286.147V265.384H218.499V287.784H276.291V323.176H218.499V348.264H288.163Z" fill="#EFEFEF"/>
</svg>
