<svg width="142" height="13" viewBox="0 0 142 13" fill="none" xmlns="http://www.w3.org/2000/svg">
<path d="M3.48864 10.1364V2.27273H5.27273V10.1364H3.48864ZM0.448864 7.09659V5.3125H8.3125V7.09659H0.448864ZM10.5895 9.84091V8.16477L15.527 0.363636H16.9247V2.75H16.0724L12.7486 8.01705V8.10795H19.6406V9.84091H10.5895ZM16.1406 12V9.32955L16.1634 8.57955V0.363636H18.152V12H16.1406ZM25.6321 12.1591C24.8139 12.1591 24.0866 12.0189 23.4503 11.7386C22.8177 11.4583 22.3177 11.0682 21.9503 10.5682C21.5829 10.0682 21.3878 9.49053 21.3651 8.83523H23.5014C23.5204 9.14962 23.6245 9.42424 23.8139 9.65909C24.0033 9.89015 24.2552 10.0701 24.5696 10.1989C24.884 10.3277 25.2363 10.392 25.6264 10.392C26.0431 10.392 26.4124 10.3201 26.7344 10.1761C27.0563 10.0284 27.3082 9.82386 27.4901 9.5625C27.6719 9.30114 27.7609 9 27.7571 8.65909C27.7609 8.30682 27.67 7.99621 27.4844 7.72727C27.2988 7.45833 27.0298 7.24811 26.6776 7.09659C26.3291 6.94508 25.9086 6.86932 25.4162 6.86932H24.3878V5.24432H25.4162C25.8215 5.24432 26.1757 5.17424 26.4787 5.03409C26.7855 4.89394 27.026 4.69697 27.2003 4.44318C27.3745 4.18561 27.4598 3.88826 27.456 3.55114C27.4598 3.22159 27.3859 2.93561 27.2344 2.69318C27.0866 2.44697 26.8764 2.25568 26.6037 2.11932C26.3348 1.98295 26.0185 1.91477 25.6548 1.91477C25.2988 1.91477 24.9692 1.97917 24.6662 2.10795C24.3632 2.23674 24.1188 2.42045 23.9332 2.65909C23.7476 2.89394 23.6491 3.17424 23.6378 3.5H21.6094C21.6245 2.84848 21.812 2.27652 22.1719 1.78409C22.5355 1.28788 23.0204 0.901515 23.6264 0.625C24.2325 0.344697 24.9124 0.204545 25.6662 0.204545C26.4427 0.204545 27.117 0.350378 27.6889 0.642045C28.2647 0.929924 28.7098 1.31818 29.0241 1.80682C29.3385 2.29545 29.4957 2.83523 29.4957 3.42614C29.4995 4.08144 29.3063 4.63068 28.9162 5.07386C28.5298 5.51705 28.0223 5.80682 27.3935 5.94318V6.03409C28.2116 6.14773 28.8385 6.45076 29.2741 6.94318C29.7135 7.43182 29.9313 8.03977 29.9276 8.76705C29.9276 9.41856 29.742 10.0019 29.3707 10.517C29.0033 11.0284 28.4957 11.4299 27.848 11.7216C27.2041 12.0133 26.4654 12.1591 25.6321 12.1591ZM40.108 12.1591C39.5511 12.1553 39.0076 12.0587 38.4773 11.8693C37.947 11.6761 37.4697 11.3636 37.0455 10.9318C36.6212 10.4962 36.2841 9.91856 36.0341 9.19886C35.7841 8.47538 35.661 7.57955 35.6648 6.51136C35.6648 5.51515 35.7708 4.62689 35.983 3.84659C36.1951 3.06629 36.5 2.4072 36.8977 1.86932C37.2955 1.32765 37.7746 0.914772 38.3352 0.630681C38.8996 0.34659 39.5303 0.204545 40.2273 0.204545C40.9583 0.204545 41.6061 0.348484 42.1705 0.636363C42.7386 0.924242 43.197 1.31818 43.5455 1.81818C43.8939 2.31439 44.1098 2.875 44.1932 3.5H42.1193C42.0133 3.05303 41.7955 2.69697 41.4659 2.43182C41.1402 2.16288 40.7273 2.02841 40.2273 2.02841C39.4205 2.02841 38.7992 2.37879 38.3636 3.07955C37.9318 3.7803 37.714 4.74242 37.7102 5.96591H37.7898C37.9754 5.63258 38.2159 5.34659 38.5114 5.10795C38.8068 4.86932 39.1402 4.68561 39.5114 4.55682C39.8864 4.42424 40.2822 4.35795 40.6989 4.35795C41.3807 4.35795 41.9924 4.52083 42.5341 4.84659C43.0795 5.17235 43.5114 5.62121 43.8295 6.19318C44.1477 6.76136 44.3049 7.41288 44.3011 8.14773C44.3049 8.91288 44.1307 9.60038 43.7784 10.2102C43.4261 10.8163 42.9356 11.2936 42.3068 11.642C41.678 11.9905 40.9451 12.1629 40.108 12.1591ZM40.0966 10.4545C40.5095 10.4545 40.8788 10.3542 41.2045 10.1534C41.5303 9.95265 41.7879 9.68182 41.9773 9.34091C42.1667 9 42.2595 8.61742 42.2557 8.19318C42.2595 7.77651 42.1686 7.39962 41.983 7.0625C41.8011 6.72538 41.5492 6.45833 41.2273 6.26136C40.9053 6.06439 40.5379 5.96591 40.125 5.96591C39.8182 5.96591 39.5322 6.02462 39.267 6.14205C39.0019 6.25947 38.7708 6.42235 38.5739 6.63068C38.3769 6.83523 38.2216 7.07386 38.108 7.34659C37.9981 7.61553 37.9413 7.90341 37.9375 8.21023C37.9413 8.61553 38.036 8.98864 38.2216 9.32955C38.4072 9.67045 38.6629 9.94318 38.9886 10.1477C39.3144 10.3523 39.6837 10.4545 40.0966 10.4545ZM50.483 12.1591C49.9261 12.1553 49.3826 12.0587 48.8523 11.8693C48.322 11.6761 47.8447 11.3636 47.4205 10.9318C46.9962 10.4962 46.6591 9.91856 46.4091 9.19886C46.1591 8.47538 46.036 7.57955 46.0398 6.51136C46.0398 5.51515 46.1458 4.62689 46.358 3.84659C46.5701 3.06629 46.875 2.4072 47.2727 1.86932C47.6705 1.32765 48.1496 0.914772 48.7102 0.630681C49.2746 0.34659 49.9053 0.204545 50.6023 0.204545C51.3333 0.204545 51.9811 0.348484 52.5455 0.636363C53.1136 0.924242 53.572 1.31818 53.9205 1.81818C54.2689 2.31439 54.4848 2.875 54.5682 3.5H52.4943C52.3883 3.05303 52.1705 2.69697 51.8409 2.43182C51.5152 2.16288 51.1023 2.02841 50.6023 2.02841C49.7955 2.02841 49.1742 2.37879 48.7386 3.07955C48.3068 3.7803 48.089 4.74242 48.0852 5.96591H48.1648C48.3504 5.63258 48.5909 5.34659 48.8864 5.10795C49.1818 4.86932 49.5152 4.68561 49.8864 4.55682C50.2614 4.42424 50.6572 4.35795 51.0739 4.35795C51.7557 4.35795 52.3674 4.52083 52.9091 4.84659C53.4545 5.17235 53.8864 5.62121 54.2045 6.19318C54.5227 6.76136 54.6799 7.41288 54.6761 8.14773C54.6799 8.91288 54.5057 9.60038 54.1534 10.2102C53.8011 10.8163 53.3106 11.2936 52.6818 11.642C52.053 11.9905 51.3201 12.1629 50.483 12.1591ZM50.4716 10.4545C50.8845 10.4545 51.2538 10.3542 51.5795 10.1534C51.9053 9.95265 52.1629 9.68182 52.3523 9.34091C52.5417 9 52.6345 8.61742 52.6307 8.19318C52.6345 7.77651 52.5436 7.39962 52.358 7.0625C52.1761 6.72538 51.9242 6.45833 51.6023 6.26136C51.2803 6.06439 50.9129 5.96591 50.5 5.96591C50.1932 5.96591 49.9072 6.02462 49.642 6.14205C49.3769 6.25947 49.1458 6.42235 48.9489 6.63068C48.7519 6.83523 48.5966 7.07386 48.483 7.34659C48.3731 7.61553 48.3163 7.90341 48.3125 8.21023C48.3163 8.61553 48.411 8.98864 48.5966 9.32955C48.7822 9.67045 49.0379 9.94318 49.3636 10.1477C49.6894 10.3523 50.0587 10.4545 50.4716 10.4545ZM60.8977 12.2216C59.9621 12.2216 59.1591 11.9848 58.4886 11.5114C57.822 11.0341 57.3087 10.3466 56.9489 9.44886C56.5928 8.54735 56.4148 7.46212 56.4148 6.19318C56.4186 4.92424 56.5985 3.8447 56.9545 2.95455C57.3144 2.06061 57.8277 1.37879 58.4943 0.909091C59.1648 0.439394 59.9659 0.204545 60.8977 0.204545C61.8295 0.204545 62.6307 0.439394 63.3011 0.909091C63.9716 1.37879 64.4848 2.06061 64.8409 2.95455C65.2008 3.84848 65.3807 4.92803 65.3807 6.19318C65.3807 7.46591 65.2008 8.55303 64.8409 9.45455C64.4848 10.3523 63.9716 11.0379 63.3011 11.5114C62.6345 11.9848 61.8333 12.2216 60.8977 12.2216ZM60.8977 10.4432C61.625 10.4432 62.1989 10.0852 62.6193 9.36932C63.0436 8.64962 63.2557 7.59091 63.2557 6.19318C63.2557 5.26894 63.1591 4.49242 62.9659 3.86364C62.7727 3.23485 62.5 2.76136 62.1477 2.44318C61.7955 2.12121 61.3788 1.96023 60.8977 1.96023C60.1742 1.96023 59.6023 2.32008 59.1818 3.03977C58.7614 3.75568 58.5492 4.80682 58.5455 6.19318C58.5417 7.12121 58.6345 7.90151 58.8239 8.53409C59.017 9.16667 59.2898 9.64394 59.642 9.96591C59.9943 10.2841 60.4129 10.4432 60.8977 10.4432ZM75.9702 0.363636V12H73.8622V2.41477H73.794L71.0724 4.15341V2.22159L73.9645 0.363636H75.9702ZM83.1009 12.1591C82.2827 12.1591 81.5554 12.0189 80.919 11.7386C80.2865 11.4583 79.7865 11.0682 79.419 10.5682C79.0516 10.0682 78.8565 9.49053 78.8338 8.83523H80.9702C80.9891 9.14962 81.0933 9.42424 81.2827 9.65909C81.4721 9.89015 81.724 10.0701 82.0384 10.1989C82.3527 10.3277 82.705 10.392 83.0952 10.392C83.5118 10.392 83.8812 10.3201 84.2031 10.1761C84.5251 10.0284 84.777 9.82386 84.9588 9.5625C85.1406 9.30114 85.2296 9 85.2259 8.65909C85.2296 8.30682 85.1387 7.99621 84.9531 7.72727C84.7675 7.45833 84.4986 7.24811 84.1463 7.09659C83.7978 6.94508 83.3774 6.86932 82.8849 6.86932H81.8565V5.24432H82.8849C83.2902 5.24432 83.6444 5.17424 83.9474 5.03409C84.2543 4.89394 84.4948 4.69697 84.669 4.44318C84.8433 4.18561 84.9285 3.88826 84.9247 3.55114C84.9285 3.22159 84.8546 2.93561 84.7031 2.69318C84.5554 2.44697 84.3452 2.25568 84.0724 2.11932C83.8035 1.98295 83.4872 1.91477 83.1236 1.91477C82.7675 1.91477 82.438 1.97917 82.1349 2.10795C81.8319 2.23674 81.5876 2.42045 81.402 2.65909C81.2164 2.89394 81.1179 3.17424 81.1065 3.5H79.0781C79.0933 2.84848 79.2808 2.27652 79.6406 1.78409C80.0043 1.28788 80.4891 0.901515 81.0952 0.625C81.7012 0.344697 82.3812 0.204545 83.1349 0.204545C83.9115 0.204545 84.5857 0.350378 85.1577 0.642045C85.7334 0.929924 86.1785 1.31818 86.4929 1.80682C86.8073 2.29545 86.9645 2.83523 86.9645 3.42614C86.9683 4.08144 86.7751 4.63068 86.3849 5.07386C85.9986 5.51705 85.491 5.80682 84.8622 5.94318V6.03409C85.6804 6.14773 86.3073 6.45076 86.7429 6.94318C87.1823 7.43182 87.4001 8.03977 87.3963 8.76705C87.3963 9.41856 87.2107 10.0019 86.8395 10.517C86.4721 11.0284 85.9645 11.4299 85.3168 11.7216C84.6728 12.0133 83.9342 12.1591 83.1009 12.1591ZM93.5227 12.1591C92.7045 12.1591 91.9773 12.0189 91.3409 11.7386C90.7083 11.4583 90.2083 11.0682 89.8409 10.5682C89.4735 10.0682 89.2784 9.49053 89.2557 8.83523H91.392C91.411 9.14962 91.5152 9.42424 91.7045 9.65909C91.8939 9.89015 92.1458 10.0701 92.4602 10.1989C92.7746 10.3277 93.1269 10.392 93.517 10.392C93.9337 10.392 94.303 10.3201 94.625 10.1761C94.947 10.0284 95.1989 9.82386 95.3807 9.5625C95.5625 9.30114 95.6515 9 95.6477 8.65909C95.6515 8.30682 95.5606 7.99621 95.375 7.72727C95.1894 7.45833 94.9205 7.24811 94.5682 7.09659C94.2197 6.94508 93.7992 6.86932 93.3068 6.86932H92.2784V5.24432H93.3068C93.7121 5.24432 94.0663 5.17424 94.3693 5.03409C94.6761 4.89394 94.9167 4.69697 95.0909 4.44318C95.2652 4.18561 95.3504 3.88826 95.3466 3.55114C95.3504 3.22159 95.2765 2.93561 95.125 2.69318C94.9773 2.44697 94.767 2.25568 94.4943 2.11932C94.2254 1.98295 93.9091 1.91477 93.5455 1.91477C93.1894 1.91477 92.8598 1.97917 92.5568 2.10795C92.2538 2.23674 92.0095 2.42045 91.8239 2.65909C91.6383 2.89394 91.5398 3.17424 91.5284 3.5H89.5C89.5152 2.84848 89.7027 2.27652 90.0625 1.78409C90.4261 1.28788 90.911 0.901515 91.517 0.625C92.1231 0.344697 92.803 0.204545 93.5568 0.204545C94.3333 0.204545 95.0076 0.350378 95.5795 0.642045C96.1553 0.929924 96.6004 1.31818 96.9148 1.80682C97.2292 2.29545 97.3864 2.83523 97.3864 3.42614C97.3902 4.08144 97.197 4.63068 96.8068 5.07386C96.4205 5.51705 95.9129 5.80682 95.2841 5.94318V6.03409C96.1023 6.14773 96.7292 6.45076 97.1648 6.94318C97.6042 7.43182 97.822 8.03977 97.8182 8.76705C97.8182 9.41856 97.6326 10.0019 97.2614 10.517C96.8939 11.0284 96.3864 11.4299 95.7386 11.7216C95.0947 12.0133 94.3561 12.1591 93.5227 12.1591ZM103.945 12.1591C103.126 12.1591 102.399 12.0189 101.763 11.7386C101.13 11.4583 100.63 11.0682 100.263 10.5682C99.8954 10.0682 99.7003 9.49053 99.6776 8.83523H101.814C101.833 9.14962 101.937 9.42424 102.126 9.65909C102.316 9.89015 102.568 10.0701 102.882 10.1989C103.196 10.3277 103.549 10.392 103.939 10.392C104.356 10.392 104.725 10.3201 105.047 10.1761C105.369 10.0284 105.621 9.82386 105.803 9.5625C105.984 9.30114 106.073 9 106.07 8.65909C106.073 8.30682 105.982 7.99621 105.797 7.72727C105.611 7.45833 105.342 7.24811 104.99 7.09659C104.642 6.94508 104.221 6.86932 103.729 6.86932H102.7V5.24432H103.729C104.134 5.24432 104.488 5.17424 104.791 5.03409C105.098 4.89394 105.339 4.69697 105.513 4.44318C105.687 4.18561 105.772 3.88826 105.768 3.55114C105.772 3.22159 105.698 2.93561 105.547 2.69318C105.399 2.44697 105.189 2.25568 104.916 2.11932C104.647 1.98295 104.331 1.91477 103.967 1.91477C103.611 1.91477 103.282 1.97917 102.979 2.10795C102.676 2.23674 102.431 2.42045 102.246 2.65909C102.06 2.89394 101.962 3.17424 101.95 3.5H99.9219C99.937 2.84848 100.125 2.27652 100.484 1.78409C100.848 1.28788 101.333 0.901515 101.939 0.625C102.545 0.344697 103.225 0.204545 103.979 0.204545C104.755 0.204545 105.429 0.350378 106.001 0.642045C106.577 0.929924 107.022 1.31818 107.337 1.80682C107.651 2.29545 107.808 2.83523 107.808 3.42614C107.812 4.08144 107.619 4.63068 107.229 5.07386C106.842 5.51705 106.335 5.80682 105.706 5.94318V6.03409C106.524 6.14773 107.151 6.45076 107.587 6.94318C108.026 7.43182 108.244 8.03977 108.24 8.76705C108.24 9.41856 108.054 10.0019 107.683 10.517C107.316 11.0284 106.808 11.4299 106.161 11.7216C105.517 12.0133 104.778 12.1591 103.945 12.1591ZM114.923 0.363636V12H112.815V2.41477H112.747L110.026 4.15341V2.22159L112.918 0.363636H114.923ZM122.179 12.2216C121.243 12.2216 120.44 11.9848 119.77 11.5114C119.103 11.0341 118.59 10.3466 118.23 9.44886C117.874 8.54735 117.696 7.46212 117.696 6.19318C117.7 4.92424 117.88 3.8447 118.236 2.95455C118.596 2.06061 119.109 1.37879 119.776 0.909091C120.446 0.439394 121.247 0.204545 122.179 0.204545C123.111 0.204545 123.912 0.439394 124.582 0.909091C125.253 1.37879 125.766 2.06061 126.122 2.95455C126.482 3.84848 126.662 4.92803 126.662 6.19318C126.662 7.46591 126.482 8.55303 126.122 9.45455C125.766 10.3523 125.253 11.0379 124.582 11.5114C123.916 11.9848 123.115 12.2216 122.179 12.2216ZM122.179 10.4432C122.906 10.4432 123.48 10.0852 123.901 9.36932C124.325 8.64962 124.537 7.59091 124.537 6.19318C124.537 5.26894 124.44 4.49242 124.247 3.86364C124.054 3.23485 123.781 2.76136 123.429 2.44318C123.077 2.12121 122.66 1.96023 122.179 1.96023C121.455 1.96023 120.884 2.32008 120.463 3.03977C120.043 3.75568 119.83 4.80682 119.827 6.19318C119.823 7.12121 119.916 7.90151 120.105 8.53409C120.298 9.16667 120.571 9.64394 120.923 9.96591C121.276 10.2841 121.694 10.4432 122.179 10.4432ZM132.851 12.2216C131.915 12.2216 131.112 11.9848 130.442 11.5114C129.775 11.0341 129.262 10.3466 128.902 9.44886C128.546 8.54735 128.368 7.46212 128.368 6.19318C128.372 4.92424 128.552 3.8447 128.908 2.95455C129.268 2.06061 129.781 1.37879 130.447 0.909091C131.118 0.439394 131.919 0.204545 132.851 0.204545C133.783 0.204545 134.584 0.439394 135.254 0.909091C135.925 1.37879 136.438 2.06061 136.794 2.95455C137.154 3.84848 137.334 4.92803 137.334 6.19318C137.334 7.46591 137.154 8.55303 136.794 9.45455C136.438 10.3523 135.925 11.0379 135.254 11.5114C134.588 11.9848 133.786 12.2216 132.851 12.2216ZM132.851 10.4432C133.578 10.4432 134.152 10.0852 134.572 9.36932C134.997 8.64962 135.209 7.59091 135.209 6.19318C135.209 5.26894 135.112 4.49242 134.919 3.86364C134.726 3.23485 134.453 2.76136 134.101 2.44318C133.749 2.12121 133.332 1.96023 132.851 1.96023C132.127 1.96023 131.555 2.32008 131.135 3.03977C130.714 3.75568 130.502 4.80682 130.499 6.19318C130.495 7.12121 130.588 7.90151 130.777 8.53409C130.97 9.16667 131.243 9.64394 131.595 9.96591C131.947 10.2841 132.366 10.4432 132.851 10.4432ZM140.058 12.125C139.714 12.125 139.418 12.0038 139.172 11.7614C138.926 11.5189 138.804 11.2235 138.808 10.875C138.804 10.5341 138.926 10.2424 139.172 10C139.418 9.75758 139.714 9.63636 140.058 9.63636C140.392 9.63636 140.681 9.75758 140.928 10C141.178 10.2424 141.304 10.5341 141.308 10.875C141.304 11.1061 141.244 11.3163 141.126 11.5057C141.013 11.6951 140.861 11.8466 140.672 11.9602C140.486 12.0701 140.282 12.125 140.058 12.125Z" fill="#515151"/>
</svg>
