<svg width="726" height="336" viewBox="0 0 726 336" fill="none" xmlns="http://www.w3.org/2000/svg">
<g filter="url(#filter0_d_0_1)">
<path d="M37 161C37 86.9939 96.9938 27 171 27H726V313H171C96.9939 313 37 253.006 37 179V161Z" fill="url(#paint0_linear_0_1)"/>
</g>
<path d="M216.838 185V168.273H222.8C224.101 168.273 225.18 168.51 226.034 168.983C226.889 169.457 227.529 170.105 227.954 170.927C228.379 171.744 228.591 172.664 228.591 173.688C228.591 174.717 228.376 175.643 227.946 176.465C227.521 177.282 226.878 177.93 226.018 178.409C225.163 178.882 224.088 179.119 222.792 179.119H218.692V176.979H222.563C223.385 176.979 224.052 176.838 224.564 176.555C225.076 176.266 225.452 175.874 225.691 175.379C225.931 174.883 226.051 174.319 226.051 173.688C226.051 173.056 225.931 172.495 225.691 172.005C225.452 171.515 225.073 171.131 224.556 170.854C224.044 170.576 223.369 170.437 222.531 170.437H219.362V185H216.838ZM231.55 185V168.273H237.512C238.808 168.273 239.883 168.496 240.738 168.942C241.599 169.389 242.241 170.007 242.666 170.797C243.09 171.581 243.303 172.487 243.303 173.516C243.303 174.54 243.088 175.441 242.658 176.22C242.233 176.993 241.59 177.595 240.73 178.025C239.875 178.455 238.8 178.67 237.504 178.67H232.987V176.498H237.275C238.092 176.498 238.756 176.38 239.268 176.146C239.785 175.912 240.164 175.572 240.403 175.125C240.643 174.679 240.763 174.143 240.763 173.516C240.763 172.885 240.64 172.337 240.395 171.875C240.156 171.412 239.777 171.058 239.26 170.813C238.748 170.562 238.076 170.437 237.242 170.437H234.073V185H231.55ZM239.807 177.453L243.94 185H241.065L237.014 177.453H239.807ZM246.374 185V168.273H256.861V170.445H248.898V175.542H256.314V177.706H248.898V182.827H256.959V185H246.374ZM261.694 168.273L266.35 181.896H266.538L271.193 168.273H273.921L267.902 185H264.986L258.966 168.273H261.694ZM288.598 167.489L283.208 187.516H281.027L286.418 167.489H288.598ZM310.457 168.273V185H308.137L299.635 172.732H299.48V185H296.956V168.273H299.292L307.802 180.557H307.958V168.273H310.457ZM314.138 185V168.273H324.626V170.445H316.662V175.542H324.078V177.706H316.662V182.827H324.724V185H314.138ZM329.753 168.273L333.755 174.815H333.886L337.888 168.273H340.812L335.601 176.636L340.845 185H337.904L333.886 178.548H333.755L329.737 185H326.796L332.13 176.636L326.829 168.273H329.753ZM342.49 170.445V168.273H355.436V170.445H350.217V185H347.701V170.445H342.49Z" fill="white"/>
<defs>
<filter id="filter0_d_0_1" x="0" y="0" width="739" height="336" filterUnits="userSpaceOnUse" color-interpolation-filters="sRGB">
<feFlood flood-opacity="0" result="BackgroundImageFix"/>
<feColorMatrix in="SourceAlpha" type="matrix" values="0 0 0 0 0 0 0 0 0 0 0 0 0 0 0 0 0 0 127 0" result="hardAlpha"/>
<feOffset dx="-12" dy="-2"/>
<feGaussianBlur stdDeviation="12.5"/>
<feComposite in2="hardAlpha" operator="out"/>
<feColorMatrix type="matrix" values="0 0 0 0 0.129412 0 0 0 0 0.721569 0 0 0 0 0.552941 0 0 0 0.58 0"/>
<feBlend mode="normal" in2="BackgroundImageFix" result="effect1_dropShadow_0_1"/>
<feBlend mode="normal" in="SourceGraphic" in2="effect1_dropShadow_0_1" result="shape"/>
</filter>
<linearGradient id="paint0_linear_0_1" x1="73" y1="313" x2="726" y2="75" gradientUnits="userSpaceOnUse">
<stop stop-color="#23BA8D"/>
<stop offset="1" stop-color="#018297"/>
</linearGradient>
</defs>
</svg>
