<svg width="286" height="419" viewBox="0 0 286 419" fill="none" xmlns="http://www.w3.org/2000/svg">
<path opacity="0.63" d="M222.732 0.916C230.445 0.916 237.98 2.34 245.338 5.188C252.814 8.15467 259.578 12.4267 265.63 18.004C271.682 23.5813 276.488 30.3453 280.048 38.296C283.726 46.3653 285.566 55.4433 285.566 65.53C285.566 77.634 283.014 88.1953 277.912 97.214C272.928 106.233 266.282 112.937 257.976 117.328L239.108 90.806C243.261 89.2633 246.465 87.0087 248.72 84.042C250.974 81.194 252.517 78.0493 253.348 74.608C254.297 71.2853 254.772 68.022 254.772 64.818C254.772 59.834 253.763 55.5027 251.746 51.824C249.847 48.264 247.296 45.2973 244.092 42.924C240.888 40.6693 237.328 38.9487 233.412 37.762C229.496 36.694 225.58 36.16 221.664 36.16C217.273 36.16 213.06 36.8127 209.026 38.118C204.991 39.4233 201.372 41.322 198.168 43.814C195.082 46.306 192.65 49.332 190.87 52.892C189.09 56.5707 188.2 60.6647 188.2 65.174C188.2 68.378 188.674 71.6413 189.624 74.964C190.692 78.2867 192.353 81.3127 194.608 84.042C196.862 86.7713 199.888 88.848 203.686 90.272L186.776 118.574C180.605 116.082 175.324 111.929 170.934 106.114C166.543 100.299 163.161 93.7133 160.788 86.356C158.533 78.9987 157.406 71.7007 157.406 64.462C157.406 55.0873 159.245 46.484 162.924 38.652C166.721 30.9387 171.705 24.234 177.876 18.538C184.165 12.9607 191.166 8.62933 198.88 5.544C206.712 2.45867 214.662 0.916 222.732 0.916ZM284.854 242.712L158.474 242.712V208.002L207.958 208.002V165.638L158.474 165.638L158.474 130.928L284.854 130.928V165.638H238.218V208.002H284.854V242.712ZM284.854 293.62L284.854 332.424L158.474 372.652V337.408L183.216 329.754V296.112L158.474 288.636V253.214L284.854 293.62ZM206.356 324.236L250.856 313.022L206.356 301.274V324.236Z" fill="#EFEFEF"/>
<path opacity="0.63" d="M1.82324 5.858L128.203 5.858V40.568L1.82324 40.568V5.858ZM63.9452 97.0621H1.82324V62.3521L128.203 62.3521V89.4081L63.9452 140.138H128.203L128.203 174.848L1.82324 174.848V147.258L63.9452 97.0621ZM0.933242 251.193C0.933242 243.005 2.35724 235.173 5.20524 227.697C8.17191 220.34 12.4439 213.813 18.0212 208.117C23.7172 202.421 30.5406 197.912 38.4912 194.589C46.5606 191.385 55.7572 189.783 66.0812 189.783C74.9812 189.783 83.2286 191.445 90.8232 194.767C98.4179 198.09 105.063 202.659 110.759 208.473C116.574 214.407 121.083 221.289 124.287 229.121C127.491 236.953 129.093 245.438 129.093 254.575C129.093 265.967 126.601 276.291 121.617 285.547C116.752 294.803 110.047 301.686 101.503 306.195L81.7452 280.385C86.7292 277.893 90.7046 274.155 93.6712 269.171C96.7566 264.187 98.2993 258.907 98.2993 253.329C98.2993 249.176 97.4686 245.379 95.8072 241.937C94.1459 238.496 91.8319 235.47 88.8652 232.859C85.8986 230.367 82.3386 228.409 78.1852 226.985C74.1506 225.68 69.7006 225.027 64.8352 225.027C59.8512 225.027 55.3419 225.739 51.3072 227.163C47.2726 228.587 43.7719 230.545 40.8052 233.037C37.9572 235.648 35.7026 238.733 34.0412 242.293C32.4986 245.853 31.7272 249.829 31.7272 254.219C31.7272 259.797 33.0919 265.137 35.8212 270.239C38.6692 275.342 42.6446 279.97 47.7472 284.123H13.9272C5.26458 274.63 0.933242 263.653 0.933242 251.193ZM44.1872 282.343V259.025H69.1072V311.001H1.82324V282.343H44.1872ZM32.0832 418.203H1.82324V328.135H128.203L128.203 416.601H97.9432L97.9432 362.845H80.1432V408.769H52.0192V362.845H32.0832V418.203Z" fill="#EFEFEF"/>
</svg>
