<svg width="88" height="17" viewBox="0 0 88 17" fill="none" xmlns="http://www.w3.org/2000/svg">
<path d="M0.858 8.08C0.858 7.12667 1.01933 6.19533 1.342 5.286C1.67933 4.362 2.16333 3.526 2.794 2.778C3.43933 2.01533 4.224 1.414 5.148 0.973999C6.072 0.519332 7.12067 0.291999 8.294 0.291999C9.68733 0.291999 10.8827 0.614666 11.88 1.26C12.8773 1.89067 13.618 2.70467 14.102 3.702L12.54 4.714C12.232 4.054 11.836 3.53333 11.352 3.152C10.8827 2.756 10.3693 2.47733 9.812 2.316C9.26933 2.15467 8.734 2.074 8.206 2.074C7.34067 2.074 6.57067 2.25 5.896 2.602C5.236 2.954 4.67867 3.42333 4.224 4.01C3.76933 4.59667 3.42467 5.25667 3.19 5.99C2.97 6.70867 2.86 7.43467 2.86 8.168C2.86 8.97467 2.992 9.752 3.256 10.5C3.53467 11.248 3.916 11.908 4.4 12.48C4.884 13.052 5.456 13.5067 6.116 13.844C6.776 14.1813 7.49467 14.35 8.272 14.35C8.81467 14.35 9.372 14.2547 9.944 14.064C10.516 13.8733 11.0513 13.58 11.55 13.184C12.0487 12.7733 12.4447 12.2453 12.738 11.6L14.388 12.502C14.0653 13.2793 13.5667 13.9393 12.892 14.482C12.2173 15.0247 11.462 15.4353 10.626 15.714C9.80467 15.9927 8.99067 16.132 8.184 16.132C7.11333 16.132 6.13067 15.9047 5.236 15.45C4.34133 14.9807 3.564 14.3647 2.904 13.602C2.25867 12.8247 1.75267 11.9593 1.386 11.006C1.034 10.038 0.858 9.06267 0.858 8.08ZM23.0302 16.11C21.9302 16.11 20.9329 15.89 20.0382 15.45C19.1436 15.01 18.3662 14.416 17.7062 13.668C17.0609 12.9053 16.5622 12.0547 16.2102 11.116C15.8582 10.1627 15.6822 9.18733 15.6822 8.19C15.6822 7.14867 15.8656 6.15867 16.2322 5.22C16.6136 4.26667 17.1342 3.42333 17.7942 2.69C18.4689 1.942 19.2536 1.35533 20.1482 0.929999C21.0429 0.489999 22.0182 0.269999 23.0742 0.269999C24.1742 0.269999 25.1716 0.497333 26.0662 0.952C26.9609 1.40667 27.7309 2.01533 28.3762 2.778C29.0216 3.54067 29.5202 4.39133 29.8722 5.33C30.2242 6.26867 30.4002 7.22933 30.4002 8.212C30.4002 9.25333 30.2169 10.2507 29.8502 11.204C29.4836 12.1427 28.9629 12.986 28.2882 13.734C27.6282 14.4673 26.8509 15.0467 25.9562 15.472C25.0616 15.8973 24.0862 16.11 23.0302 16.11ZM17.6842 8.19C17.6842 8.982 17.8089 9.752 18.0582 10.5C18.3222 11.2333 18.6889 11.886 19.1582 12.458C19.6276 13.03 20.1922 13.4847 20.8522 13.822C21.5122 14.1593 22.2456 14.328 23.0522 14.328C23.8882 14.328 24.6362 14.152 25.2962 13.8C25.9562 13.448 26.5136 12.9787 26.9682 12.392C27.4376 11.8053 27.7896 11.1453 28.0242 10.412C28.2736 9.67867 28.3982 8.938 28.3982 8.19C28.3982 7.398 28.2662 6.63533 28.0022 5.902C27.7529 5.16867 27.3862 4.516 26.9022 3.944C26.4329 3.35733 25.8682 2.90267 25.2082 2.58C24.5629 2.24267 23.8442 2.074 23.0522 2.074C22.2162 2.074 21.4682 2.25 20.8082 2.602C20.1482 2.93933 19.5836 3.40133 19.1142 3.988C18.6596 4.57467 18.3076 5.23467 18.0582 5.968C17.8089 6.68667 17.6842 7.42733 17.6842 8.19ZM33.1513 16V0.379999H35.1313V14.24H43.8433V16H33.1513ZM51.8623 16.11C50.7623 16.11 49.7649 15.89 48.8703 15.45C47.9756 15.01 47.1983 14.416 46.5383 13.668C45.8929 12.9053 45.3943 12.0547 45.0423 11.116C44.6903 10.1627 44.5143 9.18733 44.5143 8.19C44.5143 7.14867 44.6976 6.15867 45.0643 5.22C45.4456 4.26667 45.9663 3.42333 46.6263 2.69C47.3009 1.942 48.0856 1.35533 48.9803 0.929999C49.8749 0.489999 50.8503 0.269999 51.9063 0.269999C53.0063 0.269999 54.0036 0.497333 54.8983 0.952C55.7929 1.40667 56.5629 2.01533 57.2083 2.778C57.8536 3.54067 58.3523 4.39133 58.7043 5.33C59.0563 6.26867 59.2323 7.22933 59.2323 8.212C59.2323 9.25333 59.0489 10.2507 58.6823 11.204C58.3156 12.1427 57.7949 12.986 57.1203 13.734C56.4603 14.4673 55.6829 15.0467 54.7883 15.472C53.8936 15.8973 52.9183 16.11 51.8623 16.11ZM46.5163 8.19C46.5163 8.982 46.6409 9.752 46.8902 10.5C47.1543 11.2333 47.5209 11.886 47.9903 12.458C48.4596 13.03 49.0243 13.4847 49.6843 13.822C50.3443 14.1593 51.0776 14.328 51.8843 14.328C52.7203 14.328 53.4683 14.152 54.1283 13.8C54.7883 13.448 55.3456 12.9787 55.8003 12.392C56.2696 11.8053 56.6216 11.1453 56.8563 10.412C57.1056 9.67867 57.2303 8.938 57.2303 8.19C57.2303 7.398 57.0983 6.63533 56.8343 5.902C56.5849 5.16867 56.2183 4.516 55.7343 3.944C55.2649 3.35733 54.7003 2.90267 54.0403 2.58C53.3949 2.24267 52.6763 2.074 51.8843 2.074C51.0483 2.074 50.3003 2.25 49.6403 2.602C48.9803 2.93933 48.4156 3.40133 47.9463 3.988C47.4916 4.57467 47.1396 5.23467 46.8902 5.968C46.6409 6.68667 46.5163 7.42733 46.5163 8.19ZM61.9833 16V0.379999H68.6713C69.3606 0.379999 69.9913 0.526666 70.5633 0.819999C71.1353 1.09867 71.6339 1.48 72.0593 1.964C72.4846 2.43333 72.8146 2.96867 73.0493 3.57C73.2839 4.15667 73.4013 4.758 73.4013 5.374C73.4013 6.09267 73.2619 6.77467 72.9833 7.42C72.7193 8.06533 72.3379 8.61533 71.8393 9.07C71.3553 9.52467 70.7833 9.84 70.1233 10.016L73.9073 16H71.6633L68.0993 10.39H63.9633V16H61.9833ZM63.9633 8.63H68.6933C69.2359 8.63 69.7053 8.48333 70.1013 8.19C70.5119 7.882 70.8273 7.47867 71.0473 6.98C71.2819 6.48133 71.3993 5.946 71.3993 5.374C71.3993 4.78733 71.2673 4.252 71.0033 3.768C70.7393 3.26933 70.3946 2.87333 69.9693 2.58C69.5439 2.28667 69.0746 2.14 68.5613 2.14H63.9633V8.63ZM85.6163 3.658C85.4403 3.45267 85.2056 3.25467 84.9123 3.064C84.6189 2.87333 84.2889 2.70467 83.9223 2.558C83.5556 2.39667 83.1523 2.272 82.7123 2.184C82.2869 2.08133 81.8396 2.03 81.3703 2.03C80.1676 2.03 79.2803 2.25733 78.7083 2.712C78.1363 3.16667 77.8503 3.79 77.8503 4.582C77.8503 5.13933 77.9969 5.57933 78.2903 5.902C78.5836 6.22467 79.0309 6.48867 79.6323 6.694C80.2483 6.89933 81.0256 7.112 81.9643 7.332C83.0496 7.56667 83.9883 7.85267 84.7803 8.19C85.5723 8.52733 86.1809 8.982 86.6063 9.554C87.0316 10.1113 87.2443 10.8593 87.2443 11.798C87.2443 12.546 87.0976 13.1987 86.8043 13.756C86.5256 14.2987 86.1296 14.7533 85.6163 15.12C85.1029 15.472 84.5016 15.736 83.8123 15.912C83.1229 16.0733 82.3749 16.154 81.5683 16.154C80.7763 16.154 79.9989 16.0733 79.2363 15.912C78.4883 15.736 77.7769 15.4867 77.1023 15.164C76.4276 14.8413 75.7969 14.438 75.2103 13.954L76.1563 12.282C76.3909 12.5313 76.6916 12.7807 77.0583 13.03C77.4396 13.2647 77.8649 13.4847 78.3343 13.69C78.8183 13.8953 79.3389 14.064 79.8963 14.196C80.4536 14.3133 81.0256 14.372 81.6123 14.372C82.7269 14.372 83.5923 14.174 84.2083 13.778C84.8243 13.3673 85.1323 12.7733 85.1323 11.996C85.1323 11.4093 84.9563 10.94 84.6043 10.588C84.2669 10.236 83.7609 9.94267 83.0863 9.708C82.4116 9.47333 81.5903 9.23867 80.6223 9.004C79.5663 8.74 78.6789 8.454 77.9603 8.146C77.2416 7.82333 76.6989 7.40533 76.3323 6.892C75.9803 6.37867 75.8043 5.71133 75.8043 4.89C75.8043 3.89267 76.0463 3.04933 76.5303 2.36C77.0143 1.67067 77.6816 1.15 78.5323 0.797999C79.3829 0.445999 80.3436 0.269999 81.4143 0.269999C82.1183 0.269999 82.7709 0.343333 83.3723 0.489999C83.9883 0.636666 84.5603 0.841999 85.0883 1.106C85.6163 1.37 86.1003 1.68533 86.5403 2.052L85.6163 3.658Z" fill="#747070"/>
</svg>
