<svg width="663" height="278" viewBox="0 0 663 278" fill="none" xmlns="http://www.w3.org/2000/svg">
<path d="M4.1 55V1.75H28.1C30.6 1.75 32.9 2.275 35 3.325C37.15 4.325 39 5.7 40.55 7.45C42.1 9.15 43.3 11.075 44.15 13.225C45.05 15.375 45.5 17.55 45.5 19.75C45.5 21.95 45.15 24.05 44.45 26.05C43.75 28 42.75 29.775 41.45 31.375C40.15 32.925 38.6 34.2 36.8 35.2L48.5 55H34.925L24.725 37.825H16.4V55H4.1ZM16.4 27.1H27.65C28.65 27.1 29.525 26.8 30.275 26.2C31.075 25.55 31.725 24.675 32.225 23.575C32.725 22.475 32.975 21.2 32.975 19.75C32.975 18.3 32.675 17.05 32.075 16C31.525 14.9 30.825 14.05 29.975 13.45C29.125 12.85 28.225 12.55 27.275 12.55H16.4V27.1ZM70.8758 55.75C67.5258 55.75 64.5508 55.225 61.9508 54.175C59.3508 53.075 57.1258 51.6 55.2758 49.75C53.4758 47.9 52.1008 45.775 51.1508 43.375C50.2008 40.925 49.7258 38.375 49.7258 35.725C49.7258 31.925 50.5508 28.475 52.2008 25.375C53.9008 22.225 56.3258 19.7 59.4758 17.8C62.6258 15.85 66.4258 14.875 70.8758 14.875C75.3258 14.875 79.1008 15.825 82.2008 17.725C85.3508 19.625 87.7508 22.125 89.4008 25.225C91.0508 28.275 91.8758 31.6 91.8758 35.2C91.8758 35.9 91.8258 36.6 91.7258 37.3C91.6758 37.95 91.6258 38.525 91.5758 39.025H62.4758C62.6258 40.775 63.1008 42.25 63.9008 43.45C64.7508 44.65 65.8258 45.575 67.1258 46.225C68.4258 46.825 69.8008 47.125 71.2508 47.125C73.0508 47.125 74.7258 46.7 76.2758 45.85C77.8758 45 78.9758 43.85 79.5758 42.4L89.7758 45.25C88.7758 47.3 87.3508 49.125 85.5008 50.725C83.7008 52.275 81.5508 53.5 79.0508 54.4C76.6008 55.3 73.8758 55.75 70.8758 55.75ZM62.1758 31.675H79.2758C79.0758 30.025 78.6008 28.6 77.8508 27.4C77.1008 26.15 76.1008 25.2 74.8508 24.55C73.6008 23.85 72.2258 23.5 70.7258 23.5C69.1758 23.5 67.7758 23.85 66.5258 24.55C65.3258 25.2 64.3508 26.15 63.6008 27.4C62.8508 28.6 62.3758 30.025 62.1758 31.675ZM122.214 55.75C119.264 55.75 116.689 55.125 114.489 53.875C112.289 52.575 110.564 50.825 109.314 48.625V70.975H97.3145V15.625H107.739V22C109.189 19.75 111.014 18 113.214 16.75C115.414 15.5 117.989 14.875 120.939 14.875C123.589 14.875 126.014 15.4 128.214 16.45C130.464 17.5 132.414 18.95 134.064 20.8C135.714 22.65 136.989 24.8 137.889 27.25C138.789 29.7 139.239 32.35 139.239 35.2C139.239 39.1 138.514 42.6 137.064 45.7C135.614 48.8 133.589 51.25 130.989 53.05C128.439 54.85 125.514 55.75 122.214 55.75ZM118.164 45.625C119.464 45.625 120.639 45.35 121.689 44.8C122.789 44.2 123.739 43.425 124.539 42.475C125.339 41.525 125.939 40.425 126.339 39.175C126.789 37.875 127.014 36.525 127.014 35.125C127.014 33.675 126.764 32.35 126.264 31.15C125.814 29.95 125.164 28.9 124.314 28C123.464 27.05 122.464 26.325 121.314 25.825C120.164 25.325 118.914 25.075 117.564 25.075C116.764 25.075 115.939 25.2 115.089 25.45C114.289 25.7 113.514 26.075 112.764 26.575C112.064 27.025 111.414 27.575 110.814 28.225C110.214 28.875 109.714 29.625 109.314 30.475V38.575C109.864 39.925 110.589 41.125 111.489 42.175C112.389 43.225 113.414 44.075 114.564 44.725C115.714 45.325 116.914 45.625 118.164 45.625ZM142.813 43.225C142.813 40.625 143.538 38.35 144.988 36.4C146.438 34.45 148.438 32.925 150.988 31.825C153.538 30.675 156.463 30.1 159.763 30.1C161.363 30.1 162.938 30.25 164.488 30.55C166.038 30.8 167.388 31.175 168.538 31.675V29.95C168.538 27.8 167.888 26.15 166.588 25C165.288 23.85 163.313 23.275 160.663 23.275C158.463 23.275 156.388 23.65 154.438 24.4C152.538 25.15 150.513 26.225 148.363 27.625L144.763 19.975C147.363 18.275 150.063 17 152.863 16.15C155.713 15.3 158.713 14.875 161.863 14.875C167.763 14.875 172.338 16.3 175.588 19.15C178.888 21.95 180.538 26.025 180.538 31.375V41.65C180.538 42.85 180.713 43.7 181.063 44.2C181.463 44.65 182.138 44.925 183.088 45.025V55C182.088 55.2 181.138 55.35 180.238 55.45C179.388 55.55 178.638 55.6 177.988 55.6C175.738 55.6 174.013 55.15 172.813 54.25C171.663 53.35 170.938 52.125 170.638 50.575L170.413 48.85C168.663 51.1 166.563 52.825 164.113 54.025C161.713 55.175 159.188 55.75 156.538 55.75C153.938 55.75 151.588 55.2 149.488 54.1C147.438 53 145.813 51.5 144.613 49.6C143.413 47.7 142.813 45.575 142.813 43.225ZM166.663 44.725C167.213 44.275 167.663 43.775 168.013 43.225C168.363 42.675 168.538 42.15 168.538 41.65V38.125C167.538 37.725 166.413 37.425 165.163 37.225C163.963 36.975 162.838 36.85 161.788 36.85C159.588 36.85 157.763 37.35 156.313 38.35C154.863 39.3 154.138 40.575 154.138 42.175C154.138 43.075 154.388 43.9 154.888 44.65C155.388 45.4 156.063 46 156.913 46.45C157.813 46.9 158.863 47.125 160.063 47.125C161.263 47.125 162.463 46.9 163.663 46.45C164.863 46 165.863 45.425 166.663 44.725ZM189.233 55V15.625H201.233V55H189.233ZM189.233 11.125V0.249999H201.233V11.125H189.233ZM234.423 25.9C231.523 25.9 228.898 26.375 226.548 27.325C224.198 28.225 222.498 29.575 221.448 31.375V55H209.448V15.625H220.473V23.575C221.823 20.925 223.573 18.85 225.723 17.35C227.873 15.85 230.123 15.075 232.473 15.025C233.023 15.025 233.423 15.025 233.673 15.025C233.973 15.025 234.223 15.05 234.423 15.1V25.9ZM239.478 55V15.625H251.478V55H239.478ZM239.478 11.125V0.249999H251.478V11.125H239.478ZM297.642 55H285.642V32.875C285.642 30.275 285.142 28.4 284.142 27.25C283.192 26.05 281.917 25.45 280.317 25.45C279.217 25.45 278.092 25.75 276.942 26.35C275.792 26.95 274.742 27.775 273.792 28.825C272.892 29.875 272.192 31.075 271.692 32.425V55H259.692V15.625H270.492V22.225C271.492 20.675 272.742 19.35 274.242 18.25C275.742 17.15 277.467 16.325 279.417 15.775C281.367 15.175 283.492 14.875 285.792 14.875C288.342 14.875 290.392 15.35 291.942 16.3C293.542 17.2 294.742 18.4 295.542 19.9C296.392 21.4 296.942 23.025 297.192 24.775C297.492 26.475 297.642 28.15 297.642 29.8V55ZM320.915 55.15C318.315 55.15 315.94 54.65 313.79 53.65C311.64 52.6 309.79 51.175 308.24 49.375C306.74 47.525 305.565 45.4 304.715 43C303.865 40.6 303.44 38.025 303.44 35.275C303.44 32.375 303.89 29.7 304.79 27.25C305.69 24.8 306.94 22.65 308.54 20.8C310.19 18.9 312.115 17.45 314.315 16.45C316.565 15.4 319.04 14.875 321.74 14.875C324.69 14.875 327.29 15.525 329.54 16.825C331.79 18.075 333.59 19.825 334.94 22.075V15.625H345.365V52.3C345.365 56.3 344.39 59.75 342.44 62.65C340.54 65.55 337.865 67.775 334.415 69.325C331.015 70.925 327.065 71.725 322.565 71.725C318.365 71.725 314.74 71.025 311.69 69.625C308.69 68.275 306.065 66.35 303.815 63.85L310.265 57.325C311.715 58.975 313.515 60.275 315.665 61.225C317.815 62.225 320.115 62.725 322.565 62.725C324.515 62.725 326.315 62.375 327.965 61.675C329.615 60.975 330.915 59.85 331.865 58.3C332.865 56.75 333.365 54.75 333.365 52.3V48.475C332.165 50.625 330.415 52.275 328.115 53.425C325.865 54.575 323.465 55.15 320.915 55.15ZM325.04 45.625C325.99 45.625 326.865 45.5 327.665 45.25C328.515 44.95 329.29 44.575 329.99 44.125C330.69 43.625 331.34 43.05 331.94 42.4C332.54 41.7 333.015 40.95 333.365 40.15V31.9C332.865 30.5 332.14 29.3 331.19 28.3C330.24 27.25 329.19 26.45 328.04 25.9C326.89 25.35 325.69 25.075 324.44 25.075C323.19 25.075 322.015 25.35 320.915 25.9C319.815 26.45 318.865 27.25 318.065 28.3C317.315 29.3 316.715 30.425 316.265 31.675C315.865 32.925 315.665 34.225 315.665 35.575C315.665 37.025 315.89 38.35 316.34 39.55C316.84 40.75 317.515 41.825 318.365 42.775C319.215 43.675 320.215 44.375 321.365 44.875C322.515 45.375 323.74 45.625 325.04 45.625ZM389.919 55.75C386.569 55.75 383.594 55.2 380.994 54.1C378.394 53 376.169 51.5 374.319 49.6C372.519 47.7 371.144 45.525 370.194 43.075C369.244 40.625 368.769 38.025 368.769 35.275C368.769 31.675 369.594 28.325 371.244 25.225C372.944 22.125 375.369 19.625 378.519 17.725C381.669 15.825 385.469 14.875 389.919 14.875C394.419 14.875 398.219 15.85 401.319 17.8C404.469 19.7 406.819 22.2 408.369 25.3L396.669 28.825C395.919 27.625 394.944 26.7 393.744 26.05C392.594 25.4 391.294 25.075 389.844 25.075C388.194 25.075 386.694 25.5 385.344 26.35C384.044 27.2 382.994 28.375 382.194 29.875C381.444 31.375 381.069 33.175 381.069 35.275C381.069 37.325 381.469 39.125 382.269 40.675C383.069 42.225 384.119 43.45 385.419 44.35C386.719 45.2 388.194 45.625 389.844 45.625C390.844 45.625 391.769 45.475 392.619 45.175C393.519 44.825 394.319 44.35 395.019 43.75C395.769 43.15 396.344 42.475 396.744 41.725L408.444 45.325C407.494 47.325 406.119 49.125 404.319 50.725C402.569 52.275 400.494 53.5 398.094 54.4C395.694 55.3 392.969 55.75 389.919 55.75ZM432.251 55.75C428.901 55.75 425.901 55.2 423.251 54.1C420.651 53 418.451 51.5 416.651 49.6C414.851 47.7 413.476 45.525 412.526 43.075C411.626 40.625 411.176 38.05 411.176 35.35C411.176 32.6 411.626 30 412.526 27.55C413.476 25.1 414.851 22.925 416.651 21.025C418.451 19.125 420.651 17.625 423.251 16.525C425.901 15.425 428.901 14.875 432.251 14.875C435.601 14.875 438.576 15.425 441.176 16.525C443.776 17.625 445.976 19.125 447.776 21.025C449.576 22.925 450.951 25.1 451.901 27.55C452.851 30 453.326 32.6 453.326 35.35C453.326 38.05 452.851 40.625 451.901 43.075C450.951 45.525 449.576 47.7 447.776 49.6C445.976 51.5 443.776 53 441.176 54.1C438.576 55.2 435.601 55.75 432.251 55.75ZM423.476 35.35C423.476 37.4 423.851 39.2 424.601 40.75C425.401 42.3 426.451 43.5 427.751 44.35C429.051 45.2 430.551 45.625 432.251 45.625C433.901 45.625 435.376 45.2 436.676 44.35C438.026 43.45 439.076 42.225 439.826 40.675C440.576 39.125 440.951 37.35 440.951 35.35C440.951 33.3 440.576 31.5 439.826 29.95C439.076 28.4 438.026 27.2 436.676 26.35C435.376 25.5 433.901 25.075 432.251 25.075C430.551 25.075 429.051 25.5 427.751 26.35C426.451 27.2 425.401 28.4 424.601 29.95C423.851 31.5 423.476 33.3 423.476 35.35ZM458.902 40.825V15.625H470.902V38.2C470.902 40.6 471.377 42.45 472.327 43.75C473.277 45 474.627 45.625 476.377 45.625C477.477 45.625 478.527 45.45 479.527 45.1C480.527 44.7 481.502 44.075 482.452 43.225C483.402 42.375 484.252 41.275 485.002 39.925V15.625H497.002V41.65C497.002 42.85 497.177 43.7 497.527 44.2C497.927 44.65 498.602 44.925 499.552 45.025V55C498.452 55.2 497.477 55.35 496.627 55.45C495.827 55.55 495.102 55.6 494.452 55.6C492.352 55.6 490.677 55.175 489.427 54.325C488.177 53.425 487.402 52.175 487.102 50.575L486.877 48.175C485.077 50.775 482.827 52.7 480.127 53.95C477.477 55.15 474.502 55.75 471.202 55.75C467.202 55.75 464.152 54.475 462.052 51.925C459.952 49.375 458.902 45.675 458.902 40.825ZM506.149 0.249999H518.149V40.975C518.149 42.625 518.449 43.8 519.049 44.5C519.649 45.2 520.499 45.55 521.599 45.55C522.349 45.55 523.099 45.45 523.849 45.25C524.649 45 525.349 44.725 525.949 44.425L527.524 53.425C526.024 54.125 524.299 54.675 522.349 55.075C520.399 55.475 518.574 55.675 516.874 55.675C513.474 55.675 510.824 54.775 508.924 52.975C507.074 51.125 506.149 48.525 506.149 45.175V0.249999ZM529.171 35.275C529.171 31.425 529.921 27.975 531.421 24.925C532.921 21.825 534.971 19.375 537.571 17.575C540.171 15.775 543.171 14.875 546.571 14.875C549.321 14.875 551.821 15.55 554.071 16.9C556.321 18.2 558.021 19.925 559.171 22.075V0.249999H571.171V41.65C571.171 42.85 571.371 43.7 571.771 44.2C572.171 44.65 572.821 44.925 573.721 45.025V55C571.621 55.4 569.921 55.6 568.621 55.6C566.571 55.6 564.896 55.15 563.596 54.25C562.346 53.35 561.571 52.1 561.271 50.5L561.046 48.475C559.646 50.925 557.746 52.75 555.346 53.95C552.946 55.15 550.421 55.75 547.771 55.75C545.071 55.75 542.571 55.25 540.271 54.25C538.021 53.2 536.046 51.75 534.346 49.9C532.696 48.05 531.421 45.875 530.521 43.375C529.621 40.875 529.171 38.175 529.171 35.275ZM559.246 40.15V31.9C558.746 30.55 558.021 29.375 557.071 28.375C556.171 27.375 555.121 26.575 553.921 25.975C552.771 25.375 551.596 25.075 550.396 25.075C549.096 25.075 547.896 25.35 546.796 25.9C545.746 26.45 544.821 27.225 544.021 28.225C543.221 29.175 542.596 30.275 542.146 31.525C541.746 32.775 541.546 34.1 541.546 35.5C541.546 36.95 541.771 38.3 542.221 39.55C542.721 40.75 543.396 41.825 544.246 42.775C545.096 43.675 546.096 44.375 547.246 44.875C548.396 45.375 549.646 45.625 550.996 45.625C551.846 45.625 552.671 45.5 553.471 45.25C554.271 44.95 555.021 44.575 555.721 44.125C556.471 43.675 557.146 43.1 557.746 42.4C558.346 41.7 558.846 40.95 559.246 40.15ZM618.443 55H606.443V32.875C606.443 30.275 605.943 28.4 604.943 27.25C603.993 26.05 602.718 25.45 601.118 25.45C600.018 25.45 598.893 25.75 597.743 26.35C596.593 26.95 595.543 27.775 594.593 28.825C593.693 29.875 592.993 31.075 592.493 32.425V55H580.493V15.625H591.293V22.225C592.293 20.675 593.543 19.35 595.043 18.25C596.543 17.15 598.268 16.325 600.218 15.775C602.168 15.175 604.293 14.875 606.593 14.875C609.143 14.875 611.193 15.35 612.743 16.3C614.343 17.2 615.543 18.4 616.343 19.9C617.193 21.4 617.743 23.025 617.993 24.775C618.293 26.475 618.443 28.15 618.443 29.8V55ZM622.562 20.725L624.362 11.2H620.987V0.249999H633.212V11.5L630.362 20.725H622.562ZM662.756 52.9C661.656 53.35 660.431 53.8 659.081 54.25C657.781 54.7 656.406 55.05 654.956 55.3C653.506 55.6 652.081 55.75 650.681 55.75C648.681 55.75 646.831 55.425 645.131 54.775C643.481 54.075 642.156 52.95 641.156 51.4C640.206 49.85 639.731 47.8 639.731 45.25V24.7H634.706V15.625H639.731V3.1H651.731V15.625H659.756V24.7H651.731V41.125C651.731 42.425 652.056 43.375 652.706 43.975C653.356 44.525 654.181 44.8 655.181 44.8C656.031 44.8 656.931 44.65 657.881 44.35C658.881 44.05 659.731 43.725 660.431 43.375L662.756 52.9ZM26.75 143.75C23.75 143.75 21.125 143.125 18.875 141.875C16.625 140.575 14.85 138.775 13.55 136.475V143H3.125V88.25H15.125V110.075C16.425 107.775 18.15 106 20.3 104.75C22.5 103.5 25.075 102.875 28.025 102.875C30.525 102.875 32.8 103.425 34.85 104.525C36.95 105.575 38.75 107.05 40.25 108.95C41.8 110.8 43 112.975 43.85 115.475C44.7 117.925 45.125 120.6 45.125 123.5C45.125 126.35 44.65 129 43.7 131.45C42.8 133.9 41.525 136.05 39.875 137.9C38.225 139.75 36.275 141.2 34.025 142.25C31.825 143.25 29.4 143.75 26.75 143.75ZM23.375 133.625C24.725 133.625 25.975 133.375 27.125 132.875C28.325 132.325 29.35 131.6 30.2 130.7C31.05 129.8 31.7 128.75 32.15 127.55C32.6 126.3 32.825 124.95 32.825 123.5C32.825 121.65 32.45 119.925 31.7 118.325C30.95 116.725 29.9 115.45 28.55 114.5C27.25 113.55 25.725 113.075 23.975 113.075C22.725 113.075 21.525 113.375 20.375 113.975C19.225 114.575 18.2 115.4 17.3 116.45C16.4 117.45 15.675 118.6 15.125 119.9V128.15C15.525 129 16.025 129.775 16.625 130.475C17.225 131.125 17.875 131.675 18.575 132.125C19.325 132.575 20.1 132.95 20.9 133.25C21.75 133.5 22.575 133.625 23.375 133.625ZM69.9236 143.75C66.5736 143.75 63.5986 143.225 60.9986 142.175C58.3986 141.075 56.1736 139.6 54.3236 137.75C52.5236 135.9 51.1486 133.775 50.1986 131.375C49.2486 128.925 48.7736 126.375 48.7736 123.725C48.7736 119.925 49.5986 116.475 51.2486 113.375C52.9486 110.225 55.3736 107.7 58.5236 105.8C61.6736 103.85 65.4736 102.875 69.9236 102.875C74.3736 102.875 78.1486 103.825 81.2486 105.725C84.3986 107.625 86.7986 110.125 88.4486 113.225C90.0986 116.275 90.9236 119.6 90.9236 123.2C90.9236 123.9 90.8736 124.6 90.7736 125.3C90.7236 125.95 90.6736 126.525 90.6236 127.025H61.5236C61.6736 128.775 62.1486 130.25 62.9486 131.45C63.7986 132.65 64.8736 133.575 66.1736 134.225C67.4736 134.825 68.8486 135.125 70.2986 135.125C72.0986 135.125 73.7736 134.7 75.3236 133.85C76.9236 133 78.0236 131.85 78.6236 130.4L88.8236 133.25C87.8236 135.3 86.3986 137.125 84.5486 138.725C82.7486 140.275 80.5986 141.5 78.0986 142.4C75.6486 143.3 72.9236 143.75 69.9236 143.75ZM61.2236 119.675H78.3236C78.1236 118.025 77.6486 116.6 76.8986 115.4C76.1486 114.15 75.1486 113.2 73.8986 112.55C72.6486 111.85 71.2736 111.5 69.7736 111.5C68.2236 111.5 66.8236 111.85 65.5736 112.55C64.3736 113.2 63.3986 114.15 62.6486 115.4C61.8986 116.6 61.4236 118.025 61.2236 119.675ZM132.692 143.75C129.342 143.75 126.367 143.225 123.767 142.175C121.167 141.075 118.942 139.6 117.092 137.75C115.292 135.9 113.917 133.775 112.967 131.375C112.017 128.925 111.542 126.375 111.542 123.725C111.542 119.925 112.367 116.475 114.017 113.375C115.717 110.225 118.142 107.7 121.292 105.8C124.442 103.85 128.242 102.875 132.692 102.875C137.142 102.875 140.917 103.825 144.017 105.725C147.167 107.625 149.567 110.125 151.217 113.225C152.867 116.275 153.692 119.6 153.692 123.2C153.692 123.9 153.642 124.6 153.542 125.3C153.492 125.95 153.442 126.525 153.392 127.025H124.292C124.442 128.775 124.917 130.25 125.717 131.45C126.567 132.65 127.642 133.575 128.942 134.225C130.242 134.825 131.617 135.125 133.067 135.125C134.867 135.125 136.542 134.7 138.092 133.85C139.692 133 140.792 131.85 141.392 130.4L151.592 133.25C150.592 135.3 149.167 137.125 147.317 138.725C145.517 140.275 143.367 141.5 140.867 142.4C138.417 143.3 135.692 143.75 132.692 143.75ZM123.992 119.675H141.092C140.892 118.025 140.417 116.6 139.667 115.4C138.917 114.15 137.917 113.2 136.667 112.55C135.417 111.85 134.042 111.5 132.542 111.5C130.992 111.5 129.592 111.85 128.342 112.55C127.142 113.2 126.167 114.15 125.417 115.4C124.667 116.6 124.192 118.025 123.992 119.675ZM156.656 131.225C156.656 128.625 157.381 126.35 158.831 124.4C160.281 122.45 162.281 120.925 164.831 119.825C167.381 118.675 170.306 118.1 173.606 118.1C175.206 118.1 176.781 118.25 178.331 118.55C179.881 118.8 181.231 119.175 182.381 119.675V117.95C182.381 115.8 181.731 114.15 180.431 113C179.131 111.85 177.156 111.275 174.506 111.275C172.306 111.275 170.231 111.65 168.281 112.4C166.381 113.15 164.356 114.225 162.206 115.625L158.606 107.975C161.206 106.275 163.906 105 166.706 104.15C169.556 103.3 172.556 102.875 175.706 102.875C181.606 102.875 186.181 104.3 189.431 107.15C192.731 109.95 194.381 114.025 194.381 119.375V129.65C194.381 130.85 194.556 131.7 194.906 132.2C195.306 132.65 195.981 132.925 196.931 133.025V143C195.931 143.2 194.981 143.35 194.081 143.45C193.231 143.55 192.481 143.6 191.831 143.6C189.581 143.6 187.856 143.15 186.656 142.25C185.506 141.35 184.781 140.125 184.481 138.575L184.256 136.85C182.506 139.1 180.406 140.825 177.956 142.025C175.556 143.175 173.031 143.75 170.381 143.75C167.781 143.75 165.431 143.2 163.331 142.1C161.281 141 159.656 139.5 158.456 137.6C157.256 135.7 156.656 133.575 156.656 131.225ZM180.506 132.725C181.056 132.275 181.506 131.775 181.856 131.225C182.206 130.675 182.381 130.15 182.381 129.65V126.125C181.381 125.725 180.256 125.425 179.006 125.225C177.806 124.975 176.681 124.85 175.631 124.85C173.431 124.85 171.606 125.35 170.156 126.35C168.706 127.3 167.981 128.575 167.981 130.175C167.981 131.075 168.231 131.9 168.731 132.65C169.231 133.4 169.906 134 170.756 134.45C171.656 134.9 172.706 135.125 173.906 135.125C175.106 135.125 176.306 134.9 177.506 134.45C178.706 134 179.706 133.425 180.506 132.725ZM218.151 143.75C214.801 143.75 211.526 143.2 208.326 142.1C205.126 141 202.426 139.375 200.226 137.225L204.351 129.65C206.751 131.4 209.076 132.725 211.326 133.625C213.626 134.525 215.776 134.975 217.776 134.975C219.326 134.975 220.526 134.725 221.376 134.225C222.226 133.725 222.651 132.95 222.651 131.9C222.651 131.15 222.401 130.575 221.901 130.175C221.401 129.725 220.626 129.325 219.576 128.975C218.576 128.625 217.326 128.25 215.826 127.85C212.826 126.85 210.326 125.875 208.326 124.925C206.326 123.975 204.826 122.825 203.826 121.475C202.826 120.075 202.326 118.275 202.326 116.075C202.326 113.425 202.976 111.125 204.276 109.175C205.626 107.175 207.526 105.625 209.976 104.525C212.426 103.425 215.351 102.875 218.751 102.875C221.451 102.875 224.076 103.3 226.626 104.15C229.226 105 231.651 106.425 233.901 108.425L229.251 115.925C227.001 114.375 225.001 113.25 223.251 112.55C221.501 111.85 219.801 111.5 218.151 111.5C217.301 111.5 216.526 111.6 215.826 111.8C215.126 112 214.551 112.35 214.101 112.85C213.701 113.3 213.501 113.9 213.501 114.65C213.501 115.4 213.701 116 214.101 116.45C214.551 116.9 215.226 117.3 216.126 117.65C217.076 117.95 218.251 118.325 219.651 118.775C222.901 119.725 225.601 120.7 227.751 121.7C229.901 122.65 231.501 123.85 232.551 125.3C233.651 126.7 234.201 128.575 234.201 130.925C234.201 134.925 232.751 138.075 229.851 140.375C227.001 142.625 223.101 143.75 218.151 143.75ZM240.356 143V103.625H252.356V143H240.356ZM240.356 99.125V88.25H252.356V99.125H240.356ZM279.396 143.75C276.046 143.75 273.071 143.225 270.471 142.175C267.871 141.075 265.646 139.6 263.796 137.75C261.996 135.9 260.621 133.775 259.671 131.375C258.721 128.925 258.246 126.375 258.246 123.725C258.246 119.925 259.071 116.475 260.721 113.375C262.421 110.225 264.846 107.7 267.996 105.8C271.146 103.85 274.946 102.875 279.396 102.875C283.846 102.875 287.621 103.825 290.721 105.725C293.871 107.625 296.271 110.125 297.921 113.225C299.571 116.275 300.396 119.6 300.396 123.2C300.396 123.9 300.346 124.6 300.246 125.3C300.196 125.95 300.146 126.525 300.096 127.025H270.996C271.146 128.775 271.621 130.25 272.421 131.45C273.271 132.65 274.346 133.575 275.646 134.225C276.946 134.825 278.321 135.125 279.771 135.125C281.571 135.125 283.246 134.7 284.796 133.85C286.396 133 287.496 131.85 288.096 130.4L298.296 133.25C297.296 135.3 295.871 137.125 294.021 138.725C292.221 140.275 290.071 141.5 287.571 142.4C285.121 143.3 282.396 143.75 279.396 143.75ZM270.696 119.675H287.796C287.596 118.025 287.121 116.6 286.371 115.4C285.621 114.15 284.621 113.2 283.371 112.55C282.121 111.85 280.746 111.5 279.246 111.5C277.696 111.5 276.296 111.85 275.046 112.55C273.846 113.2 272.871 114.15 272.121 115.4C271.371 116.6 270.896 118.025 270.696 119.675ZM330.81 113.9C327.91 113.9 325.285 114.375 322.935 115.325C320.585 116.225 318.885 117.575 317.835 119.375V143H305.835V103.625H316.86V111.575C318.21 108.925 319.96 106.85 322.11 105.35C324.26 103.85 326.51 103.075 328.86 103.025C329.41 103.025 329.81 103.025 330.06 103.025C330.36 103.025 330.61 103.05 330.81 103.1V113.9Z" fill="url(#paint0_linear_0_1)"/>
<path d="M5.50426 242L0.53267 223.818H2.76989L6.5696 238.626H6.74716L10.6179 223.818H13.1037L16.9744 238.626H17.152L20.9517 223.818H23.1889L18.2173 242H15.9446L11.9318 227.511H11.7898L7.77699 242H5.50426ZM30.0959 242.284C28.782 242.284 27.6486 241.994 26.6957 241.414C25.7487 240.828 25.0178 240.011 24.5028 238.964C23.9938 237.91 23.7393 236.685 23.7393 235.288C23.7393 233.892 23.9938 232.661 24.5028 231.595C25.0178 230.524 25.7339 229.689 26.6513 229.092C27.5746 228.488 28.6518 228.186 29.8828 228.186C30.593 228.186 31.2944 228.304 31.9869 228.541C32.6793 228.778 33.3097 229.163 33.8778 229.695C34.446 230.222 34.8988 230.92 35.2362 231.79C35.5735 232.661 35.7422 233.732 35.7422 235.004V235.892H25.2308V234.081H33.6115C33.6115 233.312 33.4576 232.625 33.1499 232.021C32.848 231.418 32.416 230.941 31.8537 230.592C31.2973 230.243 30.6404 230.068 29.8828 230.068C29.0483 230.068 28.3262 230.275 27.7166 230.69C27.1129 231.098 26.6483 231.631 26.3228 232.288C25.9973 232.945 25.8345 233.649 25.8345 234.401V235.608C25.8345 236.638 26.0121 237.511 26.3672 238.227C26.7282 238.937 27.2283 239.479 27.8675 239.852C28.5067 240.219 29.2495 240.402 30.0959 240.402C30.6463 240.402 31.1435 240.325 31.5874 240.171C32.0372 240.011 32.4248 239.775 32.7504 239.461C33.0759 239.141 33.3274 238.745 33.505 238.271L35.5291 238.839C35.3161 239.526 34.958 240.13 34.4549 240.651C33.9518 241.165 33.3304 241.568 32.5906 241.858C31.8507 242.142 31.0192 242.284 30.0959 242.284ZM47.9137 237.028L47.8782 234.436H48.3043L54.2702 228.364H56.8626L50.506 234.791H50.3285L47.9137 237.028ZM45.9606 242V223.818H48.0558V242H45.9606ZM54.6254 242L49.2987 235.253L50.7901 233.797L57.2887 242H54.6254ZM61.6544 233.797V242H59.5592V228.364H61.5834V230.494H61.7609C62.0805 229.802 62.5658 229.246 63.2169 228.825C63.8679 228.399 64.7084 228.186 65.7382 228.186C66.6615 228.186 67.4694 228.375 68.1618 228.754C68.8543 229.127 69.3929 229.695 69.7776 230.459C70.1623 231.216 70.3547 232.175 70.3547 233.335V242H68.2595V233.477C68.2595 232.406 67.9813 231.571 67.425 230.974C66.8686 230.37 66.1051 230.068 65.1345 230.068C64.4657 230.068 63.8679 230.213 63.3412 230.503C62.8203 230.793 62.409 231.216 62.1072 231.773C61.8053 232.329 61.6544 233.004 61.6544 233.797ZM79.723 242.284C78.492 242.284 77.4118 241.991 76.4826 241.405C75.5593 240.819 74.8372 240 74.3164 238.946C73.8015 237.893 73.544 236.661 73.544 235.253C73.544 233.832 73.8015 232.592 74.3164 231.533C74.8372 230.474 75.5593 229.651 76.4826 229.065C77.4118 228.479 78.492 228.186 79.723 228.186C80.9541 228.186 82.0313 228.479 82.9545 229.065C83.8838 229.651 84.6058 230.474 85.1207 231.533C85.6416 232.592 85.902 233.832 85.902 235.253C85.902 236.661 85.6416 237.893 85.1207 238.946C84.6058 240 83.8838 240.819 82.9545 241.405C82.0313 241.991 80.9541 242.284 79.723 242.284ZM79.723 240.402C80.6581 240.402 81.4276 240.162 82.0312 239.683C82.6349 239.203 83.0818 238.573 83.3718 237.792C83.6618 237.011 83.8068 236.164 83.8068 235.253C83.8068 234.341 83.6618 233.492 83.3718 232.705C83.0818 231.918 82.6349 231.281 82.0312 230.796C81.4276 230.311 80.6581 230.068 79.723 230.068C78.7879 230.068 78.0185 230.311 77.4148 230.796C76.8111 231.281 76.3642 231.918 76.0742 232.705C75.7842 233.492 75.6392 234.341 75.6392 235.253C75.6392 236.164 75.7842 237.011 76.0742 237.792C76.3642 238.573 76.8111 239.203 77.4148 239.683C78.0185 240.162 78.7879 240.402 79.723 240.402ZM91.7259 242L87.571 228.364H89.7727L92.7202 238.804H92.8622L95.7741 228.364H98.0114L100.888 238.768H101.03L103.977 228.364H106.179L102.024 242H99.9645L96.9815 231.524H96.7685L93.7855 242H91.7259ZM121.911 228.364V230.139H114.844V228.364H121.911ZM116.903 225.097H118.999V238.094C118.999 238.686 119.084 239.129 119.256 239.425C119.434 239.715 119.658 239.911 119.931 240.011C120.209 240.106 120.502 240.153 120.81 240.153C121.04 240.153 121.23 240.142 121.378 240.118C121.526 240.088 121.644 240.065 121.733 240.047L122.159 241.929C122.017 241.982 121.819 242.036 121.564 242.089C121.31 242.148 120.987 242.178 120.597 242.178C120.005 242.178 119.425 242.05 118.857 241.796C118.294 241.541 117.827 241.154 117.454 240.633C117.087 240.112 116.903 239.455 116.903 238.662V225.097ZM127.45 233.797V242H125.355V223.818H127.45V230.494H127.628C127.947 229.79 128.427 229.231 129.066 228.816C129.711 228.396 130.569 228.186 131.641 228.186C132.57 228.186 133.384 228.373 134.082 228.745C134.78 229.112 135.322 229.678 135.707 230.441C136.097 231.199 136.293 232.163 136.293 233.335V242H134.197V233.477C134.197 232.394 133.916 231.557 133.354 230.965C132.798 230.367 132.025 230.068 131.037 230.068C130.35 230.068 129.735 230.213 129.19 230.503C128.652 230.793 128.226 231.216 127.912 231.773C127.604 232.329 127.45 233.004 127.45 233.797ZM144.138 242.32C143.274 242.32 142.49 242.157 141.786 241.831C141.081 241.5 140.522 241.023 140.108 240.402C139.694 239.775 139.486 239.017 139.486 238.129C139.486 237.348 139.64 236.715 139.948 236.229C140.256 235.738 140.667 235.353 141.182 235.075C141.697 234.797 142.265 234.59 142.887 234.454C143.514 234.312 144.144 234.199 144.778 234.116C145.606 234.01 146.278 233.93 146.793 233.877C147.314 233.818 147.693 233.72 147.929 233.584C148.172 233.448 148.293 233.211 148.293 232.874V232.803C148.293 231.927 148.054 231.246 147.574 230.761C147.101 230.275 146.382 230.033 145.417 230.033C144.417 230.033 143.632 230.252 143.064 230.69C142.496 231.128 142.097 231.595 141.866 232.092L139.877 231.382C140.232 230.554 140.706 229.908 141.297 229.447C141.895 228.979 142.546 228.654 143.251 228.47C143.961 228.281 144.659 228.186 145.346 228.186C145.784 228.186 146.287 228.239 146.855 228.346C147.429 228.446 147.983 228.657 148.515 228.976C149.054 229.296 149.501 229.778 149.856 230.423C150.211 231.068 150.388 231.933 150.388 233.016V242H148.293V240.153H148.187C148.045 240.449 147.808 240.766 147.476 241.103C147.145 241.441 146.704 241.728 146.154 241.964C145.603 242.201 144.931 242.32 144.138 242.32ZM144.458 240.438C145.287 240.438 145.985 240.275 146.553 239.949C147.127 239.624 147.559 239.203 147.849 238.689C148.145 238.174 148.293 237.632 148.293 237.064V235.146C148.204 235.253 148.009 235.35 147.707 235.439C147.411 235.522 147.068 235.596 146.677 235.661C146.293 235.72 145.917 235.774 145.55 235.821C145.189 235.862 144.896 235.898 144.671 235.928C144.127 235.999 143.618 236.114 143.144 236.274C142.677 236.428 142.298 236.661 142.008 236.975C141.724 237.283 141.582 237.703 141.582 238.236C141.582 238.964 141.851 239.514 142.389 239.887C142.934 240.254 143.623 240.438 144.458 240.438ZM160.143 228.364V230.139H153.076V228.364H160.143ZM155.136 225.097H157.231V238.094C157.231 238.686 157.317 239.129 157.488 239.425C157.666 239.715 157.891 239.911 158.163 240.011C158.441 240.106 158.734 240.153 159.042 240.153C159.273 240.153 159.462 240.142 159.61 240.118C159.758 240.088 159.877 240.065 159.965 240.047L160.392 241.929C160.249 241.982 160.051 242.036 159.797 242.089C159.542 242.148 159.22 242.178 158.829 242.178C158.237 242.178 157.657 242.05 157.089 241.796C156.527 241.541 156.059 241.154 155.686 240.633C155.319 240.112 155.136 239.455 155.136 238.662V225.097ZM172.421 233.797V242H170.326V228.364H172.35V230.494H172.528C172.847 229.802 173.332 229.246 173.983 228.825C174.635 228.399 175.475 228.186 176.505 228.186C177.428 228.186 178.236 228.375 178.928 228.754C179.621 229.127 180.16 229.695 180.544 230.459C180.929 231.216 181.121 232.175 181.121 233.335V242H179.026V233.477C179.026 232.406 178.748 231.571 178.192 230.974C177.635 230.37 176.872 230.068 175.901 230.068C175.232 230.068 174.635 230.213 174.108 230.503C173.587 230.793 173.176 231.216 172.874 231.773C172.572 232.329 172.421 233.004 172.421 233.797ZM190.49 242.284C189.259 242.284 188.178 241.991 187.249 241.405C186.326 240.819 185.604 240 185.083 238.946C184.568 237.893 184.311 236.661 184.311 235.253C184.311 233.832 184.568 232.592 185.083 231.533C185.604 230.474 186.326 229.651 187.249 229.065C188.178 228.479 189.259 228.186 190.49 228.186C191.721 228.186 192.798 228.479 193.721 229.065C194.65 229.651 195.372 230.474 195.887 231.533C196.408 232.592 196.669 233.832 196.669 235.253C196.669 236.661 196.408 237.893 195.887 238.946C195.372 240 194.65 240.819 193.721 241.405C192.798 241.991 191.721 242.284 190.49 242.284ZM190.49 240.402C191.425 240.402 192.194 240.162 192.798 239.683C193.402 239.203 193.848 238.573 194.138 237.792C194.428 237.011 194.573 236.164 194.573 235.253C194.573 234.341 194.428 233.492 194.138 232.705C193.848 231.918 193.402 231.281 192.798 230.796C192.194 230.311 191.425 230.068 190.49 230.068C189.554 230.068 188.785 230.311 188.181 230.796C187.578 231.281 187.131 231.918 186.841 232.705C186.551 233.492 186.406 234.341 186.406 235.253C186.406 236.164 186.551 237.011 186.841 237.792C187.131 238.573 187.578 239.203 188.181 239.683C188.785 240.162 189.554 240.402 190.49 240.402ZM202.492 242L198.338 228.364H200.539L203.487 238.804H203.629L206.541 228.364H208.778L211.654 238.768H211.796L214.744 228.364H216.946L212.791 242H210.731L207.748 231.524H207.535L204.552 242H202.492ZM223.728 242.32C222.864 242.32 222.08 242.157 221.376 241.831C220.671 241.5 220.112 241.023 219.698 240.402C219.283 239.775 219.076 239.017 219.076 238.129C219.076 237.348 219.23 236.715 219.538 236.229C219.846 235.738 220.257 235.353 220.772 235.075C221.287 234.797 221.855 234.59 222.476 234.454C223.104 234.312 223.734 234.199 224.367 234.116C225.196 234.01 225.868 233.93 226.383 233.877C226.904 233.818 227.282 233.72 227.519 233.584C227.762 233.448 227.883 233.211 227.883 232.874V232.803C227.883 231.927 227.643 231.246 227.164 230.761C226.69 230.275 225.971 230.033 225.007 230.033C224.006 230.033 223.222 230.252 222.654 230.69C222.086 231.128 221.686 231.595 221.456 232.092L219.467 231.382C219.822 230.554 220.295 229.908 220.887 229.447C221.485 228.979 222.136 228.654 222.84 228.47C223.551 228.281 224.249 228.186 224.936 228.186C225.374 228.186 225.877 228.239 226.445 228.346C227.019 228.446 227.572 228.657 228.105 228.976C228.644 229.296 229.09 229.778 229.446 230.423C229.801 231.068 229.978 231.933 229.978 233.016V242H227.883V240.153H227.777C227.634 240.449 227.398 240.766 227.066 241.103C226.735 241.441 226.294 241.728 225.744 241.964C225.193 242.201 224.521 242.32 223.728 242.32ZM224.048 240.438C224.876 240.438 225.575 240.275 226.143 239.949C226.717 239.624 227.149 239.203 227.439 238.689C227.735 238.174 227.883 237.632 227.883 237.064V235.146C227.794 235.253 227.599 235.35 227.297 235.439C227.001 235.522 226.658 235.596 226.267 235.661C225.883 235.72 225.507 235.774 225.14 235.821C224.779 235.862 224.486 235.898 224.261 235.928C223.716 235.999 223.207 236.114 222.734 236.274C222.266 236.428 221.888 236.661 221.598 236.975C221.313 237.283 221.171 237.703 221.171 238.236C221.171 238.964 221.441 239.514 221.979 239.887C222.524 240.254 223.213 240.438 224.048 240.438ZM238.952 242.284C237.815 242.284 236.812 241.997 235.942 241.423C235.072 240.843 234.391 240.026 233.9 238.973C233.409 237.913 233.163 236.661 233.163 235.217C233.163 233.785 233.409 232.542 233.9 231.489C234.391 230.435 235.075 229.621 235.951 229.047C236.827 228.473 237.839 228.186 238.987 228.186C239.875 228.186 240.576 228.334 241.091 228.63C241.612 228.92 242.008 229.251 242.281 229.624C242.559 229.991 242.775 230.293 242.929 230.53H243.106V223.818H245.202V242H243.177V239.905H242.929C242.775 240.153 242.556 240.467 242.272 240.846C241.988 241.219 241.582 241.553 241.056 241.849C240.529 242.139 239.827 242.284 238.952 242.284ZM239.236 240.402C240.076 240.402 240.786 240.183 241.366 239.745C241.946 239.301 242.387 238.689 242.689 237.907C242.991 237.12 243.142 236.212 243.142 235.182C243.142 234.164 242.994 233.273 242.698 232.51C242.402 231.74 241.964 231.142 241.384 230.716C240.804 230.284 240.088 230.068 239.236 230.068C238.348 230.068 237.608 230.296 237.016 230.752C236.43 231.202 235.989 231.814 235.693 232.589C235.403 233.359 235.258 234.223 235.258 235.182C235.258 236.152 235.406 237.034 235.702 237.827C236.004 238.615 236.448 239.242 237.034 239.71C237.626 240.171 238.36 240.402 239.236 240.402ZM253.343 242.32C252.478 242.32 251.694 242.157 250.99 241.831C250.286 241.5 249.726 241.023 249.312 240.402C248.898 239.775 248.691 239.017 248.691 238.129C248.691 237.348 248.844 236.715 249.152 236.229C249.46 235.738 249.871 235.353 250.386 235.075C250.901 234.797 251.469 234.59 252.091 234.454C252.718 234.312 253.348 234.199 253.982 234.116C254.81 234.01 255.482 233.93 255.997 233.877C256.518 233.818 256.897 233.72 257.133 233.584C257.376 233.448 257.497 233.211 257.497 232.874V232.803C257.497 231.927 257.258 231.246 256.778 230.761C256.305 230.275 255.586 230.033 254.621 230.033C253.621 230.033 252.836 230.252 252.268 230.69C251.7 231.128 251.301 231.595 251.07 232.092L249.081 231.382C249.436 230.554 249.91 229.908 250.502 229.447C251.099 228.979 251.75 228.654 252.455 228.47C253.165 228.281 253.863 228.186 254.55 228.186C254.988 228.186 255.491 228.239 256.059 228.346C256.633 228.446 257.187 228.657 257.719 228.976C258.258 229.296 258.705 229.778 259.06 230.423C259.415 231.068 259.593 231.933 259.593 233.016V242H257.497V240.153H257.391C257.249 240.449 257.012 240.766 256.681 241.103C256.349 241.441 255.908 241.728 255.358 241.964C254.807 242.201 254.136 242.32 253.343 242.32ZM253.662 240.438C254.491 240.438 255.189 240.275 255.757 239.949C256.331 239.624 256.763 239.203 257.053 238.689C257.349 238.174 257.497 237.632 257.497 237.064V235.146C257.409 235.253 257.213 235.35 256.911 235.439C256.615 235.522 256.272 235.596 255.882 235.661C255.497 235.72 255.121 235.774 254.754 235.821C254.393 235.862 254.1 235.898 253.875 235.928C253.331 235.999 252.822 236.114 252.348 236.274C251.881 236.428 251.502 236.661 251.212 236.975C250.928 237.283 250.786 237.703 250.786 238.236C250.786 238.964 251.055 239.514 251.594 239.887C252.138 240.254 252.828 240.438 253.662 240.438ZM264.278 247.114C263.923 247.114 263.606 247.084 263.328 247.025C263.05 246.972 262.857 246.918 262.751 246.865L263.283 245.018C263.792 245.149 264.242 245.196 264.633 245.161C265.024 245.125 265.37 244.95 265.672 244.637C265.979 244.329 266.261 243.829 266.515 243.136L266.906 242.071L261.863 228.364H264.136L267.9 239.23H268.042L271.806 228.364H274.079L268.291 243.989C268.03 244.693 267.708 245.276 267.323 245.738C266.938 246.205 266.491 246.551 265.982 246.776C265.479 247.001 264.911 247.114 264.278 247.114ZM286.503 231.418L284.621 231.95C284.503 231.637 284.328 231.332 284.098 231.036C283.873 230.734 283.565 230.485 283.174 230.29C282.784 230.095 282.284 229.997 281.674 229.997C280.839 229.997 280.144 230.19 279.588 230.574C279.037 230.953 278.762 231.435 278.762 232.021C278.762 232.542 278.951 232.953 279.33 233.255C279.709 233.557 280.301 233.809 281.106 234.01L283.13 234.507C284.349 234.803 285.258 235.256 285.855 235.865C286.453 236.469 286.752 237.247 286.752 238.2C286.752 238.982 286.527 239.68 286.077 240.295C285.633 240.911 285.012 241.396 284.213 241.751C283.414 242.107 282.485 242.284 281.425 242.284C280.034 242.284 278.883 241.982 277.972 241.379C277.06 240.775 276.483 239.893 276.241 238.733L278.229 238.236C278.419 238.97 278.777 239.52 279.304 239.887C279.836 240.254 280.532 240.438 281.39 240.438C282.366 240.438 283.142 240.23 283.716 239.816C284.296 239.396 284.586 238.893 284.586 238.307C284.586 237.833 284.42 237.437 284.089 237.117C283.757 236.792 283.248 236.549 282.562 236.389L280.289 235.857C279.04 235.561 278.123 235.102 277.537 234.48C276.957 233.853 276.667 233.069 276.667 232.128C276.667 231.358 276.883 230.678 277.315 230.086C277.753 229.494 278.348 229.029 279.099 228.692C279.857 228.355 280.715 228.186 281.674 228.186C283.023 228.186 284.083 228.482 284.852 229.074C285.628 229.666 286.178 230.447 286.503 231.418ZM302.868 228.364V230.139H295.801V228.364H302.868ZM297.86 225.097H299.956V238.094C299.956 238.686 300.041 239.129 300.213 239.425C300.391 239.715 300.616 239.911 300.888 240.011C301.166 240.106 301.459 240.153 301.767 240.153C301.998 240.153 302.187 240.142 302.335 240.118C302.483 240.088 302.601 240.065 302.69 240.047L303.116 241.929C302.974 241.982 302.776 242.036 302.521 242.089C302.267 242.148 301.944 242.178 301.554 242.178C300.962 242.178 300.382 242.05 299.814 241.796C299.251 241.541 298.784 241.154 298.411 240.633C298.044 240.112 297.86 239.455 297.86 238.662V225.097ZM306.019 242V228.364H308.114V242H306.019ZM307.085 226.091C306.676 226.091 306.324 225.952 306.028 225.674C305.738 225.395 305.593 225.061 305.593 224.67C305.593 224.28 305.738 223.945 306.028 223.667C306.324 223.389 306.676 223.25 307.085 223.25C307.493 223.25 307.842 223.389 308.132 223.667C308.428 223.945 308.576 224.28 308.576 224.67C308.576 225.061 308.428 225.395 308.132 225.674C307.842 225.952 307.493 226.091 307.085 226.091ZM311.952 242V228.364H313.976V230.494H314.153C314.438 229.766 314.896 229.201 315.53 228.799C316.163 228.39 316.923 228.186 317.811 228.186C318.711 228.186 319.459 228.39 320.057 228.799C320.661 229.201 321.131 229.766 321.469 230.494H321.611C321.96 229.79 322.484 229.231 323.182 228.816C323.881 228.396 324.718 228.186 325.695 228.186C326.914 228.186 327.911 228.568 328.687 229.331C329.462 230.089 329.85 231.27 329.85 232.874V242H327.754V232.874C327.754 231.867 327.479 231.148 326.929 230.716C326.378 230.284 325.73 230.068 324.984 230.068C324.026 230.068 323.283 230.358 322.756 230.938C322.229 231.512 321.966 232.24 321.966 233.122V242H319.835V232.661C319.835 231.885 319.584 231.261 319.081 230.787C318.578 230.308 317.93 230.068 317.136 230.068C316.592 230.068 316.083 230.213 315.609 230.503C315.142 230.793 314.763 231.196 314.473 231.711C314.189 232.22 314.047 232.808 314.047 233.477V242H311.952ZM339.398 242.284C338.084 242.284 336.95 241.994 335.997 241.414C335.05 240.828 334.32 240.011 333.805 238.964C333.296 237.91 333.041 236.685 333.041 235.288C333.041 233.892 333.296 232.661 333.805 231.595C334.32 230.524 335.036 229.689 335.953 229.092C336.876 228.488 337.954 228.186 339.185 228.186C339.895 228.186 340.596 228.304 341.289 228.541C341.981 228.778 342.611 229.163 343.18 229.695C343.748 230.222 344.201 230.92 344.538 231.79C344.875 232.661 345.044 233.732 345.044 235.004V235.892H334.533V234.081H342.913C342.913 233.312 342.759 232.625 342.452 232.021C342.15 231.418 341.718 230.941 341.155 230.592C340.599 230.243 339.942 230.068 339.185 230.068C338.35 230.068 337.628 230.275 337.018 230.69C336.415 231.098 335.95 231.631 335.625 232.288C335.299 232.945 335.136 233.649 335.136 234.401V235.608C335.136 236.638 335.314 237.511 335.669 238.227C336.03 238.937 336.53 239.479 337.169 239.852C337.809 240.219 338.551 240.402 339.398 240.402C339.948 240.402 340.445 240.325 340.889 240.171C341.339 240.011 341.727 239.775 342.052 239.461C342.378 239.141 342.629 238.745 342.807 238.271L344.831 238.839C344.618 239.526 344.26 240.13 343.757 240.651C343.254 241.165 342.632 241.568 341.892 241.858C341.152 242.142 340.321 242.284 339.398 242.284ZM355.262 242V228.364H357.286V230.494H357.464C357.748 229.766 358.207 229.201 358.84 228.799C359.473 228.39 360.234 228.186 361.122 228.186C362.021 228.186 362.77 228.39 363.368 228.799C363.972 229.201 364.442 229.766 364.779 230.494H364.921C365.271 229.79 365.794 229.231 366.493 228.816C367.191 228.396 368.029 228.186 369.005 228.186C370.224 228.186 371.222 228.568 371.997 229.331C372.772 230.089 373.16 231.27 373.16 232.874V242H371.065V232.874C371.065 231.867 370.79 231.148 370.239 230.716C369.689 230.284 369.041 230.068 368.295 230.068C367.336 230.068 366.593 230.358 366.067 230.938C365.54 231.512 365.277 232.24 365.277 233.122V242H363.146V232.661C363.146 231.885 362.894 231.261 362.391 230.787C361.888 230.308 361.24 230.068 360.447 230.068C359.902 230.068 359.393 230.213 358.92 230.503C358.452 230.793 358.074 231.196 357.784 231.711C357.5 232.22 357.358 232.808 357.358 233.477V242H355.262ZM382.708 242.284C381.394 242.284 380.261 241.994 379.308 241.414C378.361 240.828 377.63 240.011 377.115 238.964C376.606 237.91 376.352 236.685 376.352 235.288C376.352 233.892 376.606 232.661 377.115 231.595C377.63 230.524 378.346 229.689 379.264 229.092C380.187 228.488 381.264 228.186 382.495 228.186C383.205 228.186 383.907 228.304 384.599 228.541C385.292 228.778 385.922 229.163 386.49 229.695C387.058 230.222 387.511 230.92 387.848 231.79C388.186 232.661 388.354 233.732 388.354 235.004V235.892H377.843V234.081H386.224C386.224 233.312 386.07 232.625 385.762 232.021C385.46 231.418 385.028 230.941 384.466 230.592C383.91 230.243 383.253 230.068 382.495 230.068C381.661 230.068 380.939 230.275 380.329 230.69C379.725 231.098 379.261 231.631 378.935 232.288C378.61 232.945 378.447 233.649 378.447 234.401V235.608C378.447 236.638 378.624 237.511 378.979 238.227C379.341 238.937 379.841 239.479 380.48 239.852C381.119 240.219 381.862 240.402 382.708 240.402C383.259 240.402 383.756 240.325 384.2 240.171C384.649 240.011 385.037 239.775 385.363 239.461C385.688 239.141 385.94 238.745 386.117 238.271L388.141 238.839C387.928 239.526 387.57 240.13 387.067 240.651C386.564 241.165 385.943 241.568 385.203 241.858C384.463 242.142 383.631 242.284 382.708 242.284ZM395.554 242.32C394.69 242.32 393.906 242.157 393.202 241.831C392.497 241.5 391.938 241.023 391.524 240.402C391.11 239.775 390.902 239.017 390.902 238.129C390.902 237.348 391.056 236.715 391.364 236.229C391.672 235.738 392.083 235.353 392.598 235.075C393.113 234.797 393.681 234.59 394.303 234.454C394.93 234.312 395.56 234.199 396.194 234.116C397.022 234.01 397.694 233.93 398.209 233.877C398.73 233.818 399.109 233.72 399.345 233.584C399.588 233.448 399.709 233.211 399.709 232.874V232.803C399.709 231.927 399.47 231.246 398.99 230.761C398.517 230.275 397.798 230.033 396.833 230.033C395.833 230.033 395.048 230.252 394.48 230.69C393.912 231.128 393.513 231.595 393.282 232.092L391.293 231.382C391.648 230.554 392.122 229.908 392.714 229.447C393.311 228.979 393.962 228.654 394.667 228.47C395.377 228.281 396.075 228.186 396.762 228.186C397.2 228.186 397.703 228.239 398.271 228.346C398.845 228.446 399.399 228.657 399.931 228.976C400.47 229.296 400.917 229.778 401.272 230.423C401.627 231.068 401.804 231.933 401.804 233.016V242H399.709V240.153H399.603C399.461 240.449 399.224 240.766 398.892 241.103C398.561 241.441 398.12 241.728 397.57 241.964C397.019 242.201 396.348 242.32 395.554 242.32ZM395.874 240.438C396.703 240.438 397.401 240.275 397.969 239.949C398.543 239.624 398.975 239.203 399.265 238.689C399.561 238.174 399.709 237.632 399.709 237.064V235.146C399.62 235.253 399.425 235.35 399.123 235.439C398.827 235.522 398.484 235.596 398.093 235.661C397.709 235.72 397.333 235.774 396.966 235.821C396.605 235.862 396.312 235.898 396.087 235.928C395.543 235.999 395.034 236.114 394.56 236.274C394.093 236.428 393.714 236.661 393.424 236.975C393.14 237.283 392.998 237.703 392.998 238.236C392.998 238.964 393.267 239.514 393.805 239.887C394.35 240.254 395.04 240.438 395.874 240.438ZM407.724 233.797V242H405.629V228.364H407.653V230.494H407.83C408.15 229.802 408.635 229.246 409.286 228.825C409.937 228.399 410.778 228.186 411.808 228.186C412.731 228.186 413.539 228.375 414.231 228.754C414.924 229.127 415.462 229.695 415.847 230.459C416.232 231.216 416.424 232.175 416.424 233.335V242H414.329V233.477C414.329 232.406 414.051 231.571 413.494 230.974C412.938 230.37 412.174 230.068 411.204 230.068C410.535 230.068 409.937 230.213 409.411 230.503C408.89 230.793 408.478 231.216 408.176 231.773C407.875 232.329 407.724 233.004 407.724 233.797ZM429.912 231.418L428.03 231.95C427.911 231.637 427.737 231.332 427.506 231.036C427.281 230.734 426.973 230.485 426.582 230.29C426.192 230.095 425.692 229.997 425.082 229.997C424.248 229.997 423.552 230.19 422.996 230.574C422.445 230.953 422.17 231.435 422.17 232.021C422.17 232.542 422.36 232.953 422.738 233.255C423.117 233.557 423.709 233.809 424.514 234.01L426.538 234.507C427.757 234.803 428.666 235.256 429.264 235.865C429.861 236.469 430.16 237.247 430.16 238.2C430.16 238.982 429.935 239.68 429.486 240.295C429.042 240.911 428.42 241.396 427.621 241.751C426.822 242.107 425.893 242.284 424.834 242.284C423.443 242.284 422.292 241.982 421.38 241.379C420.469 240.775 419.892 239.893 419.649 238.733L421.638 238.236C421.827 238.97 422.185 239.52 422.712 239.887C423.244 240.254 423.94 240.438 424.798 240.438C425.775 240.438 426.55 240.23 427.124 239.816C427.704 239.396 427.994 238.893 427.994 238.307C427.994 237.833 427.828 237.437 427.497 237.117C427.165 236.792 426.656 236.549 425.97 236.389L423.697 235.857C422.448 235.561 421.531 235.102 420.945 234.48C420.365 233.853 420.075 233.069 420.075 232.128C420.075 231.358 420.291 230.678 420.723 230.086C421.161 229.494 421.756 229.029 422.508 228.692C423.265 228.355 424.123 228.186 425.082 228.186C426.432 228.186 427.491 228.482 428.26 229.074C429.036 229.666 429.586 230.447 429.912 231.418ZM440.345 242V228.364H442.369V230.494H442.547C442.831 229.766 443.29 229.201 443.923 228.799C444.556 228.39 445.317 228.186 446.205 228.186C447.104 228.186 447.853 228.39 448.451 228.799C449.055 229.201 449.525 229.766 449.862 230.494H450.004C450.354 229.79 450.877 229.231 451.576 228.816C452.274 228.396 453.112 228.186 454.088 228.186C455.307 228.186 456.305 228.568 457.08 229.331C457.855 230.089 458.243 231.27 458.243 232.874V242H456.148V232.874C456.148 231.867 455.873 231.148 455.322 230.716C454.772 230.284 454.124 230.068 453.378 230.068C452.419 230.068 451.676 230.358 451.15 230.938C450.623 231.512 450.36 232.24 450.36 233.122V242H448.229V232.661C448.229 231.885 447.977 231.261 447.474 230.787C446.971 230.308 446.323 230.068 445.53 230.068C444.985 230.068 444.477 230.213 444.003 230.503C443.535 230.793 443.157 231.196 442.867 231.711C442.583 232.22 442.441 232.808 442.441 233.477V242H440.345ZM467.614 242.284C466.383 242.284 465.302 241.991 464.373 241.405C463.45 240.819 462.728 240 462.207 238.946C461.692 237.893 461.435 236.661 461.435 235.253C461.435 233.832 461.692 232.592 462.207 231.533C462.728 230.474 463.45 229.651 464.373 229.065C465.302 228.479 466.383 228.186 467.614 228.186C468.845 228.186 469.922 228.479 470.845 229.065C471.774 229.651 472.496 230.474 473.011 231.533C473.532 232.592 473.793 233.832 473.793 235.253C473.793 236.661 473.532 237.893 473.011 238.946C472.496 240 471.774 240.819 470.845 241.405C469.922 241.991 468.845 242.284 467.614 242.284ZM467.614 240.402C468.549 240.402 469.318 240.162 469.922 239.683C470.526 239.203 470.972 238.573 471.262 237.792C471.552 237.011 471.697 236.164 471.697 235.253C471.697 234.341 471.552 233.492 471.262 232.705C470.972 231.918 470.526 231.281 469.922 230.796C469.318 230.311 468.549 230.068 467.614 230.068C466.679 230.068 465.909 230.311 465.305 230.796C464.702 231.281 464.255 231.918 463.965 232.705C463.675 233.492 463.53 234.341 463.53 235.253C463.53 236.164 463.675 237.011 463.965 237.792C464.255 238.573 464.702 239.203 465.305 239.683C465.909 240.162 466.679 240.402 467.614 240.402ZM479.086 233.797V242H476.991V228.364H479.015V230.494H479.193C479.512 229.802 479.997 229.246 480.649 228.825C481.3 228.399 482.14 228.186 483.17 228.186C484.093 228.186 484.901 228.375 485.593 228.754C486.286 229.127 486.825 229.695 487.209 230.459C487.594 231.216 487.786 232.175 487.786 233.335V242H485.691V233.477C485.691 232.406 485.413 231.571 484.857 230.974C484.3 230.37 483.537 230.068 482.566 230.068C481.897 230.068 481.3 230.213 480.773 230.503C480.252 230.793 479.841 231.216 479.539 231.773C479.237 232.329 479.086 233.004 479.086 233.797ZM497.332 242.284C496.018 242.284 494.885 241.994 493.932 241.414C492.985 240.828 492.254 240.011 491.739 238.964C491.23 237.91 490.976 236.685 490.976 235.288C490.976 233.892 491.23 232.661 491.739 231.595C492.254 230.524 492.97 229.689 493.888 229.092C494.811 228.488 495.888 228.186 497.119 228.186C497.829 228.186 498.531 228.304 499.223 228.541C499.916 228.778 500.546 229.163 501.114 229.695C501.682 230.222 502.135 230.92 502.472 231.79C502.81 232.661 502.979 233.732 502.979 235.004V235.892H492.467V234.081H500.848C500.848 233.312 500.694 232.625 500.386 232.021C500.084 231.418 499.652 230.941 499.09 230.592C498.534 230.243 497.877 230.068 497.119 230.068C496.285 230.068 495.563 230.275 494.953 230.69C494.349 231.098 493.885 231.631 493.559 232.288C493.234 232.945 493.071 233.649 493.071 234.401V235.608C493.071 236.638 493.248 237.511 493.604 238.227C493.965 238.937 494.465 239.479 495.104 239.852C495.743 240.219 496.486 240.402 497.332 240.402C497.883 240.402 498.38 240.325 498.824 240.171C499.273 240.011 499.661 239.775 499.987 239.461C500.312 239.141 500.564 238.745 500.741 238.271L502.765 238.839C502.552 239.526 502.194 240.13 501.691 240.651C501.188 241.165 500.567 241.568 499.827 241.858C499.087 242.142 498.256 242.284 497.332 242.284ZM507.1 247.114C506.745 247.114 506.428 247.084 506.15 247.025C505.872 246.972 505.68 246.918 505.573 246.865L506.106 245.018C506.615 245.149 507.065 245.196 507.455 245.161C507.846 245.125 508.192 244.95 508.494 244.637C508.802 244.329 509.083 243.829 509.337 243.136L509.728 242.071L504.685 228.364H506.958L510.722 239.23H510.864L514.628 228.364H516.901L511.113 243.989C510.852 244.693 510.53 245.276 510.145 245.738C509.76 246.205 509.314 246.551 508.805 246.776C508.302 247.001 507.733 247.114 507.1 247.114ZM521.937 239.514L521.795 240.473C521.694 241.148 521.541 241.87 521.333 242.639C521.132 243.409 520.922 244.134 520.703 244.814C520.484 245.495 520.304 246.036 520.162 246.439H518.564C518.641 246.06 518.741 245.56 518.865 244.939C518.99 244.317 519.114 243.622 519.238 242.852C519.368 242.089 519.475 241.308 519.558 240.509L519.664 239.514H521.937ZM542.509 231.418L540.627 231.95C540.509 231.637 540.334 231.332 540.103 231.036C539.879 230.734 539.571 230.485 539.18 230.29C538.79 230.095 538.289 229.997 537.68 229.997C536.845 229.997 536.15 230.19 535.593 230.574C535.043 230.953 534.768 231.435 534.768 232.021C534.768 232.542 534.957 232.953 535.336 233.255C535.715 233.557 536.307 233.809 537.112 234.01L539.136 234.507C540.355 234.803 541.263 235.256 541.861 235.865C542.459 236.469 542.758 237.247 542.758 238.2C542.758 238.982 542.533 239.68 542.083 240.295C541.639 240.911 541.018 241.396 540.219 241.751C539.42 242.107 538.491 242.284 537.431 242.284C536.04 242.284 534.889 241.982 533.978 241.379C533.066 240.775 532.489 239.893 532.247 238.733L534.235 238.236C534.425 238.97 534.783 239.52 535.309 239.887C535.842 240.254 536.537 240.438 537.396 240.438C538.372 240.438 539.148 240.23 539.722 239.816C540.302 239.396 540.592 238.893 540.592 238.307C540.592 237.833 540.426 237.437 540.095 237.117C539.763 236.792 539.254 236.549 538.568 236.389L536.295 235.857C535.046 235.561 534.129 235.102 533.543 234.48C532.963 233.853 532.673 233.069 532.673 232.128C532.673 231.358 532.889 230.678 533.321 230.086C533.759 229.494 534.354 229.029 535.105 228.692C535.863 228.355 536.721 228.186 537.68 228.186C539.029 228.186 540.089 228.482 540.858 229.074C541.633 229.666 542.184 230.447 542.509 231.418ZM551.452 242.284C550.22 242.284 549.14 241.991 548.211 241.405C547.288 240.819 546.566 240 546.045 238.946C545.53 237.893 545.273 236.661 545.273 235.253C545.273 233.832 545.53 232.592 546.045 231.533C546.566 230.474 547.288 229.651 548.211 229.065C549.14 228.479 550.22 228.186 551.452 228.186C552.683 228.186 553.76 228.479 554.683 229.065C555.612 229.651 556.334 230.474 556.849 231.533C557.37 232.592 557.631 233.832 557.631 235.253C557.631 236.661 557.37 237.893 556.849 238.946C556.334 240 555.612 240.819 554.683 241.405C553.76 241.991 552.683 242.284 551.452 242.284ZM551.452 240.402C552.387 240.402 553.156 240.162 553.76 239.683C554.363 239.203 554.81 238.573 555.1 237.792C555.39 237.011 555.535 236.164 555.535 235.253C555.535 234.341 555.39 233.492 555.1 232.705C554.81 231.918 554.363 231.281 553.76 230.796C553.156 230.311 552.387 230.068 551.452 230.068C550.516 230.068 549.747 230.311 549.143 230.796C548.54 231.281 548.093 231.918 547.803 232.705C547.513 233.492 547.368 234.341 547.368 235.253C547.368 236.164 547.513 237.011 547.803 237.792C548.093 238.573 548.54 239.203 549.143 239.683C549.747 240.162 550.516 240.402 551.452 240.402ZM570.949 242L566.795 228.364H568.996L571.944 238.804H572.086L574.998 228.364H577.235L580.111 238.768H580.253L583.201 228.364H585.403L581.248 242H579.188L576.205 231.524H575.992L573.009 242H570.949ZM593.426 242.284C592.112 242.284 590.979 241.994 590.026 241.414C589.079 240.828 588.348 240.011 587.833 238.964C587.324 237.91 587.069 236.685 587.069 235.288C587.069 233.892 587.324 232.661 587.833 231.595C588.348 230.524 589.064 229.689 589.981 229.092C590.905 228.488 591.982 228.186 593.213 228.186C593.923 228.186 594.624 228.304 595.317 228.541C596.009 228.778 596.64 229.163 597.208 229.695C597.776 230.222 598.229 230.92 598.566 231.79C598.904 232.661 599.072 233.732 599.072 235.004V235.892H588.561V234.081H596.942C596.942 233.312 596.788 232.625 596.48 232.021C596.178 231.418 595.746 230.941 595.184 230.592C594.627 230.243 593.97 230.068 593.213 230.068C592.378 230.068 591.656 230.275 591.047 230.69C590.443 231.098 589.978 231.631 589.653 232.288C589.327 232.945 589.165 233.649 589.165 234.401V235.608C589.165 236.638 589.342 237.511 589.697 238.227C590.058 238.937 590.558 239.479 591.198 239.852C591.837 240.219 592.58 240.402 593.426 240.402C593.976 240.402 594.474 240.325 594.917 240.171C595.367 240.011 595.755 239.775 596.08 239.461C596.406 239.141 596.657 238.745 596.835 238.271L598.859 238.839C598.646 239.526 598.288 240.13 597.785 240.651C597.282 241.165 596.66 241.568 595.921 241.858C595.181 242.142 594.349 242.284 593.426 242.284ZM5.9304 272.32C5.06629 272.32 4.28208 272.157 3.57777 271.831C2.87346 271.5 2.31416 271.023 1.89986 270.402C1.48556 269.775 1.27841 269.017 1.27841 268.129C1.27841 267.348 1.43229 266.715 1.74006 266.229C2.04782 265.738 2.45916 265.353 2.97408 265.075C3.48899 264.797 4.05717 264.59 4.67862 264.454C5.30599 264.312 5.93632 264.199 6.5696 264.116C7.3982 264.01 8.06996 263.93 8.58487 263.877C9.10571 263.818 9.48449 263.72 9.72124 263.584C9.9639 263.448 10.0852 263.211 10.0852 262.874V262.803C10.0852 261.927 9.84553 261.246 9.36612 260.761C8.89264 260.275 8.17353 260.033 7.20881 260.033C6.20857 260.033 5.42436 260.252 4.85618 260.69C4.288 261.128 3.88849 261.595 3.65767 262.092L1.66903 261.382C2.02415 260.554 2.49763 259.908 3.08949 259.447C3.68726 258.979 4.33831 258.654 5.04261 258.47C5.75284 258.281 6.45123 258.186 7.13778 258.186C7.57576 258.186 8.07884 258.239 8.64702 258.346C9.22112 258.446 9.7745 258.657 10.3072 258.976C10.8458 259.296 11.2926 259.778 11.6477 260.423C12.0028 261.068 12.1804 261.933 12.1804 263.016V272H10.0852V270.153H9.97869C9.83665 270.449 9.59991 270.766 9.26847 271.103C8.93703 271.441 8.49609 271.728 7.94567 271.964C7.39524 272.201 6.72349 272.32 5.9304 272.32ZM6.25 270.438C7.0786 270.438 7.77699 270.275 8.34517 269.949C8.91927 269.624 9.35133 269.203 9.64134 268.689C9.93726 268.174 10.0852 267.632 10.0852 267.064V265.146C9.99645 265.253 9.80114 265.35 9.49929 265.439C9.20336 265.522 8.86009 265.596 8.46946 265.661C8.08475 265.72 7.70893 265.774 7.34197 265.821C6.98094 265.862 6.68797 265.898 6.46307 265.928C5.91856 265.999 5.40956 266.114 4.93608 266.274C4.46851 266.428 4.08973 266.661 3.79972 266.975C3.51563 267.283 3.37358 267.703 3.37358 268.236C3.37358 268.964 3.64287 269.514 4.18146 269.887C4.72597 270.254 5.41548 270.438 6.25 270.438ZM16.0045 272V258.364H18.0287V260.423H18.1707C18.4193 259.749 18.8691 259.201 19.5202 258.781C20.1712 258.361 20.9051 258.151 21.7219 258.151C21.8757 258.151 22.0681 258.154 22.2989 258.159C22.5297 258.165 22.7043 258.174 22.8227 258.186V260.317C22.7517 260.299 22.5889 260.272 22.3344 260.237C22.0858 260.195 21.8225 260.175 21.5443 260.175C20.8814 260.175 20.2896 260.314 19.7687 260.592C19.2538 260.864 18.8454 261.243 18.5436 261.728C18.2477 262.208 18.0997 262.755 18.0997 263.371V272H16.0045ZM30.6086 272.284C29.2947 272.284 28.1613 271.994 27.2084 271.414C26.2614 270.828 25.5305 270.011 25.0155 268.964C24.5065 267.91 24.252 266.685 24.252 265.288C24.252 263.892 24.5065 262.661 25.0155 261.595C25.5305 260.524 26.2466 259.689 27.164 259.092C28.0873 258.488 29.1644 258.186 30.3955 258.186C31.1057 258.186 31.8071 258.304 32.4996 258.541C33.192 258.778 33.8224 259.163 34.3905 259.695C34.9587 260.222 35.4115 260.92 35.7488 261.79C36.0862 262.661 36.2549 263.732 36.2549 265.004V265.892H25.7435V264.081H34.1242C34.1242 263.312 33.9703 262.625 33.6626 262.021C33.3607 261.418 32.9287 260.941 32.3664 260.592C31.81 260.243 31.1531 260.068 30.3955 260.068C29.561 260.068 28.8389 260.275 28.2293 260.69C27.6256 261.098 27.161 261.631 26.8355 262.288C26.51 262.945 26.3472 263.649 26.3472 264.401V265.608C26.3472 266.638 26.5248 267.511 26.8799 268.227C27.2409 268.937 27.741 269.479 28.3802 269.852C29.0194 270.219 29.7622 270.402 30.6086 270.402C31.159 270.402 31.6562 270.325 32.1001 270.171C32.5499 270.011 32.9375 269.775 33.2631 269.461C33.5886 269.141 33.8401 268.745 34.0177 268.271L36.0418 268.839C35.8287 269.526 35.4707 270.13 34.9676 270.651C34.4645 271.165 33.8431 271.568 33.1032 271.858C32.3634 272.142 31.5319 272.284 30.6086 272.284ZM52.4037 258.364V260.139H45.3369V258.364H52.4037ZM47.3966 255.097H49.4917V268.094C49.4917 268.686 49.5776 269.129 49.7492 269.425C49.9268 269.715 50.1517 269.911 50.4239 270.011C50.7021 270.106 50.9951 270.153 51.3028 270.153C51.5336 270.153 51.723 270.142 51.871 270.118C52.019 270.088 52.1373 270.065 52.2261 270.047L52.6523 271.929C52.5102 271.982 52.3119 272.036 52.0574 272.089C51.8029 272.148 51.4804 272.178 51.0898 272.178C50.4979 272.178 49.9179 272.05 49.3497 271.796C48.7874 271.541 48.3199 271.154 47.947 270.633C47.58 270.112 47.3966 269.455 47.3966 268.662V255.097ZM55.5553 272V258.364H57.5795V260.423H57.7215C57.9701 259.749 58.4199 259.201 59.0709 258.781C59.722 258.361 60.4559 258.151 61.2726 258.151C61.4265 258.151 61.6189 258.154 61.8497 258.159C62.0805 258.165 62.2551 258.174 62.3735 258.186V260.317C62.3025 260.299 62.1397 260.272 61.8852 260.237C61.6366 260.195 61.3733 260.175 61.0951 260.175C60.4322 260.175 59.8403 260.314 59.3195 260.592C58.8046 260.864 58.3962 261.243 58.0944 261.728C57.7984 262.208 57.6505 262.755 57.6505 263.371V272H55.5553ZM66.6215 277.114C66.2664 277.114 65.9498 277.084 65.6716 277.025C65.3934 276.972 65.2011 276.918 65.0945 276.865L65.6272 275.018C66.1362 275.149 66.586 275.196 66.9767 275.161C67.3673 275.125 67.7135 274.95 68.0154 274.637C68.3231 274.329 68.6043 273.829 68.8588 273.136L69.2494 272.071L64.2068 258.364H66.4795L70.2437 269.23H70.3857L74.1499 258.364H76.4227L70.6343 273.989C70.3739 274.693 70.0513 275.276 69.6666 275.738C69.2819 276.205 68.8351 276.551 68.3261 276.776C67.823 277.001 67.2548 277.114 66.6215 277.114ZM79.1881 272V258.364H81.2833V272H79.1881ZM80.2535 256.091C79.8451 256.091 79.4929 255.952 79.197 255.674C78.907 255.395 78.762 255.061 78.762 254.67C78.762 254.28 78.907 253.945 79.197 253.667C79.4929 253.389 79.8451 253.25 80.2535 253.25C80.6618 253.25 81.011 253.389 81.301 253.667C81.597 253.945 81.7449 254.28 81.7449 254.67C81.7449 255.061 81.597 255.395 81.301 255.674C81.011 255.952 80.6618 256.091 80.2535 256.091ZM87.2159 263.797V272H85.1207V258.364H87.1449V260.494H87.3224C87.642 259.802 88.1274 259.246 88.7784 258.825C89.4295 258.399 90.2699 258.186 91.2997 258.186C92.223 258.186 93.0309 258.375 93.7234 258.754C94.4158 259.127 94.9544 259.695 95.3391 260.459C95.7238 261.216 95.9162 262.175 95.9162 263.335V272H93.821V263.477C93.821 262.406 93.5429 261.571 92.9865 260.974C92.4302 260.37 91.6667 260.068 90.696 260.068C90.0272 260.068 89.4295 260.213 88.9027 260.503C88.3819 260.793 87.9705 261.216 87.6687 261.773C87.3668 262.329 87.2159 263.004 87.2159 263.797ZM105.249 277.398C104.237 277.398 103.367 277.268 102.639 277.007C101.911 276.753 101.304 276.415 100.819 275.995C100.34 275.581 99.9578 275.137 99.6737 274.663L101.343 273.491C101.532 273.74 101.772 274.024 102.062 274.344C102.352 274.669 102.748 274.95 103.252 275.187C103.761 275.43 104.426 275.551 105.249 275.551C106.35 275.551 107.258 275.285 107.975 274.752C108.691 274.219 109.049 273.385 109.049 272.249V269.479H108.871C108.717 269.727 108.498 270.035 108.214 270.402C107.936 270.763 107.534 271.086 107.007 271.37C106.486 271.648 105.782 271.787 104.894 271.787C103.793 271.787 102.805 271.527 101.929 271.006C101.059 270.485 100.369 269.727 99.8602 268.733C99.3571 267.739 99.1056 266.531 99.1056 265.111C99.1056 263.714 99.3512 262.498 99.8424 261.462C100.334 260.42 101.017 259.615 101.893 259.047C102.769 258.473 103.781 258.186 104.929 258.186C105.817 258.186 106.522 258.334 107.042 258.63C107.569 258.92 107.972 259.251 108.25 259.624C108.534 259.991 108.753 260.293 108.907 260.53H109.12V258.364H111.144V272.391C111.144 273.562 110.878 274.515 110.345 275.249C109.818 275.989 109.108 276.531 108.214 276.874C107.326 277.223 106.338 277.398 105.249 277.398ZM105.178 269.905C106.018 269.905 106.729 269.712 107.309 269.328C107.889 268.943 108.33 268.39 108.631 267.668C108.933 266.946 109.084 266.081 109.084 265.075C109.084 264.093 108.936 263.226 108.64 262.474C108.344 261.722 107.906 261.134 107.326 260.707C106.746 260.281 106.03 260.068 105.178 260.068C104.29 260.068 103.55 260.293 102.959 260.743C102.373 261.193 101.932 261.796 101.636 262.554C101.346 263.312 101.201 264.152 101.201 265.075C101.201 266.022 101.349 266.86 101.645 267.588C101.946 268.31 102.39 268.878 102.976 269.292C103.568 269.701 104.302 269.905 105.178 269.905ZM127.941 258.364V260.139H120.874V258.364H127.941ZM122.934 255.097H125.029V268.094C125.029 268.686 125.115 269.129 125.286 269.425C125.464 269.715 125.689 269.911 125.961 270.011C126.239 270.106 126.532 270.153 126.84 270.153C127.071 270.153 127.26 270.142 127.408 270.118C127.556 270.088 127.674 270.065 127.763 270.047L128.189 271.929C128.047 271.982 127.849 272.036 127.595 272.089C127.34 272.148 127.017 272.178 126.627 272.178C126.035 272.178 125.455 272.05 124.887 271.796C124.325 271.541 123.857 271.154 123.484 270.633C123.117 270.112 122.934 269.455 122.934 268.662V255.097ZM136.486 272.284C135.255 272.284 134.175 271.991 133.245 271.405C132.322 270.819 131.6 270 131.079 268.946C130.564 267.893 130.307 266.661 130.307 265.253C130.307 263.832 130.564 262.592 131.079 261.533C131.6 260.474 132.322 259.651 133.245 259.065C134.175 258.479 135.255 258.186 136.486 258.186C137.717 258.186 138.794 258.479 139.717 259.065C140.646 259.651 141.369 260.474 141.883 261.533C142.404 262.592 142.665 263.832 142.665 265.253C142.665 266.661 142.404 267.893 141.883 268.946C141.369 270 140.646 270.819 139.717 271.405C138.794 271.991 137.717 272.284 136.486 272.284ZM136.486 270.402C137.421 270.402 138.19 270.162 138.794 269.683C139.398 269.203 139.844 268.573 140.134 267.792C140.425 267.011 140.57 266.164 140.57 265.253C140.57 264.341 140.425 263.492 140.134 262.705C139.844 261.918 139.398 261.281 138.794 260.796C138.19 260.311 137.421 260.068 136.486 260.068C135.551 260.068 134.781 260.311 134.177 260.796C133.574 261.281 133.127 261.918 132.837 262.705C132.547 263.492 132.402 264.341 132.402 265.253C132.402 266.164 132.547 267.011 132.837 267.792C133.127 268.573 133.574 269.203 134.177 269.683C134.781 270.162 135.551 270.402 136.486 270.402ZM152.894 272V258.364H154.918V260.494H155.096C155.38 259.766 155.839 259.201 156.472 258.799C157.105 258.39 157.866 258.186 158.754 258.186C159.653 258.186 160.402 258.39 161 258.799C161.603 259.201 162.074 259.766 162.411 260.494H162.553C162.902 259.79 163.426 259.231 164.125 258.816C164.823 258.396 165.661 258.186 166.637 258.186C167.856 258.186 168.854 258.568 169.629 259.331C170.404 260.089 170.792 261.27 170.792 262.874V272H168.697V262.874C168.697 261.867 168.422 261.148 167.871 260.716C167.321 260.284 166.673 260.068 165.927 260.068C164.968 260.068 164.225 260.358 163.699 260.938C163.172 261.512 162.908 262.24 162.908 263.122V272H160.778V262.661C160.778 261.885 160.526 261.261 160.023 260.787C159.52 260.308 158.872 260.068 158.079 260.068C157.534 260.068 157.025 260.213 156.552 260.503C156.084 260.793 155.705 261.196 155.415 261.711C155.131 262.22 154.989 262.808 154.989 263.477V272H152.894ZM178.635 272.32C177.771 272.32 176.987 272.157 176.283 271.831C175.579 271.5 175.019 271.023 174.605 270.402C174.191 269.775 173.983 269.017 173.983 268.129C173.983 267.348 174.137 266.715 174.445 266.229C174.753 265.738 175.164 265.353 175.679 265.075C176.194 264.797 176.762 264.59 177.384 264.454C178.011 264.312 178.641 264.199 179.275 264.116C180.103 264.01 180.775 263.93 181.29 263.877C181.811 263.818 182.19 263.72 182.426 263.584C182.669 263.448 182.79 263.211 182.79 262.874V262.803C182.79 261.927 182.551 261.246 182.071 260.761C181.598 260.275 180.879 260.033 179.914 260.033C178.914 260.033 178.129 260.252 177.561 260.69C176.993 261.128 176.594 261.595 176.363 262.092L174.374 261.382C174.729 260.554 175.203 259.908 175.795 259.447C176.392 258.979 177.043 258.654 177.748 258.47C178.458 258.281 179.156 258.186 179.843 258.186C180.281 258.186 180.784 258.239 181.352 258.346C181.926 258.446 182.48 258.657 183.012 258.976C183.551 259.296 183.998 259.778 184.353 260.423C184.708 261.068 184.885 261.933 184.885 263.016V272H182.79V270.153H182.684C182.542 270.449 182.305 270.766 181.974 271.103C181.642 271.441 181.201 271.728 180.651 271.964C180.1 272.201 179.429 272.32 178.635 272.32ZM178.955 270.438C179.784 270.438 180.482 270.275 181.05 269.949C181.624 269.624 182.056 269.203 182.346 268.689C182.642 268.174 182.79 267.632 182.79 267.064V265.146C182.702 265.253 182.506 265.35 182.204 265.439C181.908 265.522 181.565 265.596 181.175 265.661C180.79 265.72 180.414 265.774 180.047 265.821C179.686 265.862 179.393 265.898 179.168 265.928C178.624 265.999 178.115 266.114 177.641 266.274C177.174 266.428 176.795 266.661 176.505 266.975C176.221 267.283 176.079 267.703 176.079 268.236C176.079 268.964 176.348 269.514 176.887 269.887C177.431 270.254 178.121 270.438 178.955 270.438ZM190.663 267.028L190.627 264.436H191.053L197.019 258.364H199.612L193.255 264.791H193.078L190.663 267.028ZM188.71 272V253.818H190.805V272H188.71ZM197.374 272L192.048 265.253L193.539 263.797L200.038 272H197.374ZM207.464 272.284C206.15 272.284 205.017 271.994 204.064 271.414C203.117 270.828 202.386 270.011 201.871 268.964C201.362 267.91 201.108 266.685 201.108 265.288C201.108 263.892 201.362 262.661 201.871 261.595C202.386 260.524 203.102 259.689 204.019 259.092C204.943 258.488 206.02 258.186 207.251 258.186C207.961 258.186 208.663 258.304 209.355 258.541C210.047 258.778 210.678 259.163 211.246 259.695C211.814 260.222 212.267 260.92 212.604 261.79C212.942 262.661 213.11 263.732 213.11 265.004V265.892H202.599V264.081H210.98C210.98 263.312 210.826 262.625 210.518 262.021C210.216 261.418 209.784 260.941 209.222 260.592C208.666 260.243 208.009 260.068 207.251 260.068C206.416 260.068 205.694 260.275 205.085 260.69C204.481 261.098 204.016 261.631 203.691 262.288C203.365 262.945 203.203 263.649 203.203 264.401V265.608C203.203 266.638 203.38 267.511 203.735 268.227C204.096 268.937 204.597 269.479 205.236 269.852C205.875 270.219 206.618 270.402 207.464 270.402C208.014 270.402 208.512 270.325 208.956 270.171C209.405 270.011 209.793 269.775 210.119 269.461C210.444 269.141 210.696 268.745 210.873 268.271L212.897 268.839C212.684 269.526 212.326 270.13 211.823 270.651C211.32 271.165 210.699 271.568 209.959 271.858C209.219 272.142 208.387 272.284 207.464 272.284ZM224.678 277.114C224.323 277.114 224.006 277.084 223.728 277.025C223.45 276.972 223.258 276.918 223.151 276.865L223.684 275.018C224.193 275.149 224.643 275.196 225.033 275.161C225.424 275.125 225.77 274.95 226.072 274.637C226.38 274.329 226.661 273.829 226.915 273.136L227.306 272.071L222.263 258.364H224.536L228.3 269.23H228.442L232.207 258.364H234.479L228.691 273.989C228.431 274.693 228.108 275.276 227.723 275.738C227.339 276.205 226.892 276.551 226.383 276.776C225.88 277.001 225.311 277.114 224.678 277.114ZM242.296 272.284C241.065 272.284 239.985 271.991 239.056 271.405C238.133 270.819 237.41 270 236.89 268.946C236.375 267.893 236.117 266.661 236.117 265.253C236.117 263.832 236.375 262.592 236.89 261.533C237.41 260.474 238.133 259.651 239.056 259.065C239.985 258.479 241.065 258.186 242.296 258.186C243.527 258.186 244.604 258.479 245.528 259.065C246.457 259.651 247.179 260.474 247.694 261.533C248.215 262.592 248.475 263.832 248.475 265.253C248.475 266.661 248.215 267.893 247.694 268.946C247.179 270 246.457 270.819 245.528 271.405C244.604 271.991 243.527 272.284 242.296 272.284ZM242.296 270.402C243.231 270.402 244.001 270.162 244.604 269.683C245.208 269.203 245.655 268.573 245.945 267.792C246.235 267.011 246.38 266.164 246.38 265.253C246.38 264.341 246.235 263.492 245.945 262.705C245.655 261.918 245.208 261.281 244.604 260.796C244.001 260.311 243.231 260.068 242.296 260.068C241.361 260.068 240.592 260.311 239.988 260.796C239.384 261.281 238.937 261.918 238.647 262.705C238.357 263.492 238.212 264.341 238.212 265.253C238.212 266.164 238.357 267.011 238.647 267.792C238.937 268.573 239.384 269.203 239.988 269.683C240.592 270.162 241.361 270.402 242.296 270.402ZM260.267 266.425V258.364H262.362V272H260.267V269.692H260.125C259.806 270.384 259.308 270.973 258.634 271.458C257.959 271.938 257.107 272.178 256.077 272.178C255.225 272.178 254.467 271.991 253.804 271.618C253.141 271.239 252.62 270.671 252.242 269.914C251.863 269.15 251.673 268.188 251.673 267.028V258.364H253.769V266.886C253.769 267.881 254.047 268.674 254.603 269.266C255.165 269.857 255.882 270.153 256.752 270.153C257.272 270.153 257.802 270.02 258.341 269.754C258.885 269.488 259.341 269.079 259.708 268.529C260.081 267.978 260.267 267.277 260.267 266.425ZM266.2 272V258.364H268.224V260.423H268.366C268.615 259.749 269.064 259.201 269.715 258.781C270.367 258.361 271.1 258.151 271.917 258.151C272.071 258.151 272.263 258.154 272.494 258.159C272.725 258.165 272.9 258.174 273.018 258.186V260.317C272.947 260.299 272.784 260.272 272.53 260.237C272.281 260.195 272.018 260.175 271.74 260.175C271.077 260.175 270.485 260.314 269.964 260.592C269.449 260.864 269.041 261.243 268.739 261.728C268.443 262.208 268.295 262.755 268.295 263.371V272H266.2ZM284.628 253.818V272H282.533V253.818H284.628ZM288.465 272V258.364H290.561V272H288.465ZM289.531 256.091C289.122 256.091 288.77 255.952 288.474 255.674C288.184 255.395 288.039 255.061 288.039 254.67C288.039 254.28 288.184 253.945 288.474 253.667C288.77 253.389 289.122 253.25 289.531 253.25C289.939 253.25 290.288 253.389 290.578 253.667C290.874 253.945 291.022 254.28 291.022 254.67C291.022 255.061 290.874 255.395 290.578 255.674C290.288 255.952 289.939 256.091 289.531 256.091ZM300.471 258.364V260.139H293.12V258.364H300.471ZM295.321 272V256.482C295.321 255.7 295.505 255.049 295.872 254.528C296.239 254.008 296.715 253.617 297.301 253.357C297.887 253.096 298.506 252.966 299.157 252.966C299.672 252.966 300.092 253.007 300.417 253.09C300.743 253.173 300.985 253.25 301.145 253.321L300.542 255.132C300.435 255.097 300.287 255.052 300.098 254.999C299.914 254.946 299.672 254.919 299.37 254.919C298.677 254.919 298.177 255.094 297.869 255.443C297.567 255.792 297.417 256.304 297.417 256.979V272H295.321ZM308.563 272.284C307.249 272.284 306.115 271.994 305.162 271.414C304.215 270.828 303.485 270.011 302.97 268.964C302.461 267.91 302.206 266.685 302.206 265.288C302.206 263.892 302.461 262.661 302.97 261.595C303.485 260.524 304.201 259.689 305.118 259.092C306.041 258.488 307.119 258.186 308.35 258.186C309.06 258.186 309.761 258.304 310.454 258.541C311.146 258.778 311.776 259.163 312.345 259.695C312.913 260.222 313.366 260.92 313.703 261.79C314.04 262.661 314.209 263.732 314.209 265.004V265.892H303.698V264.081H312.078C312.078 263.312 311.924 262.625 311.617 262.021C311.315 261.418 310.883 260.941 310.32 260.592C309.764 260.243 309.107 260.068 308.35 260.068C307.515 260.068 306.793 260.275 306.183 260.69C305.58 261.098 305.115 261.631 304.79 262.288C304.464 262.945 304.301 263.649 304.301 264.401V265.608C304.301 266.638 304.479 267.511 304.834 268.227C305.195 268.937 305.695 269.479 306.334 269.852C306.974 270.219 307.716 270.402 308.563 270.402C309.113 270.402 309.61 270.325 310.054 270.171C310.504 270.011 310.892 269.775 311.217 269.461C311.543 269.141 311.794 268.745 311.972 268.271L313.996 268.839C313.783 269.526 313.425 270.13 312.922 270.651C312.419 271.165 311.797 271.568 311.057 271.858C310.318 272.142 309.486 272.284 308.563 272.284ZM330.145 272.284C328.831 272.284 327.697 271.994 326.744 271.414C325.798 270.828 325.067 270.011 324.552 268.964C324.043 267.91 323.788 266.685 323.788 265.288C323.788 263.892 324.043 262.661 324.552 261.595C325.067 260.524 325.783 259.689 326.7 259.092C327.623 258.488 328.701 258.186 329.932 258.186C330.642 258.186 331.343 258.304 332.036 258.541C332.728 258.778 333.358 259.163 333.927 259.695C334.495 260.222 334.948 260.92 335.285 261.79C335.622 262.661 335.791 263.732 335.791 265.004V265.892H325.28V264.081H333.66C333.66 263.312 333.506 262.625 333.199 262.021C332.897 261.418 332.465 260.941 331.903 260.592C331.346 260.243 330.689 260.068 329.932 260.068C329.097 260.068 328.375 260.275 327.765 260.69C327.162 261.098 326.697 261.631 326.372 262.288C326.046 262.945 325.883 263.649 325.883 264.401V265.608C325.883 266.638 326.061 267.511 326.416 268.227C326.777 268.937 327.277 269.479 327.916 269.852C328.556 270.219 329.298 270.402 330.145 270.402C330.695 270.402 331.192 270.325 331.636 270.171C332.086 270.011 332.474 269.775 332.799 269.461C333.125 269.141 333.376 268.745 333.554 268.271L335.578 268.839C335.365 269.526 335.007 270.13 334.504 270.651C334.001 271.165 333.379 271.568 332.639 271.858C331.9 272.142 331.068 272.284 330.145 272.284ZM342.991 272.32C342.127 272.32 341.343 272.157 340.638 271.831C339.934 271.5 339.375 271.023 338.96 270.402C338.546 269.775 338.339 269.017 338.339 268.129C338.339 267.348 338.493 266.715 338.801 266.229C339.108 265.738 339.52 265.353 340.035 265.075C340.55 264.797 341.118 264.59 341.739 264.454C342.367 264.312 342.997 264.199 343.63 264.116C344.459 264.01 345.131 263.93 345.645 263.877C346.166 263.818 346.545 263.72 346.782 263.584C347.024 263.448 347.146 263.211 347.146 262.874V262.803C347.146 261.927 346.906 261.246 346.427 260.761C345.953 260.275 345.234 260.033 344.269 260.033C343.269 260.033 342.485 260.252 341.917 260.69C341.349 261.128 340.949 261.595 340.718 262.092L338.73 261.382C339.085 260.554 339.558 259.908 340.15 259.447C340.748 258.979 341.399 258.654 342.103 258.47C342.813 258.281 343.512 258.186 344.198 258.186C344.636 258.186 345.139 258.239 345.708 258.346C346.282 258.446 346.835 258.657 347.368 258.976C347.906 259.296 348.353 259.778 348.708 260.423C349.063 261.068 349.241 261.933 349.241 263.016V272H347.146V270.153H347.039C346.897 270.449 346.66 270.766 346.329 271.103C345.998 271.441 345.557 271.728 345.006 271.964C344.456 272.201 343.784 272.32 342.991 272.32ZM343.311 270.438C344.139 270.438 344.838 270.275 345.406 269.949C345.98 269.624 346.412 269.203 346.702 268.689C346.998 268.174 347.146 267.632 347.146 267.064V265.146C347.057 265.253 346.862 265.35 346.56 265.439C346.264 265.522 345.921 265.596 345.53 265.661C345.145 265.72 344.769 265.774 344.403 265.821C344.041 265.862 343.749 265.898 343.524 265.928C342.979 265.999 342.47 266.114 341.997 266.274C341.529 266.428 341.15 266.661 340.86 266.975C340.576 267.283 340.434 267.703 340.434 268.236C340.434 268.964 340.703 269.514 341.242 269.887C341.787 270.254 342.476 270.438 343.311 270.438ZM362.724 261.418L360.842 261.95C360.724 261.637 360.549 261.332 360.318 261.036C360.093 260.734 359.786 260.485 359.395 260.29C359.004 260.095 358.504 259.997 357.895 259.997C357.06 259.997 356.365 260.19 355.808 260.574C355.258 260.953 354.983 261.435 354.983 262.021C354.983 262.542 355.172 262.953 355.551 263.255C355.93 263.557 356.522 263.809 357.326 264.01L359.351 264.507C360.57 264.803 361.478 265.256 362.076 265.865C362.674 266.469 362.973 267.247 362.973 268.2C362.973 268.982 362.748 269.68 362.298 270.295C361.854 270.911 361.233 271.396 360.434 271.751C359.635 272.107 358.705 272.284 357.646 272.284C356.255 272.284 355.104 271.982 354.193 271.379C353.281 270.775 352.704 269.893 352.461 268.733L354.45 268.236C354.639 268.97 354.997 269.52 355.524 269.887C356.057 270.254 356.752 270.438 357.611 270.438C358.587 270.438 359.362 270.23 359.937 269.816C360.517 269.396 360.807 268.893 360.807 268.307C360.807 267.833 360.641 267.437 360.309 267.117C359.978 266.792 359.469 266.549 358.782 266.389L356.51 265.857C355.261 265.561 354.343 265.102 353.758 264.48C353.178 263.853 352.888 263.069 352.888 262.128C352.888 261.358 353.104 260.678 353.536 260.086C353.974 259.494 354.568 259.029 355.32 258.692C356.078 258.355 356.936 258.186 357.895 258.186C359.244 258.186 360.303 258.482 361.073 259.074C361.848 259.666 362.399 260.447 362.724 261.418ZM366.127 272V258.364H368.222V272H366.127ZM367.192 256.091C366.784 256.091 366.431 255.952 366.135 255.674C365.845 255.395 365.7 255.061 365.7 254.67C365.7 254.28 365.845 253.945 366.135 253.667C366.431 253.389 366.784 253.25 367.192 253.25C367.6 253.25 367.95 253.389 368.24 253.667C368.535 253.945 368.683 254.28 368.683 254.67C368.683 255.061 368.535 255.395 368.24 255.674C367.95 255.952 367.6 256.091 367.192 256.091ZM377.777 272.284C376.463 272.284 375.329 271.994 374.376 271.414C373.429 270.828 372.698 270.011 372.184 268.964C371.675 267.91 371.42 266.685 371.42 265.288C371.42 263.892 371.675 262.661 372.184 261.595C372.698 260.524 373.415 259.689 374.332 259.092C375.255 258.488 376.332 258.186 377.563 258.186C378.274 258.186 378.975 258.304 379.668 258.541C380.36 258.778 380.99 259.163 381.559 259.695C382.127 260.222 382.579 260.92 382.917 261.79C383.254 262.661 383.423 263.732 383.423 265.004V265.892H372.911V264.081H381.292C381.292 263.312 381.138 262.625 380.831 262.021C380.529 261.418 380.097 260.941 379.534 260.592C378.978 260.243 378.321 260.068 377.563 260.068C376.729 260.068 376.007 260.275 375.397 260.69C374.794 261.098 374.329 261.631 374.003 262.288C373.678 262.945 373.515 263.649 373.515 264.401V265.608C373.515 266.638 373.693 267.511 374.048 268.227C374.409 268.937 374.909 269.479 375.548 269.852C376.187 270.219 376.93 270.402 377.777 270.402C378.327 270.402 378.824 270.325 379.268 270.171C379.718 270.011 380.105 269.775 380.431 269.461C380.757 269.141 381.008 268.745 381.186 268.271L383.21 268.839C382.997 269.526 382.639 270.13 382.136 270.651C381.632 271.165 381.011 271.568 380.271 271.858C379.531 272.142 378.7 272.284 377.777 272.284ZM386.61 272V258.364H388.634V260.423H388.776C389.025 259.749 389.475 259.201 390.126 258.781C390.777 258.361 391.511 258.151 392.327 258.151C392.481 258.151 392.674 258.154 392.904 258.159C393.135 258.165 393.31 258.174 393.428 258.186V260.317C393.357 260.299 393.194 260.272 392.94 260.237C392.691 260.195 392.428 260.175 392.15 260.175C391.487 260.175 390.895 260.314 390.374 260.592C389.859 260.864 389.451 261.243 389.149 261.728C388.853 262.208 388.705 262.755 388.705 263.371V272H386.61ZM395.876 272.142C395.438 272.142 395.062 271.985 394.749 271.672C394.435 271.358 394.278 270.982 394.278 270.544C394.278 270.106 394.435 269.73 394.749 269.417C395.062 269.103 395.438 268.946 395.876 268.946C396.314 268.946 396.69 269.103 397.004 269.417C397.317 269.73 397.474 270.106 397.474 270.544C397.474 270.834 397.4 271.1 397.252 271.343C397.11 271.586 396.918 271.781 396.675 271.929C396.439 272.071 396.172 272.142 395.876 272.142Z" fill="#515151"/>
<defs>
<linearGradient id="paint0_linear_0_1" x1="108.179" y1="85" x2="777.653" y2="42.427" gradientUnits="userSpaceOnUse">
<stop stop-color="#018297"/>
<stop offset="0.946422" stop-color="#1ABFAF"/>
</linearGradient>
</defs>
</svg>
