<svg width="738" height="325" viewBox="0 0 738 325" fill="none" xmlns="http://www.w3.org/2000/svg">
<path d="M63.88 53.528C63.88 57.432 62.824 60.696 60.712 63.32C58.664 65.88 55.88 67.8 52.36 69.08C48.84 70.36 44.968 71 40.744 71H7.528V2.84H45.448C48.648 2.84 51.4 3.704 53.704 5.432C56.072 7.096 57.864 9.272 59.08 11.96C60.36 14.648 61 17.432 61 20.312C61 23.512 60.168 26.584 58.504 29.528C56.84 32.408 54.408 34.584 51.208 36.056C55.112 37.208 58.184 39.256 60.424 42.2C62.728 45.144 63.88 48.92 63.88 53.528ZM47.848 50.36C47.848 48.888 47.56 47.608 46.984 46.52C46.408 45.368 45.64 44.472 44.68 43.832C43.784 43.128 42.696 42.776 41.416 42.776H23.272V57.656H40.744C42.088 57.656 43.272 57.336 44.296 56.696C45.384 56.056 46.248 55.192 46.888 54.104C47.528 53.016 47.848 51.768 47.848 50.36ZM23.272 16.28V30.392H38.728C39.88 30.392 40.936 30.136 41.896 29.624C42.92 29.112 43.752 28.344 44.392 27.32C45.032 26.232 45.352 24.888 45.352 23.288C45.352 21.752 45.064 20.472 44.488 19.448C43.976 18.424 43.272 17.656 42.376 17.144C41.48 16.568 40.456 16.28 39.304 16.28H23.272ZM71.905 71V20.6H87.265V71H71.905ZM71.905 14.84V0.919998H87.265V14.84H71.905ZM131.668 71L118.516 50.84L113.14 56.312V71H97.78V0.919998H113.14V41.432L130.228 20.6H146.452L128.308 42.296L147.988 71H131.668ZM174.001 71.96C169.713 71.96 165.905 71.288 162.577 69.944C159.249 68.536 156.401 66.648 154.033 64.28C151.729 61.912 149.969 59.192 148.753 56.12C147.537 52.984 146.929 49.72 146.929 46.328C146.929 41.464 147.985 37.048 150.097 33.08C152.273 29.048 155.377 25.816 159.409 23.384C163.441 20.888 168.305 19.64 174.001 19.64C179.697 19.64 184.529 20.856 188.497 23.288C192.529 25.72 195.601 28.92 197.713 32.888C199.825 36.792 200.881 41.048 200.881 45.656C200.881 46.552 200.817 47.448 200.689 48.344C200.625 49.176 200.561 49.912 200.497 50.552H163.249C163.441 52.792 164.049 54.68 165.073 56.216C166.161 57.752 167.537 58.936 169.201 59.768C170.865 60.536 172.625 60.92 174.481 60.92C176.785 60.92 178.929 60.376 180.913 59.288C182.961 58.2 184.369 56.728 185.137 54.872L198.193 58.52C196.913 61.144 195.089 63.48 192.721 65.528C190.417 67.512 187.665 69.08 184.465 70.232C181.329 71.384 177.841 71.96 174.001 71.96ZM162.865 41.144H184.753C184.497 39.032 183.889 37.208 182.929 35.672C181.969 34.072 180.689 32.856 179.089 32.024C177.489 31.128 175.729 30.68 173.809 30.68C171.825 30.68 170.033 31.128 168.433 32.024C166.897 32.856 165.649 34.072 164.689 35.672C163.729 37.208 163.121 39.032 162.865 41.144ZM275.081 71L243.785 37.688C241.097 34.808 238.953 32.344 237.353 30.296C235.753 28.248 234.601 26.36 233.897 24.632C233.257 22.84 232.937 20.92 232.937 18.872C232.937 15.416 233.769 12.44 235.433 9.944C237.097 7.384 239.369 5.432 242.249 4.088C245.193 2.68 248.489 1.976 252.137 1.976C255.401 1.976 258.473 2.552 261.353 3.704C264.233 4.792 266.601 6.488 268.457 8.792C270.313 11.096 271.241 14.04 271.241 17.624C271.241 20.696 270.505 23.512 269.033 26.072C267.625 28.568 265.673 30.872 263.177 32.984C260.745 35.096 257.993 37.08 254.921 38.936C252.681 40.28 250.665 41.592 248.873 42.872C247.145 44.088 245.769 45.368 244.745 46.712C243.785 48.056 243.305 49.528 243.305 51.128C243.305 52.472 243.689 53.848 244.457 55.256C245.289 56.6 246.473 57.72 248.009 58.616C249.609 59.512 251.497 59.96 253.673 59.96C256.105 59.96 258.537 59.352 260.969 58.136C263.401 56.856 265.609 55.032 267.593 52.664C269.641 50.296 271.241 47.416 272.393 44.024C273.609 40.632 274.217 36.792 274.217 32.504H286.601C286.601 38.968 285.609 44.664 283.625 49.592C281.641 54.52 278.985 58.648 275.657 61.976C272.393 65.304 268.713 67.8 264.617 69.464C260.521 71.128 256.329 71.96 252.041 71.96C247.113 71.96 242.889 70.968 239.369 68.984C235.849 66.936 233.161 64.344 231.305 61.208C229.513 58.008 228.617 54.616 228.617 51.032C228.617 47.384 229.449 44.216 231.113 41.528C232.777 38.776 234.857 36.376 237.353 34.328C239.913 32.28 242.441 30.488 244.937 28.952C247.689 27.16 249.961 25.72 251.753 24.632C253.545 23.48 254.889 22.392 255.785 21.368C256.681 20.344 257.129 19.16 257.129 17.816C257.129 16.408 256.649 15.288 255.689 14.456C254.793 13.624 253.609 13.208 252.137 13.208C251.113 13.208 250.185 13.464 249.353 13.976C248.521 14.424 247.881 15.032 247.433 15.8C247.049 16.504 246.857 17.336 246.857 18.296C246.857 19.192 247.113 20.056 247.625 20.888C248.201 21.656 249.129 22.68 250.409 23.96C251.753 25.24 253.577 27.128 255.881 29.624L295.241 71H275.081ZM346.689 71.96C342.401 71.96 338.593 71.288 335.265 69.944C331.937 68.536 329.089 66.648 326.721 64.28C324.417 61.912 322.657 59.192 321.441 56.12C320.225 52.984 319.617 49.72 319.617 46.328C319.617 41.464 320.673 37.048 322.785 33.08C324.961 29.048 328.065 25.816 332.097 23.384C336.129 20.888 340.993 19.64 346.689 19.64C352.385 19.64 357.217 20.856 361.185 23.288C365.217 25.72 368.289 28.92 370.401 32.888C372.513 36.792 373.569 41.048 373.569 45.656C373.569 46.552 373.505 47.448 373.377 48.344C373.313 49.176 373.249 49.912 373.185 50.552H335.937C336.129 52.792 336.737 54.68 337.761 56.216C338.849 57.752 340.225 58.936 341.889 59.768C343.553 60.536 345.313 60.92 347.169 60.92C349.473 60.92 351.617 60.376 353.601 59.288C355.649 58.2 357.057 56.728 357.825 54.872L370.881 58.52C369.601 61.144 367.777 63.48 365.409 65.528C363.105 67.512 360.353 69.08 357.153 70.232C354.017 71.384 350.529 71.96 346.689 71.96ZM335.553 41.144H357.441C357.185 39.032 356.577 37.208 355.617 35.672C354.657 34.072 353.377 32.856 351.777 32.024C350.177 31.128 348.417 30.68 346.497 30.68C344.513 30.68 342.721 31.128 341.121 32.024C339.585 32.856 338.337 34.072 337.377 35.672C336.417 37.208 335.809 39.032 335.553 41.144ZM421.83 22.808C421.638 22.488 420.966 22.008 419.814 21.368C418.662 20.664 417.222 19.928 415.494 19.16C413.766 18.392 411.878 17.72 409.83 17.144C407.782 16.568 405.734 16.28 403.686 16.28C400.998 16.28 398.918 16.76 397.446 17.72C395.974 18.616 395.238 20.024 395.238 21.944C395.238 23.48 395.782 24.696 396.87 25.592C398.022 26.488 399.654 27.288 401.766 27.992C403.878 28.632 406.47 29.4 409.542 30.296C413.894 31.448 417.67 32.856 420.87 34.52C424.07 36.12 426.502 38.2 428.166 40.76C429.894 43.32 430.758 46.712 430.758 50.936C430.758 54.776 430.054 58.04 428.646 60.728C427.238 63.352 425.318 65.496 422.886 67.16C420.518 68.76 417.798 69.944 414.726 70.712C411.654 71.416 408.486 71.768 405.222 71.768C401.894 71.768 398.47 71.448 394.95 70.808C391.494 70.104 388.166 69.144 384.966 67.928C381.766 66.648 378.822 65.112 376.134 63.32L383.046 49.592C383.302 49.912 384.134 50.52 385.542 51.416C386.95 52.248 388.678 53.144 390.726 54.104C392.838 55 395.174 55.8 397.734 56.504C400.294 57.208 402.886 57.56 405.51 57.56C408.326 57.56 410.406 57.112 411.75 56.216C413.158 55.32 413.862 54.072 413.862 52.472C413.862 50.744 413.126 49.4 411.654 48.44C410.246 47.48 408.294 46.616 405.798 45.848C403.366 45.08 400.55 44.216 397.35 43.256C393.19 41.976 389.734 40.536 386.982 38.936C384.294 37.336 382.278 35.384 380.934 33.08C379.654 30.776 379.014 27.896 379.014 24.44C379.014 19.64 380.134 15.608 382.374 12.344C384.678 9.016 387.75 6.52 391.59 4.856C395.43 3.128 399.622 2.264 404.166 2.264C407.366 2.264 410.438 2.648 413.382 3.41599C416.39 4.184 419.174 5.144 421.734 6.296C424.358 7.448 426.694 8.6 428.742 9.752L421.83 22.808ZM462.845 71.96C458.557 71.96 454.749 71.256 451.421 69.848C448.093 68.44 445.245 66.52 442.877 64.088C440.573 61.656 438.813 58.872 437.597 55.736C436.381 52.6 435.773 49.272 435.773 45.752C435.773 41.144 436.829 36.856 438.941 32.888C441.117 28.92 444.221 25.72 448.253 23.288C452.285 20.856 457.149 19.64 462.845 19.64C468.605 19.64 473.469 20.888 477.437 23.384C481.469 25.816 484.477 29.016 486.461 32.984L471.485 37.496C470.525 35.96 469.277 34.776 467.741 33.944C466.269 33.112 464.605 32.696 462.749 32.696C460.637 32.696 458.717 33.24 456.989 34.328C455.325 35.416 453.981 36.92 452.957 38.84C451.997 40.76 451.517 43.064 451.517 45.752C451.517 48.376 452.029 50.68 453.053 52.664C454.077 54.648 455.421 56.216 457.085 57.368C458.749 58.456 460.637 59 462.749 59C464.029 59 465.213 58.808 466.301 58.424C467.453 57.976 468.477 57.368 469.373 56.6C470.333 55.832 471.069 54.968 471.581 54.008L486.557 58.616C485.341 61.176 483.581 63.48 481.277 65.528C479.037 67.512 476.381 69.08 473.309 70.232C470.237 71.384 466.749 71.96 462.845 71.96ZM517.03 71.96C512.742 71.96 508.902 71.256 505.51 69.848C502.182 68.44 499.366 66.52 497.062 64.088C494.758 61.656 492.998 58.872 491.782 55.736C490.63 52.6 490.054 49.304 490.054 45.848C490.054 42.328 490.63 39 491.782 35.864C492.998 32.728 494.758 29.944 497.062 27.512C499.366 25.08 502.182 23.16 505.51 21.752C508.902 20.344 512.742 19.64 517.03 19.64C521.318 19.64 525.126 20.344 528.454 21.752C531.782 23.16 534.598 25.08 536.902 27.512C539.206 29.944 540.966 32.728 542.182 35.864C543.398 39 544.006 42.328 544.006 45.848C544.006 49.304 543.398 52.6 542.182 55.736C540.966 58.872 539.206 61.656 536.902 64.088C534.598 66.52 531.782 68.44 528.454 69.848C525.126 71.256 521.318 71.96 517.03 71.96ZM505.798 45.848C505.798 48.472 506.278 50.776 507.238 52.76C508.262 54.744 509.606 56.28 511.27 57.368C512.934 58.456 514.854 59 517.03 59C519.142 59 521.03 58.456 522.694 57.368C524.422 56.216 525.766 54.648 526.726 52.664C527.686 50.68 528.166 48.408 528.166 45.848C528.166 43.224 527.686 40.92 526.726 38.936C525.766 36.952 524.422 35.416 522.694 34.328C521.03 33.24 519.142 32.696 517.03 32.696C514.854 32.696 512.934 33.24 511.27 34.328C509.606 35.416 508.262 36.952 507.238 38.936C506.278 40.92 505.798 43.224 505.798 45.848ZM575.624 71.96C571.336 71.96 567.496 71.256 564.104 69.848C560.776 68.44 557.96 66.52 555.656 64.088C553.352 61.656 551.592 58.872 550.376 55.736C549.224 52.6 548.648 49.304 548.648 45.848C548.648 42.328 549.224 39 550.376 35.864C551.592 32.728 553.352 29.944 555.656 27.512C557.96 25.08 560.776 23.16 564.104 21.752C567.496 20.344 571.336 19.64 575.624 19.64C579.912 19.64 583.72 20.344 587.048 21.752C590.376 23.16 593.192 25.08 595.496 27.512C597.8 29.944 599.56 32.728 600.776 35.864C601.992 39 602.6 42.328 602.6 45.848C602.6 49.304 601.992 52.6 600.776 55.736C599.56 58.872 597.8 61.656 595.496 64.088C593.192 66.52 590.376 68.44 587.048 69.848C583.72 71.256 579.912 71.96 575.624 71.96ZM564.392 45.848C564.392 48.472 564.872 50.776 565.832 52.76C566.856 54.744 568.2 56.28 569.864 57.368C571.528 58.456 573.448 59 575.624 59C577.736 59 579.624 58.456 581.288 57.368C583.016 56.216 584.36 54.648 585.32 52.664C586.28 50.68 586.76 48.408 586.76 45.848C586.76 43.224 586.28 40.92 585.32 38.936C584.36 36.952 583.016 35.416 581.288 34.328C579.624 33.24 577.736 32.696 575.624 32.696C573.448 32.696 571.528 33.24 569.864 34.328C568.2 35.416 566.856 36.952 565.832 38.936C564.872 40.92 564.392 43.224 564.392 45.848ZM642.108 68.312C640.7 68.888 639.132 69.464 637.404 70.04C635.74 70.616 633.98 71.064 632.124 71.384C630.268 71.768 628.444 71.96 626.652 71.96C624.092 71.96 621.724 71.544 619.548 70.712C617.436 69.816 615.74 68.376 614.46 66.392C613.244 64.408 612.636 61.784 612.636 58.52V32.216H606.204V20.6H612.636V4.568H627.996V20.6H638.268V32.216H627.996V53.24C627.996 54.904 628.412 56.12 629.244 56.888C630.076 57.592 631.132 57.944 632.411 57.944C633.5 57.944 634.652 57.752 635.868 57.368C637.148 56.984 638.236 56.568 639.132 56.12L642.108 68.312ZM671.626 71.96C667.338 71.96 663.53 71.288 660.202 69.944C656.874 68.536 654.026 66.648 651.658 64.28C649.354 61.912 647.594 59.192 646.378 56.12C645.162 52.984 644.554 49.72 644.554 46.328C644.554 41.464 645.61 37.048 647.722 33.08C649.898 29.048 653.002 25.816 657.034 23.384C661.066 20.888 665.93 19.64 671.626 19.64C677.322 19.64 682.154 20.856 686.122 23.288C690.154 25.72 693.226 28.92 695.338 32.888C697.45 36.792 698.506 41.048 698.506 45.656C698.506 46.552 698.442 47.448 698.314 48.344C698.25 49.176 698.186 49.912 698.122 50.552H660.874C661.066 52.792 661.674 54.68 662.698 56.216C663.786 57.752 665.162 58.936 666.826 59.768C668.49 60.536 670.25 60.92 672.106 60.92C674.41 60.92 676.554 60.376 678.538 59.288C680.586 58.2 681.994 56.728 682.762 54.872L695.818 58.52C694.538 61.144 692.714 63.48 690.346 65.528C688.042 67.512 685.29 69.08 682.09 70.232C678.954 71.384 675.466 71.96 671.626 71.96ZM660.49 41.144H682.378C682.122 39.032 681.514 37.208 680.554 35.672C679.594 34.072 678.314 32.856 676.714 32.024C675.114 31.128 673.354 30.68 671.434 30.68C669.45 30.68 667.658 31.128 666.058 32.024C664.522 32.856 663.274 34.072 662.314 35.672C661.354 37.208 660.746 39.032 660.49 41.144ZM737.436 33.752C733.724 33.752 730.364 34.36 727.356 35.576C724.348 36.728 722.172 38.456 720.828 40.76V71H705.468V20.6H719.58V30.776C721.308 27.384 723.548 24.728 726.3 22.808C729.052 20.888 731.932 19.896 734.94 19.832C735.644 19.832 736.156 19.832 736.476 19.832C736.86 19.832 737.18 19.864 737.436 19.928V33.752Z" fill="url(#paint0_linear_0_1)"/>
<path d="M2.092 274.92C2.092 273.707 2.29733 272.521 2.708 271.364C3.13733 270.188 3.75333 269.124 4.556 268.172C5.37733 267.201 6.376 266.436 7.552 265.876C8.728 265.297 10.0627 265.008 11.556 265.008C13.3293 265.008 14.8507 265.419 16.12 266.24C17.3893 267.043 18.332 268.079 18.948 269.348L16.96 270.636C16.568 269.796 16.064 269.133 15.448 268.648C14.8507 268.144 14.1973 267.789 13.488 267.584C12.7973 267.379 12.116 267.276 11.444 267.276C10.3427 267.276 9.36267 267.5 8.504 267.948C7.664 268.396 6.95467 268.993 6.376 269.74C5.79733 270.487 5.35867 271.327 5.06 272.26C4.78 273.175 4.64 274.099 4.64 275.032C4.64 276.059 4.808 277.048 5.144 278C5.49867 278.952 5.984 279.792 6.6 280.52C7.216 281.248 7.944 281.827 8.784 282.256C9.624 282.685 10.5387 282.9 11.528 282.9C12.2187 282.9 12.928 282.779 13.656 282.536C14.384 282.293 15.0653 281.92 15.7 281.416C16.3347 280.893 16.8387 280.221 17.212 279.4L19.312 280.548C18.9013 281.537 18.2667 282.377 17.408 283.068C16.5493 283.759 15.588 284.281 14.524 284.636C13.4787 284.991 12.4427 285.168 11.416 285.168C10.0533 285.168 8.80267 284.879 7.664 284.3C6.52533 283.703 5.536 282.919 4.696 281.948C3.87467 280.959 3.23067 279.857 2.764 278.644C2.316 277.412 2.092 276.171 2.092 274.92ZM34.7579 285H32.2939V276.824C32.2939 275.331 32.0233 274.211 31.4819 273.464C30.9593 272.717 30.2033 272.344 29.2139 272.344C28.5793 272.344 27.9353 272.512 27.2819 272.848C26.6473 273.184 26.0873 273.641 25.6019 274.22C25.1166 274.78 24.7619 275.433 24.5379 276.18V285H22.0739V264.56H24.5379V273.52C25.1166 272.475 25.9006 271.653 26.8899 271.056C27.8979 270.44 28.9806 270.132 30.1379 270.132C31.0153 270.132 31.7433 270.291 32.3219 270.608C32.9193 270.907 33.3953 271.336 33.7499 271.896C34.1046 272.456 34.3566 273.109 34.5059 273.856C34.6739 274.584 34.7579 275.387 34.7579 276.264V285ZM37.4416 280.772C37.4416 279.839 37.7029 279.036 38.2256 278.364C38.7669 277.673 39.5042 277.141 40.4376 276.768C41.3709 276.395 42.4536 276.208 43.6856 276.208C44.3389 276.208 45.0296 276.264 45.7576 276.376C46.4856 276.469 47.1296 276.619 47.6896 276.824V275.76C47.6896 274.64 47.3536 273.763 46.6816 273.128C46.0096 272.475 45.0576 272.148 43.8256 272.148C43.0229 272.148 42.2482 272.297 41.5016 272.596C40.7736 272.876 39.9989 273.287 39.1776 273.828L38.2816 272.092C39.2336 271.439 40.1856 270.953 41.1376 270.636C42.0896 270.3 43.0789 270.132 44.1056 270.132C45.9722 270.132 47.4469 270.655 48.5296 271.7C49.6122 272.727 50.1536 274.164 50.1536 276.012V282.2C50.1536 282.499 50.2096 282.723 50.3216 282.872C50.4522 283.003 50.6576 283.077 50.9376 283.096V285C50.6949 285.037 50.4802 285.065 50.2936 285.084C50.1256 285.103 49.9856 285.112 49.8736 285.112C49.2949 285.112 48.8562 284.953 48.5576 284.636C48.2776 284.319 48.1189 283.983 48.0816 283.628L48.0256 282.704C47.3909 283.525 46.5602 284.16 45.5336 284.608C44.5069 285.056 43.4896 285.28 42.4816 285.28C41.5109 285.28 40.6429 285.084 39.8776 284.692C39.1122 284.281 38.5149 283.74 38.0856 283.068C37.6562 282.377 37.4416 281.612 37.4416 280.772ZM46.9616 281.808C47.1856 281.547 47.3629 281.285 47.4936 281.024C47.6242 280.744 47.6896 280.511 47.6896 280.324V278.504C47.1109 278.28 46.5042 278.112 45.8696 278C45.2349 277.869 44.6096 277.804 43.9936 277.804C42.7429 277.804 41.7256 278.056 40.9416 278.56C40.1762 279.045 39.7936 279.717 39.7936 280.576C39.7936 281.043 39.9149 281.5 40.1576 281.948C40.4189 282.377 40.7922 282.732 41.2776 283.012C41.7816 283.292 42.3976 283.432 43.1256 283.432C43.8909 283.432 44.6189 283.283 45.3096 282.984C46.0002 282.667 46.5509 282.275 46.9616 281.808ZM54.0935 285V270.384H56.5575V285H54.0935ZM54.0935 267.64V264.56H56.5575V267.64H54.0935ZM73.2306 285H70.7666V276.824C70.7666 275.275 70.5239 274.145 70.0386 273.436C69.5719 272.708 68.8533 272.344 67.8826 272.344C67.2106 272.344 66.5386 272.512 65.8666 272.848C65.2133 273.184 64.6253 273.641 64.1026 274.22C63.5986 274.78 63.2346 275.433 63.0106 276.18V285H60.5466V270.384H62.7866V273.52C63.1786 272.829 63.6826 272.232 64.2986 271.728C64.9146 271.224 65.6146 270.832 66.3986 270.552C67.1826 270.272 68.0039 270.132 68.8626 270.132C69.7026 270.132 70.4026 270.291 70.9626 270.608C71.5413 270.907 71.9893 271.336 72.3066 271.896C72.6426 272.437 72.8759 273.081 73.0066 273.828C73.1559 274.575 73.2306 275.387 73.2306 276.264V285ZM82.8862 285.168C81.8969 285.168 80.9822 284.972 80.1422 284.58C79.3209 284.169 78.6116 283.619 78.0142 282.928C77.4169 282.219 76.9502 281.416 76.6142 280.52C76.2969 279.624 76.1382 278.691 76.1382 277.72C76.1382 276.693 76.2969 275.723 76.6142 274.808C76.9502 273.893 77.4169 273.091 78.0142 272.4C78.6302 271.691 79.3489 271.14 80.1702 270.748C80.9916 270.337 81.9062 270.132 82.9142 270.132C84.1276 270.132 85.1822 270.431 86.0782 271.028C86.9929 271.625 87.7582 272.381 88.3742 273.296V270.384H90.5582V284.832C90.5582 286.213 90.2222 287.38 89.5502 288.332C88.8969 289.284 88.0009 290.003 86.8622 290.488C85.7422 290.992 84.4916 291.244 83.1102 291.244C81.4676 291.244 80.1236 290.955 79.0782 290.376C78.0329 289.797 77.1649 289.013 76.4742 288.024L77.9022 286.764C78.4809 287.623 79.2276 288.267 80.1422 288.696C81.0756 289.125 82.0649 289.34 83.1102 289.34C84.0062 289.34 84.8276 289.172 85.5742 288.836C86.3396 288.519 86.9462 288.024 87.3942 287.352C87.8609 286.68 88.0942 285.84 88.0942 284.832V282.256C87.5529 283.152 86.8062 283.861 85.8542 284.384C84.9209 284.907 83.9316 285.168 82.8862 285.168ZM83.6422 283.152C84.1649 283.152 84.6689 283.059 85.1542 282.872C85.6396 282.685 86.0876 282.443 86.4982 282.144C86.9089 281.827 87.2542 281.472 87.5342 281.08C87.8142 280.688 88.0009 280.287 88.0942 279.876V275.676C87.8329 275.004 87.4596 274.416 86.9742 273.912C86.4889 273.389 85.9382 272.988 85.3222 272.708C84.7062 272.409 84.0716 272.26 83.4182 272.26C82.6716 272.26 81.9996 272.419 81.4022 272.736C80.8236 273.053 80.3289 273.483 79.9182 274.024C79.5076 274.547 79.1902 275.135 78.9662 275.788C78.7422 276.441 78.6302 277.104 78.6302 277.776C78.6302 278.504 78.7609 279.195 79.0222 279.848C79.2836 280.483 79.6382 281.052 80.0862 281.556C80.5342 282.06 81.0662 282.452 81.6822 282.732C82.2982 283.012 82.9516 283.152 83.6422 283.152ZM101.003 285.28C99.9015 285.28 98.8935 285.084 97.9789 284.692C97.0829 284.281 96.2989 283.731 95.6269 283.04C94.9735 282.331 94.4602 281.519 94.0869 280.604C93.7322 279.689 93.5549 278.719 93.5549 277.692C93.5549 276.311 93.8722 275.051 94.5069 273.912C95.1415 272.773 96.0189 271.859 97.1389 271.168C98.2775 270.477 99.5749 270.132 101.031 270.132C102.506 270.132 103.784 270.487 104.867 271.196C105.968 271.887 106.818 272.801 107.415 273.94C108.031 275.06 108.339 276.273 108.339 277.58C108.339 277.767 108.33 277.953 108.311 278.14C108.311 278.308 108.302 278.439 108.283 278.532H96.1589C96.2335 279.484 96.4949 280.333 96.9429 281.08C97.4095 281.808 98.0069 282.387 98.7349 282.816C99.4629 283.227 100.247 283.432 101.087 283.432C101.983 283.432 102.823 283.208 103.607 282.76C104.41 282.312 104.96 281.724 105.259 280.996L107.387 281.584C107.07 282.293 106.594 282.928 105.959 283.488C105.343 284.048 104.606 284.487 103.747 284.804C102.907 285.121 101.992 285.28 101.003 285.28ZM96.0749 276.824H106.043C105.968 275.872 105.698 275.032 105.231 274.304C104.764 273.576 104.167 273.007 103.439 272.596C102.711 272.185 101.908 271.98 101.031 271.98C100.172 271.98 99.3789 272.185 98.6509 272.596C97.9229 273.007 97.3255 273.576 96.8589 274.304C96.4109 275.032 96.1495 275.872 96.0749 276.824ZM118.16 285V270.384H120.624V285H118.16ZM118.16 267.64V264.56H120.624V267.64H118.16ZM129.625 285.28C128.412 285.28 127.273 285.084 126.209 284.692C125.145 284.281 124.23 283.675 123.465 282.872L124.417 281.136C125.257 281.92 126.097 282.48 126.937 282.816C127.777 283.152 128.636 283.32 129.513 283.32C130.521 283.32 131.342 283.133 131.977 282.76C132.612 282.368 132.929 281.799 132.929 281.052C132.929 280.511 132.761 280.109 132.425 279.848C132.108 279.587 131.65 279.372 131.053 279.204C130.456 279.017 129.746 278.812 128.925 278.588C127.917 278.289 127.068 277.972 126.377 277.636C125.686 277.3 125.164 276.88 124.809 276.376C124.454 275.872 124.277 275.237 124.277 274.472C124.277 273.539 124.52 272.755 125.005 272.12C125.49 271.467 126.153 270.972 126.993 270.636C127.852 270.3 128.822 270.132 129.905 270.132C130.988 270.132 131.968 270.3 132.845 270.636C133.722 270.972 134.478 271.467 135.113 272.12L133.993 273.828C133.414 273.231 132.78 272.792 132.089 272.512C131.398 272.213 130.624 272.064 129.765 272.064C129.261 272.064 128.766 272.129 128.281 272.26C127.796 272.372 127.394 272.587 127.077 272.904C126.76 273.203 126.601 273.632 126.601 274.192C126.601 274.659 126.722 275.032 126.965 275.312C127.226 275.573 127.6 275.797 128.085 275.984C128.589 276.171 129.196 276.376 129.905 276.6C131.006 276.917 131.958 277.235 132.761 277.552C133.582 277.869 134.217 278.28 134.665 278.784C135.113 279.288 135.337 279.988 135.337 280.884C135.337 282.265 134.814 283.348 133.769 284.132C132.724 284.897 131.342 285.28 129.625 285.28ZM144.219 280.772C144.219 279.839 144.48 279.036 145.003 278.364C145.544 277.673 146.282 277.141 147.215 276.768C148.148 276.395 149.231 276.208 150.463 276.208C151.116 276.208 151.807 276.264 152.535 276.376C153.263 276.469 153.907 276.619 154.467 276.824V275.76C154.467 274.64 154.131 273.763 153.459 273.128C152.787 272.475 151.835 272.148 150.603 272.148C149.8 272.148 149.026 272.297 148.279 272.596C147.551 272.876 146.776 273.287 145.955 273.828L145.059 272.092C146.011 271.439 146.963 270.953 147.915 270.636C148.867 270.3 149.856 270.132 150.883 270.132C152.75 270.132 154.224 270.655 155.307 271.7C156.39 272.727 156.931 274.164 156.931 276.012V282.2C156.931 282.499 156.987 282.723 157.099 282.872C157.23 283.003 157.435 283.077 157.715 283.096V285C157.472 285.037 157.258 285.065 157.071 285.084C156.903 285.103 156.763 285.112 156.651 285.112C156.072 285.112 155.634 284.953 155.335 284.636C155.055 284.319 154.896 283.983 154.859 283.628L154.803 282.704C154.168 283.525 153.338 284.16 152.311 284.608C151.284 285.056 150.267 285.28 149.259 285.28C148.288 285.28 147.42 285.084 146.655 284.692C145.89 284.281 145.292 283.74 144.863 283.068C144.434 282.377 144.219 281.612 144.219 280.772ZM153.739 281.808C153.963 281.547 154.14 281.285 154.271 281.024C154.402 280.744 154.467 280.511 154.467 280.324V278.504C153.888 278.28 153.282 278.112 152.647 278C152.012 277.869 151.387 277.804 150.771 277.804C149.52 277.804 148.503 278.056 147.719 278.56C146.954 279.045 146.571 279.717 146.571 280.576C146.571 281.043 146.692 281.5 146.935 281.948C147.196 282.377 147.57 282.732 148.055 283.012C148.559 283.292 149.175 283.432 149.903 283.432C150.668 283.432 151.396 283.283 152.087 282.984C152.778 282.667 153.328 282.275 153.739 281.808ZM189.989 285H187.525V276.824C187.525 275.293 187.273 274.164 186.769 273.436C186.284 272.708 185.556 272.344 184.585 272.344C183.596 272.344 182.7 272.708 181.897 273.436C181.094 274.145 180.525 275.069 180.189 276.208V285H177.725V276.824C177.725 275.275 177.482 274.145 176.997 273.436C176.512 272.708 175.784 272.344 174.813 272.344C173.842 272.344 172.946 272.699 172.125 273.408C171.322 274.099 170.753 275.023 170.417 276.18V285H167.953V270.384H170.193V273.52C170.79 272.437 171.565 271.607 172.517 271.028C173.469 270.431 174.542 270.132 175.737 270.132C176.95 270.132 177.921 270.468 178.649 271.14C179.377 271.793 179.825 272.643 179.993 273.688C180.646 272.531 181.44 271.653 182.373 271.056C183.306 270.44 184.37 270.132 185.565 270.132C186.405 270.132 187.105 270.291 187.665 270.608C188.244 270.907 188.701 271.336 189.037 271.896C189.373 272.437 189.616 273.081 189.765 273.828C189.914 274.575 189.989 275.387 189.989 276.264V285ZM200.204 285.28C199.103 285.28 198.104 285.084 197.208 284.692C196.312 284.281 195.537 283.731 194.884 283.04C194.231 282.331 193.727 281.519 193.372 280.604C193.017 279.689 192.84 278.728 192.84 277.72C192.84 276.693 193.017 275.723 193.372 274.808C193.727 273.893 194.231 273.091 194.884 272.4C195.537 271.691 196.312 271.14 197.208 270.748C198.123 270.337 199.121 270.132 200.204 270.132C201.305 270.132 202.304 270.337 203.2 270.748C204.096 271.14 204.871 271.691 205.524 272.4C206.196 273.091 206.709 273.893 207.064 274.808C207.419 275.723 207.596 276.693 207.596 277.72C207.596 278.728 207.419 279.689 207.064 280.604C206.709 281.519 206.205 282.331 205.552 283.04C204.899 283.731 204.115 284.281 203.2 284.692C202.304 285.084 201.305 285.28 200.204 285.28ZM195.36 277.748C195.36 278.756 195.575 279.671 196.004 280.492C196.452 281.313 197.04 281.967 197.768 282.452C198.496 282.919 199.308 283.152 200.204 283.152C201.1 283.152 201.912 282.909 202.64 282.424C203.387 281.939 203.975 281.285 204.404 280.464C204.852 279.624 205.076 278.7 205.076 277.692C205.076 276.684 204.852 275.769 204.404 274.948C203.975 274.127 203.387 273.473 202.64 272.988C201.912 272.503 201.1 272.26 200.204 272.26C199.308 272.26 198.496 272.512 197.768 273.016C197.04 273.501 196.452 274.155 196.004 274.976C195.575 275.797 195.36 276.721 195.36 277.748ZM218.086 285.28C216.947 285.28 215.911 285 214.978 284.44C214.044 283.88 213.307 283.152 212.766 282.256V285H210.582V264.56H213.046V273.296C213.662 272.344 214.418 271.579 215.314 271C216.21 270.421 217.255 270.132 218.45 270.132C219.458 270.132 220.363 270.347 221.166 270.776C221.968 271.187 222.65 271.756 223.21 272.484C223.788 273.193 224.227 274.005 224.526 274.92C224.843 275.816 225.002 276.759 225.002 277.748C225.002 278.775 224.824 279.745 224.47 280.66C224.134 281.556 223.648 282.359 223.014 283.068C222.379 283.759 221.642 284.3 220.802 284.692C219.98 285.084 219.075 285.28 218.086 285.28ZM217.47 283.152C218.198 283.152 218.87 283.003 219.486 282.704C220.102 282.405 220.634 282.004 221.082 281.5C221.53 280.996 221.875 280.417 222.118 279.764C222.36 279.111 222.482 278.439 222.482 277.748C222.482 276.796 222.276 275.9 221.866 275.06C221.474 274.22 220.914 273.548 220.186 273.044C219.476 272.521 218.646 272.26 217.694 272.26C217.003 272.26 216.359 272.419 215.762 272.736C215.164 273.053 214.632 273.473 214.166 273.996C213.718 274.5 213.344 275.06 213.046 275.676V279.904C213.139 280.371 213.335 280.8 213.634 281.192C213.932 281.584 214.296 281.929 214.726 282.228C215.155 282.508 215.603 282.732 216.07 282.9C216.555 283.068 217.022 283.152 217.47 283.152ZM228.027 285V270.384H230.491V285H228.027ZM228.027 267.64V264.56H230.491V267.64H228.027ZM234.536 264.56H237V281.22C237 282.023 237.112 282.517 237.336 282.704C237.56 282.891 237.831 282.984 238.148 282.984C238.54 282.984 238.914 282.947 239.268 282.872C239.623 282.779 239.922 282.685 240.164 282.592L240.556 284.608C240.146 284.776 239.66 284.916 239.1 285.028C238.54 285.14 238.046 285.196 237.616 285.196C236.664 285.196 235.908 284.925 235.348 284.384C234.807 283.843 234.536 283.087 234.536 282.116V264.56ZM242.492 285V270.384H244.956V285H242.492ZM242.492 267.64V264.56H244.956V267.64H242.492ZM256.505 284.272C256.3 284.365 256.02 284.487 255.665 284.636C255.31 284.785 254.9 284.916 254.433 285.028C253.966 285.14 253.472 285.196 252.949 285.196C252.352 285.196 251.801 285.093 251.297 284.888C250.793 284.664 250.392 284.328 250.093 283.88C249.794 283.413 249.645 282.835 249.645 282.144V272.316H247.657V270.384H249.645V265.512H252.109V270.384H255.385V272.316H252.109V281.388C252.146 281.911 252.324 282.303 252.641 282.564C252.958 282.807 253.332 282.928 253.761 282.928C254.246 282.928 254.694 282.844 255.105 282.676C255.516 282.508 255.786 282.387 255.917 282.312L256.505 284.272ZM259.461 288.976C259.703 288.995 259.946 289.013 260.189 289.032C260.431 289.069 260.618 289.088 260.749 289.088C261.047 289.088 261.309 288.985 261.533 288.78C261.757 288.575 261.999 288.173 262.261 287.576C262.541 286.997 262.895 286.139 263.325 285L257.137 270.384H259.741L264.669 282.508L269.121 270.384H271.557L264.445 288.836C264.277 289.265 264.025 289.667 263.689 290.04C263.371 290.432 262.961 290.74 262.457 290.964C261.953 291.188 261.346 291.3 260.637 291.3C260.469 291.3 260.291 291.291 260.105 291.272C259.937 291.253 259.722 291.216 259.461 291.16V288.976ZM297.882 270.384H300.262L294.046 285H291.89L289.062 278.112L286.262 285H284.106L277.89 270.384H280.242L285.282 282.564L287.634 276.572L285.17 270.412H287.326L289.062 275.06L290.798 270.412H292.954L290.518 276.572L292.87 282.564L297.882 270.384ZM308.458 285.28C307.357 285.28 306.358 285.084 305.462 284.692C304.566 284.281 303.791 283.731 303.138 283.04C302.485 282.331 301.981 281.519 301.626 280.604C301.271 279.689 301.094 278.728 301.094 277.72C301.094 276.693 301.271 275.723 301.626 274.808C301.981 273.893 302.485 273.091 303.138 272.4C303.791 271.691 304.566 271.14 305.462 270.748C306.377 270.337 307.375 270.132 308.458 270.132C309.559 270.132 310.558 270.337 311.454 270.748C312.35 271.14 313.125 271.691 313.778 272.4C314.45 273.091 314.963 273.893 315.318 274.808C315.673 275.723 315.85 276.693 315.85 277.72C315.85 278.728 315.673 279.689 315.318 280.604C314.963 281.519 314.459 282.331 313.806 283.04C313.153 283.731 312.369 284.281 311.454 284.692C310.558 285.084 309.559 285.28 308.458 285.28ZM303.614 277.748C303.614 278.756 303.829 279.671 304.258 280.492C304.706 281.313 305.294 281.967 306.022 282.452C306.75 282.919 307.562 283.152 308.458 283.152C309.354 283.152 310.166 282.909 310.894 282.424C311.641 281.939 312.229 281.285 312.658 280.464C313.106 279.624 313.33 278.7 313.33 277.692C313.33 276.684 313.106 275.769 312.658 274.948C312.229 274.127 311.641 273.473 310.894 272.988C310.166 272.503 309.354 272.26 308.458 272.26C307.562 272.26 306.75 272.512 306.022 273.016C305.294 273.501 304.706 274.155 304.258 274.976C303.829 275.797 303.614 276.721 303.614 277.748ZM326.564 272.54C325.332 272.559 324.24 272.876 323.288 273.492C322.354 274.089 321.692 274.92 321.3 275.984V285H318.836V270.384H321.132V273.772C321.636 272.764 322.298 271.952 323.12 271.336C323.96 270.701 324.837 270.347 325.752 270.272C325.938 270.272 326.097 270.272 326.228 270.272C326.358 270.272 326.47 270.281 326.564 270.3V272.54ZM339.312 285L334.244 277.888L331.472 280.492V285H329.008V264.56H331.472V277.916L339.032 270.412H341.692L335.868 276.46L341.972 285H339.312ZM349.113 285.28C347.9 285.28 346.761 285.084 345.697 284.692C344.633 284.281 343.719 283.675 342.953 282.872L343.905 281.136C344.745 281.92 345.585 282.48 346.425 282.816C347.265 283.152 348.124 283.32 349.001 283.32C350.009 283.32 350.831 283.133 351.465 282.76C352.1 282.368 352.417 281.799 352.417 281.052C352.417 280.511 352.249 280.109 351.913 279.848C351.596 279.587 351.139 279.372 350.541 279.204C349.944 279.017 349.235 278.812 348.413 278.588C347.405 278.289 346.556 277.972 345.865 277.636C345.175 277.3 344.652 276.88 344.297 276.376C343.943 275.872 343.765 275.237 343.765 274.472C343.765 273.539 344.008 272.755 344.493 272.12C344.979 271.467 345.641 270.972 346.481 270.636C347.34 270.3 348.311 270.132 349.393 270.132C350.476 270.132 351.456 270.3 352.333 270.636C353.211 270.972 353.967 271.467 354.601 272.12L353.481 273.828C352.903 273.231 352.268 272.792 351.577 272.512C350.887 272.213 350.112 272.064 349.253 272.064C348.749 272.064 348.255 272.129 347.769 272.26C347.284 272.372 346.883 272.587 346.565 272.904C346.248 273.203 346.089 273.632 346.089 274.192C346.089 274.659 346.211 275.032 346.453 275.312C346.715 275.573 347.088 275.797 347.573 275.984C348.077 276.171 348.684 276.376 349.393 276.6C350.495 276.917 351.447 277.235 352.249 277.552C353.071 277.869 353.705 278.28 354.153 278.784C354.601 279.288 354.825 279.988 354.825 280.884C354.825 282.265 354.303 283.348 353.257 284.132C352.212 284.897 350.831 285.28 349.113 285.28ZM370.457 285H367.993V276.824C367.993 275.331 367.722 274.211 367.181 273.464C366.658 272.717 365.902 272.344 364.913 272.344C364.278 272.344 363.634 272.512 362.981 272.848C362.346 273.184 361.786 273.641 361.301 274.22C360.816 274.78 360.461 275.433 360.237 276.18V285H357.773V264.56H360.237V273.52C360.816 272.475 361.6 271.653 362.589 271.056C363.597 270.44 364.68 270.132 365.837 270.132C366.714 270.132 367.442 270.291 368.021 270.608C368.618 270.907 369.094 271.336 369.449 271.896C369.804 272.456 370.056 273.109 370.205 273.856C370.373 274.584 370.457 275.387 370.457 276.264V285ZM380.673 285.28C379.571 285.28 378.573 285.084 377.677 284.692C376.781 284.281 376.006 283.731 375.353 283.04C374.699 282.331 374.195 281.519 373.841 280.604C373.486 279.689 373.309 278.728 373.309 277.72C373.309 276.693 373.486 275.723 373.841 274.808C374.195 273.893 374.699 273.091 375.353 272.4C376.006 271.691 376.781 271.14 377.677 270.748C378.591 270.337 379.59 270.132 380.673 270.132C381.774 270.132 382.773 270.337 383.669 270.748C384.565 271.14 385.339 271.691 385.993 272.4C386.665 273.091 387.178 273.893 387.533 274.808C387.887 275.723 388.065 276.693 388.065 277.72C388.065 278.728 387.887 279.689 387.533 280.604C387.178 281.519 386.674 282.331 386.021 283.04C385.367 283.731 384.583 284.281 383.669 284.692C382.773 285.084 381.774 285.28 380.673 285.28ZM375.829 277.748C375.829 278.756 376.043 279.671 376.473 280.492C376.921 281.313 377.509 281.967 378.237 282.452C378.965 282.919 379.777 283.152 380.673 283.152C381.569 283.152 382.381 282.909 383.109 282.424C383.855 281.939 384.443 281.285 384.873 280.464C385.321 279.624 385.545 278.7 385.545 277.692C385.545 276.684 385.321 275.769 384.873 274.948C384.443 274.127 383.855 273.473 383.109 272.988C382.381 272.503 381.569 272.26 380.673 272.26C379.777 272.26 378.965 272.512 378.237 273.016C377.509 273.501 376.921 274.155 376.473 274.976C376.043 275.797 375.829 276.721 375.829 277.748ZM398.919 285.28C397.724 285.28 396.66 284.981 395.727 284.384C394.793 283.787 394.056 283.031 393.515 282.116V290.964H391.051V270.384H393.235V273.128C393.813 272.232 394.569 271.513 395.503 270.972C396.436 270.412 397.453 270.132 398.555 270.132C399.563 270.132 400.487 270.337 401.327 270.748C402.167 271.159 402.895 271.719 403.511 272.428C404.127 273.137 404.603 273.949 404.939 274.864C405.293 275.76 405.471 276.703 405.471 277.692C405.471 279.073 405.191 280.343 404.631 281.5C404.089 282.657 403.324 283.581 402.335 284.272C401.345 284.944 400.207 285.28 398.919 285.28ZM398.163 283.152C398.891 283.152 399.544 283.003 400.123 282.704C400.72 282.387 401.224 281.976 401.635 281.472C402.064 280.949 402.391 280.361 402.615 279.708C402.839 279.055 402.951 278.383 402.951 277.692C402.951 276.964 402.82 276.273 402.559 275.62C402.316 274.967 401.961 274.388 401.495 273.884C401.047 273.38 400.515 272.988 399.899 272.708C399.301 272.409 398.648 272.26 397.939 272.26C397.491 272.26 397.024 272.344 396.539 272.512C396.072 272.68 395.624 272.923 395.195 273.24C394.765 273.539 394.401 273.884 394.103 274.276C393.804 274.668 393.608 275.088 393.515 275.536V279.708C393.795 280.343 394.168 280.921 394.635 281.444C395.101 281.967 395.643 282.387 396.258 282.704C396.875 283.003 397.509 283.152 398.163 283.152ZM423.082 285.28C421.943 285.28 420.907 285 419.974 284.44C419.041 283.88 418.303 283.152 417.762 282.256V285H415.578V264.56H418.042V273.296C418.658 272.344 419.414 271.579 420.31 271C421.206 270.421 422.251 270.132 423.446 270.132C424.454 270.132 425.359 270.347 426.162 270.776C426.965 271.187 427.646 271.756 428.206 272.484C428.785 273.193 429.223 274.005 429.522 274.92C429.839 275.816 429.998 276.759 429.998 277.748C429.998 278.775 429.821 279.745 429.466 280.66C429.13 281.556 428.645 282.359 428.01 283.068C427.375 283.759 426.638 284.3 425.798 284.692C424.977 285.084 424.071 285.28 423.082 285.28ZM422.466 283.152C423.194 283.152 423.866 283.003 424.482 282.704C425.098 282.405 425.63 282.004 426.078 281.5C426.526 280.996 426.871 280.417 427.114 279.764C427.357 279.111 427.478 278.439 427.478 277.748C427.478 276.796 427.273 275.9 426.862 275.06C426.47 274.22 425.91 273.548 425.182 273.044C424.473 272.521 423.642 272.26 422.69 272.26C421.999 272.26 421.355 272.419 420.758 272.736C420.161 273.053 419.629 273.473 419.162 273.996C418.714 274.5 418.341 275.06 418.042 275.676V279.904C418.135 280.371 418.331 280.8 418.63 281.192C418.929 281.584 419.293 281.929 419.722 282.228C420.151 282.508 420.599 282.732 421.066 282.9C421.551 283.068 422.018 283.152 422.466 283.152ZM431.875 280.772C431.875 279.839 432.136 279.036 432.659 278.364C433.2 277.673 433.938 277.141 434.871 276.768C435.804 276.395 436.887 276.208 438.119 276.208C438.772 276.208 439.463 276.264 440.191 276.376C440.919 276.469 441.563 276.619 442.123 276.824V275.76C442.123 274.64 441.787 273.763 441.115 273.128C440.443 272.475 439.491 272.148 438.259 272.148C437.456 272.148 436.682 272.297 435.935 272.596C435.207 272.876 434.432 273.287 433.611 273.828L432.715 272.092C433.667 271.439 434.619 270.953 435.571 270.636C436.523 270.3 437.512 270.132 438.539 270.132C440.406 270.132 441.88 270.655 442.963 271.7C444.046 272.727 444.587 274.164 444.587 276.012V282.2C444.587 282.499 444.643 282.723 444.755 282.872C444.886 283.003 445.091 283.077 445.371 283.096V285C445.128 285.037 444.914 285.065 444.727 285.084C444.559 285.103 444.419 285.112 444.307 285.112C443.728 285.112 443.29 284.953 442.991 284.636C442.711 284.319 442.552 283.983 442.515 283.628L442.459 282.704C441.824 283.525 440.994 284.16 439.967 284.608C438.94 285.056 437.923 285.28 436.915 285.28C435.944 285.28 435.076 285.084 434.311 284.692C433.546 284.281 432.948 283.74 432.519 283.068C432.09 282.377 431.875 281.612 431.875 280.772ZM441.395 281.808C441.619 281.547 441.796 281.285 441.927 281.024C442.058 280.744 442.123 280.511 442.123 280.324V278.504C441.544 278.28 440.938 278.112 440.303 278C439.668 277.869 439.043 277.804 438.427 277.804C437.176 277.804 436.159 278.056 435.375 278.56C434.61 279.045 434.227 279.717 434.227 280.576C434.227 281.043 434.348 281.5 434.591 281.948C434.852 282.377 435.226 282.732 435.711 283.012C436.215 283.292 436.831 283.432 437.559 283.432C438.324 283.432 439.052 283.283 439.743 282.984C440.434 282.667 440.984 282.275 441.395 281.808ZM453.539 285.28C452.326 285.28 451.187 285.084 450.123 284.692C449.059 284.281 448.144 283.675 447.379 282.872L448.331 281.136C449.171 281.92 450.011 282.48 450.851 282.816C451.691 283.152 452.55 283.32 453.427 283.32C454.435 283.32 455.256 283.133 455.891 282.76C456.526 282.368 456.843 281.799 456.843 281.052C456.843 280.511 456.675 280.109 456.339 279.848C456.022 279.587 455.564 279.372 454.967 279.204C454.37 279.017 453.66 278.812 452.839 278.588C451.831 278.289 450.982 277.972 450.291 277.636C449.6 277.3 449.078 276.88 448.723 276.376C448.368 275.872 448.191 275.237 448.191 274.472C448.191 273.539 448.434 272.755 448.919 272.12C449.404 271.467 450.067 270.972 450.907 270.636C451.766 270.3 452.736 270.132 453.819 270.132C454.902 270.132 455.882 270.3 456.759 270.636C457.636 270.972 458.392 271.467 459.027 272.12L457.907 273.828C457.328 273.231 456.694 272.792 456.003 272.512C455.312 272.213 454.538 272.064 453.679 272.064C453.175 272.064 452.68 272.129 452.195 272.26C451.71 272.372 451.308 272.587 450.991 272.904C450.674 273.203 450.515 273.632 450.515 274.192C450.515 274.659 450.636 275.032 450.879 275.312C451.14 275.573 451.514 275.797 451.999 275.984C452.503 276.171 453.11 276.376 453.819 276.6C454.92 276.917 455.872 277.235 456.675 277.552C457.496 277.869 458.131 278.28 458.579 278.784C459.027 279.288 459.251 279.988 459.251 280.884C459.251 282.265 458.728 283.348 457.683 284.132C456.638 284.897 455.256 285.28 453.539 285.28ZM468.667 285.28C467.566 285.28 466.558 285.084 465.643 284.692C464.747 284.281 463.963 283.731 463.291 283.04C462.638 282.331 462.124 281.519 461.751 280.604C461.396 279.689 461.219 278.719 461.219 277.692C461.219 276.311 461.536 275.051 462.171 273.912C462.806 272.773 463.683 271.859 464.803 271.168C465.942 270.477 467.239 270.132 468.695 270.132C470.17 270.132 471.448 270.487 472.531 271.196C473.632 271.887 474.482 272.801 475.079 273.94C475.695 275.06 476.003 276.273 476.003 277.58C476.003 277.767 475.994 277.953 475.975 278.14C475.975 278.308 475.966 278.439 475.947 278.532H463.823C463.898 279.484 464.159 280.333 464.607 281.08C465.074 281.808 465.671 282.387 466.399 282.816C467.127 283.227 467.911 283.432 468.751 283.432C469.647 283.432 470.487 283.208 471.271 282.76C472.074 282.312 472.624 281.724 472.923 280.996L475.051 281.584C474.734 282.293 474.258 282.928 473.623 283.488C473.007 284.048 472.27 284.487 471.411 284.804C470.571 285.121 469.656 285.28 468.667 285.28ZM463.739 276.824H473.707C473.632 275.872 473.362 275.032 472.895 274.304C472.428 273.576 471.831 273.007 471.103 272.596C470.375 272.185 469.572 271.98 468.695 271.98C467.836 271.98 467.043 272.185 466.315 272.596C465.587 273.007 464.99 273.576 464.523 274.304C464.075 275.032 463.814 275.872 463.739 276.824ZM477.79 277.72C477.79 276.339 478.07 275.079 478.63 273.94C479.209 272.783 479.993 271.859 480.982 271.168C481.99 270.477 483.138 270.132 484.426 270.132C485.602 270.132 486.657 270.44 487.59 271.056C488.523 271.672 489.251 272.419 489.774 273.296V264.56H492.238V282.2C492.238 282.499 492.294 282.723 492.406 282.872C492.537 283.003 492.742 283.077 493.022 283.096V285C492.555 285.075 492.191 285.112 491.93 285.112C491.445 285.112 491.015 284.944 490.642 284.608C490.287 284.272 490.11 283.899 490.11 283.488V282.256C489.531 283.189 488.757 283.927 487.786 284.468C486.815 285.009 485.807 285.28 484.762 285.28C483.754 285.28 482.821 285.084 481.962 284.692C481.122 284.281 480.385 283.721 479.75 283.012C479.134 282.303 478.649 281.5 478.294 280.604C477.958 279.689 477.79 278.728 477.79 277.72ZM489.774 279.876V275.676C489.55 275.041 489.186 274.472 488.682 273.968C488.178 273.445 487.609 273.035 486.974 272.736C486.358 272.419 485.742 272.26 485.126 272.26C484.398 272.26 483.735 272.419 483.138 272.736C482.559 273.035 482.055 273.445 481.626 273.968C481.215 274.472 480.898 275.051 480.674 275.704C480.45 276.357 480.338 277.039 480.338 277.748C480.338 278.476 480.459 279.167 480.702 279.82C480.963 280.473 481.318 281.052 481.766 281.556C482.233 282.06 482.765 282.452 483.362 282.732C483.978 283.012 484.641 283.152 485.35 283.152C485.798 283.152 486.255 283.068 486.722 282.9C487.207 282.732 487.665 282.499 488.094 282.2C488.523 281.901 488.887 281.556 489.186 281.164C489.485 280.753 489.681 280.324 489.774 279.876ZM503.433 285V270.384H505.897V285H503.433ZM503.433 267.64V264.56H505.897V267.64H503.433ZM522.57 285H520.106V276.824C520.106 275.275 519.864 274.145 519.378 273.436C518.912 272.708 518.193 272.344 517.222 272.344C516.55 272.344 515.878 272.512 515.206 272.848C514.553 273.184 513.965 273.641 513.442 274.22C512.938 274.78 512.574 275.433 512.35 276.18V285H509.886V270.384H512.126V273.52C512.518 272.829 513.022 272.232 513.638 271.728C514.254 271.224 514.954 270.832 515.738 270.552C516.522 270.272 517.344 270.132 518.202 270.132C519.042 270.132 519.742 270.291 520.302 270.608C520.881 270.907 521.329 271.336 521.646 271.896C521.982 272.437 522.216 273.081 522.346 273.828C522.496 274.575 522.57 275.387 522.57 276.264V285ZM21.3 303.384H23.68L17.464 318H15.308L12.48 311.112L9.68 318H7.524L1.308 303.384H3.66L8.7 315.564L11.052 309.572L8.588 303.412H10.744L12.48 308.06L14.216 303.412H16.372L13.936 309.572L16.288 315.564L21.3 303.384ZM38.6681 318H36.2041V309.824C36.2041 308.331 35.9334 307.211 35.3921 306.464C34.8694 305.717 34.1134 305.344 33.1241 305.344C32.4894 305.344 31.8454 305.512 31.1921 305.848C30.5574 306.184 29.9974 306.641 29.5121 307.22C29.0268 307.78 28.6721 308.433 28.4481 309.18V318H25.9841V297.56H28.4481V306.52C29.0268 305.475 29.8108 304.653 30.8001 304.056C31.8081 303.44 32.8908 303.132 34.0481 303.132C34.9254 303.132 35.6534 303.291 36.2321 303.608C36.8294 303.907 37.3054 304.336 37.6601 304.896C38.0148 305.456 38.2668 306.109 38.4161 306.856C38.5841 307.584 38.6681 308.387 38.6681 309.264V318ZM48.9677 318.28C47.8664 318.28 46.8584 318.084 45.9437 317.692C45.0477 317.281 44.2637 316.731 43.5917 316.04C42.9384 315.331 42.4251 314.519 42.0517 313.604C41.6971 312.689 41.5197 311.719 41.5197 310.692C41.5197 309.311 41.8371 308.051 42.4717 306.912C43.1064 305.773 43.9837 304.859 45.1037 304.168C46.2424 303.477 47.5397 303.132 48.9957 303.132C50.4704 303.132 51.7491 303.487 52.8317 304.196C53.9331 304.887 54.7824 305.801 55.3797 306.94C55.9957 308.06 56.3037 309.273 56.3037 310.58C56.3037 310.767 56.2944 310.953 56.2757 311.14C56.2757 311.308 56.2664 311.439 56.2477 311.532H44.1237C44.1984 312.484 44.4597 313.333 44.9077 314.08C45.3744 314.808 45.9717 315.387 46.6997 315.816C47.4277 316.227 48.2117 316.432 49.0517 316.432C49.9477 316.432 50.7877 316.208 51.5717 315.76C52.3744 315.312 52.9251 314.724 53.2237 313.996L55.3517 314.584C55.0344 315.293 54.5584 315.928 53.9237 316.488C53.3077 317.048 52.5704 317.487 51.7117 317.804C50.8717 318.121 49.9571 318.28 48.9677 318.28ZM44.0397 309.824H54.0077C53.9331 308.872 53.6624 308.032 53.1957 307.304C52.7291 306.576 52.1317 306.007 51.4037 305.596C50.6757 305.185 49.8731 304.98 48.9957 304.98C48.1371 304.98 47.3437 305.185 46.6157 305.596C45.8877 306.007 45.2904 306.576 44.8237 307.304C44.3757 308.032 44.1144 308.872 44.0397 309.824ZM66.7707 305.54C65.5387 305.559 64.4467 305.876 63.4947 306.492C62.5614 307.089 61.8987 307.92 61.5067 308.984V318H59.0427V303.384H61.3387V306.772C61.8427 305.764 62.5054 304.952 63.3267 304.336C64.1667 303.701 65.044 303.347 65.9587 303.272C66.1454 303.272 66.304 303.272 66.4347 303.272C66.5654 303.272 66.6774 303.281 66.7707 303.3V305.54ZM75.3271 318.28C74.2258 318.28 73.2178 318.084 72.3031 317.692C71.4071 317.281 70.6231 316.731 69.9511 316.04C69.2978 315.331 68.7844 314.519 68.4111 313.604C68.0564 312.689 67.8791 311.719 67.8791 310.692C67.8791 309.311 68.1964 308.051 68.8311 306.912C69.4658 305.773 70.3431 304.859 71.4631 304.168C72.6018 303.477 73.8991 303.132 75.3551 303.132C76.8298 303.132 78.1084 303.487 79.1911 304.196C80.2924 304.887 81.1418 305.801 81.7391 306.94C82.3551 308.06 82.6631 309.273 82.6631 310.58C82.6631 310.767 82.6538 310.953 82.6351 311.14C82.6351 311.308 82.6258 311.439 82.6071 311.532H70.4831C70.5578 312.484 70.8191 313.333 71.2671 314.08C71.7338 314.808 72.3311 315.387 73.0591 315.816C73.7871 316.227 74.5711 316.432 75.4111 316.432C76.3071 316.432 77.1471 316.208 77.9311 315.76C78.7338 315.312 79.2844 314.724 79.5831 313.996L81.7111 314.584C81.3938 315.293 80.9178 315.928 80.2831 316.488C79.6671 317.048 78.9298 317.487 78.0711 317.804C77.2311 318.121 76.3164 318.28 75.3271 318.28ZM70.3991 309.824H80.3671C80.2924 308.872 80.0218 308.032 79.5551 307.304C79.0884 306.576 78.4911 306.007 77.7631 305.596C77.0351 305.185 76.2324 304.98 75.3551 304.98C74.4964 304.98 73.7031 305.185 72.9751 305.596C72.2471 306.007 71.6498 306.576 71.1831 307.304C70.7351 308.032 70.4738 308.872 70.3991 309.824ZM91.3361 313.772C91.3361 312.839 91.5974 312.036 92.1201 311.364C92.6614 310.673 93.3988 310.141 94.3321 309.768C95.2654 309.395 96.3481 309.208 97.5801 309.208C98.2334 309.208 98.9241 309.264 99.6521 309.376C100.38 309.469 101.024 309.619 101.584 309.824V308.76C101.584 307.64 101.248 306.763 100.576 306.128C99.9041 305.475 98.9521 305.148 97.7201 305.148C96.9174 305.148 96.1428 305.297 95.3961 305.596C94.6681 305.876 93.8934 306.287 93.0721 306.828L92.1761 305.092C93.1281 304.439 94.0801 303.953 95.0321 303.636C95.9841 303.3 96.9734 303.132 98.0001 303.132C99.8668 303.132 101.341 303.655 102.424 304.7C103.507 305.727 104.048 307.164 104.048 309.012V315.2C104.048 315.499 104.104 315.723 104.216 315.872C104.347 316.003 104.552 316.077 104.832 316.096V318C104.589 318.037 104.375 318.065 104.188 318.084C104.02 318.103 103.88 318.112 103.768 318.112C103.189 318.112 102.751 317.953 102.452 317.636C102.172 317.319 102.013 316.983 101.976 316.628L101.92 315.704C101.285 316.525 100.455 317.16 99.4281 317.608C98.4014 318.056 97.3841 318.28 96.3761 318.28C95.4054 318.28 94.5374 318.084 93.7721 317.692C93.0068 317.281 92.4094 316.74 91.9801 316.068C91.5508 315.377 91.3361 314.612 91.3361 313.772ZM100.856 314.808C101.08 314.547 101.257 314.285 101.388 314.024C101.519 313.744 101.584 313.511 101.584 313.324V311.504C101.005 311.28 100.399 311.112 99.7641 311C99.1294 310.869 98.5041 310.804 97.8881 310.804C96.6374 310.804 95.6201 311.056 94.8361 311.56C94.0708 312.045 93.6881 312.717 93.6881 313.576C93.6881 314.043 93.8094 314.5 94.0521 314.948C94.3134 315.377 94.6868 315.732 95.1721 316.012C95.6761 316.292 96.2921 316.432 97.0201 316.432C97.7854 316.432 98.5134 316.283 99.2041 315.984C99.8948 315.667 100.445 315.275 100.856 314.808ZM108.044 297.56H110.508V314.22C110.508 315.023 110.62 315.517 110.844 315.704C111.068 315.891 111.339 315.984 111.656 315.984C112.048 315.984 112.421 315.947 112.776 315.872C113.131 315.779 113.429 315.685 113.672 315.592L114.064 317.608C113.653 317.776 113.168 317.916 112.608 318.028C112.048 318.14 111.553 318.196 111.124 318.196C110.172 318.196 109.416 317.925 108.856 317.384C108.315 316.843 108.044 316.087 108.044 315.116V297.56ZM116.056 297.56H118.52V314.22C118.52 315.023 118.632 315.517 118.856 315.704C119.08 315.891 119.35 315.984 119.668 315.984C120.06 315.984 120.433 315.947 120.788 315.872C121.142 315.779 121.441 315.685 121.684 315.592L122.076 317.608C121.665 317.776 121.18 317.916 120.62 318.028C120.06 318.14 119.565 318.196 119.136 318.196C118.184 318.196 117.428 317.925 116.868 317.384C116.326 316.843 116.056 316.087 116.056 315.116V297.56ZM136.63 318.28C135.528 318.28 134.53 318.084 133.634 317.692C132.738 317.281 131.963 316.731 131.31 316.04C130.656 315.331 130.152 314.519 129.798 313.604C129.443 312.689 129.266 311.728 129.266 310.72C129.266 309.693 129.443 308.723 129.798 307.808C130.152 306.893 130.656 306.091 131.31 305.4C131.963 304.691 132.738 304.14 133.634 303.748C134.548 303.337 135.547 303.132 136.63 303.132C137.731 303.132 138.73 303.337 139.626 303.748C140.522 304.14 141.296 304.691 141.95 305.4C142.622 306.091 143.135 306.893 143.49 307.808C143.844 308.723 144.022 309.693 144.022 310.72C144.022 311.728 143.844 312.689 143.49 313.604C143.135 314.519 142.631 315.331 141.978 316.04C141.324 316.731 140.54 317.281 139.626 317.692C138.73 318.084 137.731 318.28 136.63 318.28ZM131.786 310.748C131.786 311.756 132 312.671 132.43 313.492C132.878 314.313 133.466 314.967 134.194 315.452C134.922 315.919 135.734 316.152 136.63 316.152C137.526 316.152 138.338 315.909 139.066 315.424C139.812 314.939 140.4 314.285 140.83 313.464C141.278 312.624 141.502 311.7 141.502 310.692C141.502 309.684 141.278 308.769 140.83 307.948C140.4 307.127 139.812 306.473 139.066 305.988C138.338 305.503 137.526 305.26 136.63 305.26C135.734 305.26 134.922 305.512 134.194 306.016C133.466 306.501 132.878 307.155 132.43 307.976C132 308.797 131.786 309.721 131.786 310.748ZM147.545 318V305.316H145.557V303.384H147.545V303.076C147.545 301.881 147.723 300.855 148.077 299.996C148.451 299.119 148.973 298.447 149.645 297.98C150.317 297.513 151.111 297.28 152.025 297.28C152.604 297.28 153.173 297.364 153.733 297.532C154.293 297.681 154.797 297.896 155.245 298.176L154.629 299.996C154.368 299.809 154.041 299.66 153.649 299.548C153.276 299.436 152.903 299.38 152.529 299.38C151.727 299.38 151.101 299.697 150.653 300.332C150.224 300.948 150.009 301.835 150.009 302.992V303.384H153.901V305.316H150.009V318H147.545ZM162.719 321.976C162.961 321.995 163.204 322.013 163.447 322.032C163.689 322.069 163.876 322.088 164.007 322.088C164.305 322.088 164.567 321.985 164.791 321.78C165.015 321.575 165.257 321.173 165.519 320.576C165.799 319.997 166.153 319.139 166.583 318L160.395 303.384H162.999L167.927 315.508L172.379 303.384H174.815L167.703 321.836C167.535 322.265 167.283 322.667 166.947 323.04C166.629 323.432 166.219 323.74 165.715 323.964C165.211 324.188 164.604 324.3 163.895 324.3C163.727 324.3 163.549 324.291 163.363 324.272C163.195 324.253 162.98 324.216 162.719 324.16V321.976ZM183.169 318.28C182.068 318.28 181.069 318.084 180.173 317.692C179.277 317.281 178.502 316.731 177.849 316.04C177.196 315.331 176.692 314.519 176.337 313.604C175.982 312.689 175.805 311.728 175.805 310.72C175.805 309.693 175.982 308.723 176.337 307.808C176.692 306.893 177.196 306.091 177.849 305.4C178.502 304.691 179.277 304.14 180.173 303.748C181.088 303.337 182.086 303.132 183.169 303.132C184.27 303.132 185.269 303.337 186.165 303.748C187.061 304.14 187.836 304.691 188.489 305.4C189.161 306.091 189.674 306.893 190.029 307.808C190.384 308.723 190.561 309.693 190.561 310.72C190.561 311.728 190.384 312.689 190.029 313.604C189.674 314.519 189.17 315.331 188.517 316.04C187.864 316.731 187.08 317.281 186.165 317.692C185.269 318.084 184.27 318.28 183.169 318.28ZM178.325 310.748C178.325 311.756 178.54 312.671 178.969 313.492C179.417 314.313 180.005 314.967 180.733 315.452C181.461 315.919 182.273 316.152 183.169 316.152C184.065 316.152 184.877 315.909 185.605 315.424C186.352 314.939 186.94 314.285 187.369 313.464C187.817 312.624 188.041 311.7 188.041 310.692C188.041 309.684 187.817 308.769 187.369 307.948C186.94 307.127 186.352 306.473 185.605 305.988C184.877 305.503 184.065 305.26 183.169 305.26C182.273 305.26 181.461 305.512 180.733 306.016C180.005 306.501 179.417 307.155 178.969 307.976C178.54 308.797 178.325 309.721 178.325 310.748ZM193.407 312.148V303.384H195.871V311.672C195.871 313.165 196.132 314.285 196.655 315.032C197.177 315.779 197.952 316.152 198.979 316.152C199.651 316.152 200.295 316.012 200.911 315.732C201.545 315.433 202.115 315.013 202.619 314.472C203.123 313.931 203.515 313.287 203.795 312.54V303.384H206.259V315.2C206.259 315.499 206.315 315.723 206.427 315.872C206.557 316.003 206.763 316.077 207.043 316.096V318C206.763 318.037 206.539 318.056 206.371 318.056C206.221 318.075 206.072 318.084 205.923 318.084C205.456 318.084 205.055 317.944 204.719 317.664C204.383 317.365 204.205 317.001 204.187 316.572L204.131 314.864C203.496 315.947 202.637 316.787 201.555 317.384C200.491 317.981 199.324 318.28 198.055 318.28C196.524 318.28 195.367 317.767 194.583 316.74C193.799 315.695 193.407 314.164 193.407 312.148ZM218.091 305.54C216.859 305.559 215.767 305.876 214.815 306.492C213.882 307.089 213.219 307.92 212.827 308.984V318H210.363V303.384H212.659V306.772C213.163 305.764 213.826 304.952 214.647 304.336C215.487 303.701 216.364 303.347 217.279 303.272C217.466 303.272 217.624 303.272 217.755 303.272C217.886 303.272 217.998 303.281 218.091 303.3V305.54ZM234.689 305.54C233.457 305.559 232.365 305.876 231.413 306.492C230.479 307.089 229.817 307.92 229.425 308.984V318H226.961V303.384H229.257V306.772C229.761 305.764 230.423 304.952 231.245 304.336C232.085 303.701 232.962 303.347 233.877 303.272C234.063 303.272 234.222 303.272 234.353 303.272C234.483 303.272 234.595 303.281 234.689 303.3V305.54ZM237.133 318V303.384H239.597V318H237.133ZM237.133 300.64V297.56H239.597V300.64H237.133ZM242.634 310.72C242.634 309.339 242.914 308.079 243.474 306.94C244.052 305.783 244.836 304.859 245.826 304.168C246.834 303.477 247.982 303.132 249.27 303.132C250.446 303.132 251.5 303.44 252.434 304.056C253.367 304.672 254.095 305.419 254.618 306.296V297.56H257.082V315.2C257.082 315.499 257.138 315.723 257.25 315.872C257.38 316.003 257.586 316.077 257.866 316.096V318C257.399 318.075 257.035 318.112 256.774 318.112C256.288 318.112 255.859 317.944 255.486 317.608C255.131 317.272 254.954 316.899 254.954 316.488V315.256C254.375 316.189 253.6 316.927 252.63 317.468C251.659 318.009 250.651 318.28 249.606 318.28C248.598 318.28 247.664 318.084 246.806 317.692C245.966 317.281 245.228 316.721 244.594 316.012C243.978 315.303 243.492 314.5 243.138 313.604C242.802 312.689 242.634 311.728 242.634 310.72ZM254.618 312.876V308.676C254.394 308.041 254.03 307.472 253.526 306.968C253.022 306.445 252.452 306.035 251.818 305.736C251.202 305.419 250.586 305.26 249.97 305.26C249.242 305.26 248.579 305.419 247.982 305.736C247.403 306.035 246.899 306.445 246.47 306.968C246.059 307.472 245.742 308.051 245.518 308.704C245.294 309.357 245.182 310.039 245.182 310.748C245.182 311.476 245.303 312.167 245.546 312.82C245.807 313.473 246.162 314.052 246.61 314.556C247.076 315.06 247.608 315.452 248.206 315.732C248.822 316.012 249.484 316.152 250.194 316.152C250.642 316.152 251.099 316.068 251.566 315.9C252.051 315.732 252.508 315.499 252.938 315.2C253.367 314.901 253.731 314.556 254.03 314.164C254.328 313.753 254.524 313.324 254.618 312.876ZM267.663 318.28C266.562 318.28 265.554 318.084 264.639 317.692C263.743 317.281 262.959 316.731 262.287 316.04C261.634 315.331 261.12 314.519 260.747 313.604C260.392 312.689 260.215 311.719 260.215 310.692C260.215 309.311 260.532 308.051 261.167 306.912C261.802 305.773 262.679 304.859 263.799 304.168C264.938 303.477 266.235 303.132 267.691 303.132C269.166 303.132 270.444 303.487 271.527 304.196C272.628 304.887 273.478 305.801 274.075 306.94C274.691 308.06 274.999 309.273 274.999 310.58C274.999 310.767 274.99 310.953 274.971 311.14C274.971 311.308 274.962 311.439 274.943 311.532H262.819C262.894 312.484 263.155 313.333 263.603 314.08C264.07 314.808 264.667 315.387 265.395 315.816C266.123 316.227 266.907 316.432 267.747 316.432C268.643 316.432 269.483 316.208 270.267 315.76C271.07 315.312 271.62 314.724 271.919 313.996L274.047 314.584C273.73 315.293 273.254 315.928 272.619 316.488C272.003 317.048 271.266 317.487 270.407 317.804C269.567 318.121 268.652 318.28 267.663 318.28ZM262.735 309.824H272.703C272.628 308.872 272.358 308.032 271.891 307.304C271.424 306.576 270.827 306.007 270.099 305.596C269.371 305.185 268.568 304.98 267.691 304.98C266.832 304.98 266.039 305.185 265.311 305.596C264.583 306.007 263.986 306.576 263.519 307.304C263.071 308.032 262.81 308.872 262.735 309.824ZM292.688 318.28C291.493 318.28 290.429 317.981 289.496 317.384C288.563 316.787 287.825 316.031 287.284 315.116V323.964H284.82V303.384H287.004V306.128C287.583 305.232 288.339 304.513 289.272 303.972C290.205 303.412 291.223 303.132 292.324 303.132C293.332 303.132 294.256 303.337 295.096 303.748C295.936 304.159 296.664 304.719 297.28 305.428C297.896 306.137 298.372 306.949 298.708 307.864C299.063 308.76 299.24 309.703 299.24 310.692C299.24 312.073 298.96 313.343 298.4 314.5C297.859 315.657 297.093 316.581 296.104 317.272C295.115 317.944 293.976 318.28 292.688 318.28ZM291.932 316.152C292.66 316.152 293.313 316.003 293.892 315.704C294.489 315.387 294.993 314.976 295.404 314.472C295.833 313.949 296.16 313.361 296.384 312.708C296.608 312.055 296.72 311.383 296.72 310.692C296.72 309.964 296.589 309.273 296.328 308.62C296.085 307.967 295.731 307.388 295.264 306.884C294.816 306.38 294.284 305.988 293.668 305.708C293.071 305.409 292.417 305.26 291.708 305.26C291.26 305.26 290.793 305.344 290.308 305.512C289.841 305.68 289.393 305.923 288.964 306.24C288.535 306.539 288.171 306.884 287.872 307.276C287.573 307.668 287.377 308.088 287.284 308.536V312.708C287.564 313.343 287.937 313.921 288.404 314.444C288.871 314.967 289.412 315.387 290.028 315.704C290.644 316.003 291.279 316.152 291.932 316.152ZM309.993 305.54C308.761 305.559 307.669 305.876 306.717 306.492C305.784 307.089 305.121 307.92 304.729 308.984V318H302.265V303.384H304.561V306.772C305.065 305.764 305.728 304.952 306.549 304.336C307.389 303.701 308.267 303.347 309.181 303.272C309.368 303.272 309.527 303.272 309.657 303.272C309.788 303.272 309.9 303.281 309.993 303.3V305.54ZM318.466 318.28C317.364 318.28 316.366 318.084 315.47 317.692C314.574 317.281 313.799 316.731 313.146 316.04C312.492 315.331 311.988 314.519 311.634 313.604C311.279 312.689 311.102 311.728 311.102 310.72C311.102 309.693 311.279 308.723 311.634 307.808C311.988 306.893 312.492 306.091 313.146 305.4C313.799 304.691 314.574 304.14 315.47 303.748C316.384 303.337 317.383 303.132 318.466 303.132C319.567 303.132 320.566 303.337 321.462 303.748C322.358 304.14 323.132 304.691 323.786 305.4C324.458 306.091 324.971 306.893 325.326 307.808C325.68 308.723 325.858 309.693 325.858 310.72C325.858 311.728 325.68 312.689 325.326 313.604C324.971 314.519 324.467 315.331 323.814 316.04C323.16 316.731 322.376 317.281 321.462 317.692C320.566 318.084 319.567 318.28 318.466 318.28ZM313.622 310.748C313.622 311.756 313.836 312.671 314.266 313.492C314.714 314.313 315.302 314.967 316.03 315.452C316.758 315.919 317.57 316.152 318.466 316.152C319.362 316.152 320.174 315.909 320.902 315.424C321.648 314.939 322.236 314.285 322.666 313.464C323.114 312.624 323.338 311.7 323.338 310.692C323.338 309.684 323.114 308.769 322.666 307.948C322.236 307.127 321.648 306.473 320.902 305.988C320.174 305.503 319.362 305.26 318.466 305.26C317.57 305.26 316.758 305.512 316.03 306.016C315.302 306.501 314.714 307.155 314.266 307.976C313.836 308.797 313.622 309.721 313.622 310.748ZM336.347 318.28C335.209 318.28 334.173 318 333.239 317.44C332.306 316.88 331.569 316.152 331.027 315.256V318H328.843V297.56H331.307V306.296C331.923 305.344 332.679 304.579 333.575 304C334.471 303.421 335.517 303.132 336.711 303.132C337.719 303.132 338.625 303.347 339.427 303.776C340.23 304.187 340.911 304.756 341.471 305.484C342.05 306.193 342.489 307.005 342.787 307.92C343.105 308.816 343.263 309.759 343.263 310.748C343.263 311.775 343.086 312.745 342.731 313.66C342.395 314.556 341.91 315.359 341.275 316.068C340.641 316.759 339.903 317.3 339.063 317.692C338.242 318.084 337.337 318.28 336.347 318.28ZM335.731 316.152C336.459 316.152 337.131 316.003 337.747 315.704C338.363 315.405 338.895 315.004 339.343 314.5C339.791 313.996 340.137 313.417 340.379 312.764C340.622 312.111 340.743 311.439 340.743 310.748C340.743 309.796 340.538 308.9 340.127 308.06C339.735 307.22 339.175 306.548 338.447 306.044C337.738 305.521 336.907 305.26 335.955 305.26C335.265 305.26 334.621 305.419 334.023 305.736C333.426 306.053 332.894 306.473 332.427 306.996C331.979 307.5 331.606 308.06 331.307 308.676V312.904C331.401 313.371 331.597 313.8 331.895 314.192C332.194 314.584 332.558 314.929 332.987 315.228C333.417 315.508 333.865 315.732 334.331 315.9C334.817 316.068 335.283 316.152 335.731 316.152ZM346.345 297.56H348.809V314.22C348.809 315.023 348.921 315.517 349.145 315.704C349.369 315.891 349.639 315.984 349.957 315.984C350.349 315.984 350.722 315.947 351.077 315.872C351.431 315.779 351.73 315.685 351.973 315.592L352.365 317.608C351.954 317.776 351.469 317.916 350.909 318.028C350.349 318.14 349.854 318.196 349.425 318.196C348.473 318.196 347.717 317.925 347.157 317.384C346.615 316.843 346.345 316.087 346.345 315.116V297.56ZM360.769 318.28C359.667 318.28 358.659 318.084 357.745 317.692C356.849 317.281 356.065 316.731 355.393 316.04C354.739 315.331 354.226 314.519 353.853 313.604C353.498 312.689 353.321 311.719 353.321 310.692C353.321 309.311 353.638 308.051 354.273 306.912C354.907 305.773 355.785 304.859 356.905 304.168C358.043 303.477 359.341 303.132 360.797 303.132C362.271 303.132 363.55 303.487 364.633 304.196C365.734 304.887 366.583 305.801 367.181 306.94C367.797 308.06 368.105 309.273 368.105 310.58C368.105 310.767 368.095 310.953 368.077 311.14C368.077 311.308 368.067 311.439 368.049 311.532H355.925C355.999 312.484 356.261 313.333 356.709 314.08C357.175 314.808 357.773 315.387 358.501 315.816C359.229 316.227 360.013 316.432 360.853 316.432C361.749 316.432 362.589 316.208 363.373 315.76C364.175 315.312 364.726 314.724 365.025 313.996L367.153 314.584C366.835 315.293 366.359 315.928 365.725 316.488C365.109 317.048 364.371 317.487 363.513 317.804C362.673 318.121 361.758 318.28 360.769 318.28ZM355.841 309.824H365.809C365.734 308.872 365.463 308.032 364.997 307.304C364.53 306.576 363.933 306.007 363.205 305.596C362.477 305.185 361.674 304.98 360.797 304.98C359.938 304.98 359.145 305.185 358.417 305.596C357.689 306.007 357.091 306.576 356.625 307.304C356.177 308.032 355.915 308.872 355.841 309.824ZM392.879 318H390.415V309.824C390.415 308.293 390.163 307.164 389.659 306.436C389.174 305.708 388.446 305.344 387.475 305.344C386.486 305.344 385.59 305.708 384.787 306.436C383.985 307.145 383.415 308.069 383.079 309.208V318H380.615V309.824C380.615 308.275 380.373 307.145 379.887 306.436C379.402 305.708 378.674 305.344 377.703 305.344C376.733 305.344 375.837 305.699 375.015 306.408C374.213 307.099 373.643 308.023 373.307 309.18V318H370.843V303.384H373.083V306.52C373.681 305.437 374.455 304.607 375.407 304.028C376.359 303.431 377.433 303.132 378.627 303.132C379.841 303.132 380.811 303.468 381.539 304.14C382.267 304.793 382.715 305.643 382.883 306.688C383.537 305.531 384.33 304.653 385.263 304.056C386.197 303.44 387.261 303.132 388.455 303.132C389.295 303.132 389.995 303.291 390.555 303.608C391.134 303.907 391.591 304.336 391.927 304.896C392.263 305.437 392.506 306.081 392.655 306.828C392.805 307.575 392.879 308.387 392.879 309.264V318ZM401.723 318.28C400.509 318.28 399.371 318.084 398.307 317.692C397.243 317.281 396.328 316.675 395.563 315.872L396.515 314.136C397.355 314.92 398.195 315.48 399.035 315.816C399.875 316.152 400.733 316.32 401.611 316.32C402.619 316.32 403.44 316.133 404.075 315.76C404.709 315.368 405.027 314.799 405.027 314.052C405.027 313.511 404.859 313.109 404.523 312.848C404.205 312.587 403.748 312.372 403.151 312.204C402.553 312.017 401.844 311.812 401.023 311.588C400.015 311.289 399.165 310.972 398.475 310.636C397.784 310.3 397.261 309.88 396.907 309.376C396.552 308.872 396.375 308.237 396.375 307.472C396.375 306.539 396.617 305.755 397.103 305.12C397.588 304.467 398.251 303.972 399.091 303.636C399.949 303.3 400.92 303.132 402.003 303.132C403.085 303.132 404.065 303.3 404.943 303.636C405.82 303.972 406.576 304.467 407.211 305.12L406.091 306.828C405.512 306.231 404.877 305.792 404.187 305.512C403.496 305.213 402.721 305.064 401.863 305.064C401.359 305.064 400.864 305.129 400.379 305.26C399.893 305.372 399.492 305.587 399.175 305.904C398.857 306.203 398.699 306.632 398.699 307.192C398.699 307.659 398.82 308.032 399.063 308.312C399.324 308.573 399.697 308.797 400.183 308.984C400.687 309.171 401.293 309.376 402.003 309.6C403.104 309.917 404.056 310.235 404.859 310.552C405.68 310.869 406.315 311.28 406.763 311.784C407.211 312.288 407.435 312.988 407.435 313.884C407.435 315.265 406.912 316.348 405.867 317.132C404.821 317.897 403.44 318.28 401.723 318.28ZM416.317 313.772C416.317 312.839 416.578 312.036 417.101 311.364C417.642 310.673 418.379 310.141 419.313 309.768C420.246 309.395 421.329 309.208 422.561 309.208C423.214 309.208 423.905 309.264 424.633 309.376C425.361 309.469 426.005 309.619 426.565 309.824V308.76C426.565 307.64 426.229 306.763 425.557 306.128C424.885 305.475 423.933 305.148 422.701 305.148C421.898 305.148 421.123 305.297 420.377 305.596C419.649 305.876 418.874 306.287 418.053 306.828L417.157 305.092C418.109 304.439 419.061 303.953 420.013 303.636C420.965 303.3 421.954 303.132 422.981 303.132C424.847 303.132 426.322 303.655 427.405 304.7C428.487 305.727 429.029 307.164 429.029 309.012V315.2C429.029 315.499 429.085 315.723 429.197 315.872C429.327 316.003 429.533 316.077 429.813 316.096V318C429.57 318.037 429.355 318.065 429.169 318.084C429.001 318.103 428.861 318.112 428.749 318.112C428.17 318.112 427.731 317.953 427.433 317.636C427.153 317.319 426.994 316.983 426.957 316.628L426.901 315.704C426.266 316.525 425.435 317.16 424.409 317.608C423.382 318.056 422.365 318.28 421.357 318.28C420.386 318.28 419.518 318.084 418.753 317.692C417.987 317.281 417.39 316.74 416.961 316.068C416.531 315.377 416.317 314.612 416.317 313.772ZM425.837 314.808C426.061 314.547 426.238 314.285 426.369 314.024C426.499 313.744 426.565 313.511 426.565 313.324V311.504C425.986 311.28 425.379 311.112 424.745 311C424.11 310.869 423.485 310.804 422.869 310.804C421.618 310.804 420.601 311.056 419.817 311.56C419.051 312.045 418.669 312.717 418.669 313.576C418.669 314.043 418.79 314.5 419.033 314.948C419.294 315.377 419.667 315.732 420.153 316.012C420.657 316.292 421.273 316.432 422.001 316.432C422.766 316.432 423.494 316.283 424.185 315.984C424.875 315.667 425.426 315.275 425.837 314.808ZM440.696 305.54C439.464 305.559 438.372 305.876 437.42 306.492C436.487 307.089 435.824 307.92 435.432 308.984V318H432.968V303.384H435.264V306.772C435.768 305.764 436.431 304.952 437.252 304.336C438.092 303.701 438.97 303.347 439.884 303.272C440.071 303.272 440.23 303.272 440.36 303.272C440.491 303.272 440.603 303.281 440.696 303.3V305.54ZM449.253 318.28C448.152 318.28 447.144 318.084 446.229 317.692C445.333 317.281 444.549 316.731 443.877 316.04C443.224 315.331 442.71 314.519 442.337 313.604C441.982 312.689 441.805 311.719 441.805 310.692C441.805 309.311 442.122 308.051 442.757 306.912C443.392 305.773 444.269 304.859 445.389 304.168C446.528 303.477 447.825 303.132 449.281 303.132C450.756 303.132 452.034 303.487 453.117 304.196C454.218 304.887 455.068 305.801 455.665 306.94C456.281 308.06 456.589 309.273 456.589 310.58C456.589 310.767 456.58 310.953 456.561 311.14C456.561 311.308 456.552 311.439 456.533 311.532H444.409C444.484 312.484 444.745 313.333 445.193 314.08C445.66 314.808 446.257 315.387 446.985 315.816C447.713 316.227 448.497 316.432 449.337 316.432C450.233 316.432 451.073 316.208 451.857 315.76C452.66 315.312 453.21 314.724 453.509 313.996L455.637 314.584C455.32 315.293 454.844 315.928 454.209 316.488C453.593 317.048 452.856 317.487 451.997 317.804C451.157 318.121 450.242 318.28 449.253 318.28ZM444.325 309.824H454.293C454.218 308.872 453.948 308.032 453.481 307.304C453.014 306.576 452.417 306.007 451.689 305.596C450.961 305.185 450.158 304.98 449.281 304.98C448.422 304.98 447.629 305.185 446.901 305.596C446.173 306.007 445.576 306.576 445.109 307.304C444.661 308.032 444.4 308.872 444.325 309.824ZM472.234 318.168C471.245 318.168 470.33 317.972 469.49 317.58C468.669 317.169 467.959 316.619 467.362 315.928C466.765 315.219 466.298 314.416 465.962 313.52C465.645 312.624 465.486 311.691 465.486 310.72C465.486 309.693 465.645 308.723 465.962 307.808C466.298 306.893 466.765 306.091 467.362 305.4C467.978 304.691 468.697 304.14 469.518 303.748C470.339 303.337 471.254 303.132 472.262 303.132C473.475 303.132 474.53 303.431 475.426 304.028C476.341 304.625 477.106 305.381 477.722 306.296V303.384H479.906V317.832C479.906 319.213 479.57 320.38 478.898 321.332C478.245 322.284 477.349 323.003 476.21 323.488C475.09 323.992 473.839 324.244 472.458 324.244C470.815 324.244 469.471 323.955 468.426 323.376C467.381 322.797 466.513 322.013 465.822 321.024L467.25 319.764C467.829 320.623 468.575 321.267 469.49 321.696C470.423 322.125 471.413 322.34 472.458 322.34C473.354 322.34 474.175 322.172 474.922 321.836C475.687 321.519 476.294 321.024 476.742 320.352C477.209 319.68 477.442 318.84 477.442 317.832V315.256C476.901 316.152 476.154 316.861 475.202 317.384C474.269 317.907 473.279 318.168 472.234 318.168ZM472.99 316.152C473.513 316.152 474.017 316.059 474.502 315.872C474.987 315.685 475.435 315.443 475.846 315.144C476.257 314.827 476.602 314.472 476.882 314.08C477.162 313.688 477.349 313.287 477.442 312.876V308.676C477.181 308.004 476.807 307.416 476.322 306.912C475.837 306.389 475.286 305.988 474.67 305.708C474.054 305.409 473.419 305.26 472.766 305.26C472.019 305.26 471.347 305.419 470.75 305.736C470.171 306.053 469.677 306.483 469.266 307.024C468.855 307.547 468.538 308.135 468.314 308.788C468.09 309.441 467.978 310.104 467.978 310.776C467.978 311.504 468.109 312.195 468.37 312.848C468.631 313.483 468.986 314.052 469.434 314.556C469.882 315.06 470.414 315.452 471.03 315.732C471.646 316.012 472.299 316.152 472.99 316.152ZM490.267 318.28C489.165 318.28 488.167 318.084 487.271 317.692C486.375 317.281 485.6 316.731 484.947 316.04C484.293 315.331 483.789 314.519 483.435 313.604C483.08 312.689 482.903 311.728 482.903 310.72C482.903 309.693 483.08 308.723 483.435 307.808C483.789 306.893 484.293 306.091 484.947 305.4C485.6 304.691 486.375 304.14 487.271 303.748C488.185 303.337 489.184 303.132 490.267 303.132C491.368 303.132 492.367 303.337 493.263 303.748C494.159 304.14 494.933 304.691 495.587 305.4C496.259 306.091 496.772 306.893 497.127 307.808C497.481 308.723 497.659 309.693 497.659 310.72C497.659 311.728 497.481 312.689 497.127 313.604C496.772 314.519 496.268 315.331 495.615 316.04C494.961 316.731 494.177 317.281 493.263 317.692C492.367 318.084 491.368 318.28 490.267 318.28ZM485.423 310.748C485.423 311.756 485.637 312.671 486.067 313.492C486.515 314.313 487.103 314.967 487.831 315.452C488.559 315.919 489.371 316.152 490.267 316.152C491.163 316.152 491.975 315.909 492.703 315.424C493.449 314.939 494.037 314.285 494.467 313.464C494.915 312.624 495.139 311.7 495.139 310.692C495.139 309.684 494.915 308.769 494.467 307.948C494.037 307.127 493.449 306.473 492.703 305.988C491.975 305.503 491.163 305.26 490.267 305.26C489.371 305.26 488.559 305.512 487.831 306.016C487.103 306.501 486.515 307.155 486.067 307.976C485.637 308.797 485.423 309.721 485.423 310.748ZM513.328 318H510.864V309.824C510.864 308.275 510.622 307.145 510.136 306.436C509.67 305.708 508.951 305.344 507.98 305.344C507.308 305.344 506.636 305.512 505.964 305.848C505.311 306.184 504.723 306.641 504.2 307.22C503.696 307.78 503.332 308.433 503.108 309.18V318H500.644V303.384H502.884V306.52C503.276 305.829 503.78 305.232 504.396 304.728C505.012 304.224 505.712 303.832 506.496 303.552C507.28 303.272 508.102 303.132 508.96 303.132C509.8 303.132 510.5 303.291 511.06 303.608C511.639 303.907 512.087 304.336 512.404 304.896C512.74 305.437 512.974 306.081 513.104 306.828C513.254 307.575 513.328 308.387 513.328 309.264V318ZM523.628 318.28C522.527 318.28 521.519 318.084 520.604 317.692C519.708 317.281 518.924 316.731 518.252 316.04C517.599 315.331 517.085 314.519 516.712 313.604C516.357 312.689 516.18 311.719 516.18 310.692C516.18 309.311 516.497 308.051 517.132 306.912C517.767 305.773 518.644 304.859 519.764 304.168C520.903 303.477 522.2 303.132 523.656 303.132C525.131 303.132 526.409 303.487 527.492 304.196C528.593 304.887 529.443 305.801 530.04 306.94C530.656 308.06 530.964 309.273 530.964 310.58C530.964 310.767 530.955 310.953 530.936 311.14C530.936 311.308 530.927 311.439 530.908 311.532H518.784C518.859 312.484 519.12 313.333 519.568 314.08C520.035 314.808 520.632 315.387 521.36 315.816C522.088 316.227 522.872 316.432 523.712 316.432C524.608 316.432 525.448 316.208 526.232 315.76C527.035 315.312 527.585 314.724 527.884 313.996L530.012 314.584C529.695 315.293 529.219 315.928 528.584 316.488C527.968 317.048 527.231 317.487 526.372 317.804C525.532 318.121 524.617 318.28 523.628 318.28ZM518.7 309.824H528.668C528.593 308.872 528.323 308.032 527.856 307.304C527.389 306.576 526.792 306.007 526.064 305.596C525.336 305.185 524.533 304.98 523.656 304.98C522.797 304.98 522.004 305.185 521.276 305.596C520.548 306.007 519.951 306.576 519.484 307.304C519.036 308.032 518.775 308.872 518.7 309.824ZM533.507 318V314.864H535.579V318H533.507Z" fill="#6C6A6A"/>
<path d="M535.612 265.12L540.988 280.408L546.308 265.12H550.368L542.836 285H539.112L531.552 265.12H535.612ZM552.126 285V270.328H555.878V285H552.126ZM552.126 268.284V264.56H555.878V268.284H552.126ZM566.067 285.28C564.891 285.28 563.827 285.084 562.875 284.692C561.923 284.281 561.111 283.731 560.439 283.04C559.767 282.331 559.244 281.528 558.871 280.632C558.516 279.717 558.339 278.756 558.339 277.748C558.339 276.348 558.647 275.069 559.263 273.912C559.897 272.755 560.793 271.831 561.951 271.14C563.127 270.431 564.508 270.076 566.095 270.076C567.7 270.076 569.072 270.431 570.211 271.14C571.349 271.831 572.217 272.755 572.815 273.912C573.431 275.051 573.739 276.283 573.739 277.608C573.739 277.832 573.729 278.065 573.711 278.308C573.692 278.532 573.673 278.719 573.655 278.868H562.315C562.389 279.615 562.604 280.268 562.959 280.828C563.332 281.388 563.799 281.817 564.359 282.116C564.937 282.396 565.553 282.536 566.207 282.536C566.953 282.536 567.653 282.359 568.307 282.004C568.979 281.631 569.436 281.145 569.679 280.548L572.899 281.444C572.544 282.191 572.031 282.853 571.359 283.432C570.705 284.011 569.931 284.468 569.035 284.804C568.139 285.121 567.149 285.28 566.067 285.28ZM562.231 276.488H569.903C569.828 275.741 569.613 275.097 569.259 274.556C568.923 273.996 568.475 273.567 567.915 273.268C567.355 272.951 566.729 272.792 566.039 272.792C565.367 272.792 564.751 272.951 564.191 273.268C563.649 273.567 563.201 273.996 562.847 274.556C562.511 275.097 562.305 275.741 562.231 276.488ZM589.66 285H585.908V276.768C585.908 275.592 585.703 274.733 585.292 274.192C584.882 273.651 584.312 273.38 583.584 273.38C583.08 273.38 582.567 273.511 582.044 273.772C581.54 274.033 581.083 274.397 580.672 274.864C580.262 275.312 579.963 275.835 579.776 276.432V285H576.024V270.328H579.412V273.044C579.786 272.409 580.262 271.877 580.84 271.448C581.419 271 582.082 270.664 582.828 270.44C583.594 270.197 584.396 270.076 585.236 270.076C586.151 270.076 586.898 270.244 587.476 270.58C588.074 270.897 588.522 271.336 588.82 271.896C589.138 272.437 589.352 273.053 589.464 273.744C589.595 274.435 589.66 275.135 589.66 275.844V285ZM606.559 285H602.807V276.768C602.807 275.592 602.602 274.733 602.191 274.192C601.78 273.651 601.211 273.38 600.483 273.38C599.979 273.38 599.466 273.511 598.943 273.772C598.439 274.033 597.982 274.397 597.571 274.864C597.16 275.312 596.862 275.835 596.675 276.432V285H592.923V270.328H596.311V273.044C596.684 272.409 597.16 271.877 597.739 271.448C598.318 271 598.98 270.664 599.727 270.44C600.492 270.197 601.295 270.076 602.135 270.076C603.05 270.076 603.796 270.244 604.375 270.58C604.972 270.897 605.42 271.336 605.719 271.896C606.036 272.437 606.251 273.053 606.363 273.744C606.494 274.435 606.559 275.135 606.559 275.844V285ZM608.813 280.66C608.813 279.708 609.075 278.877 609.597 278.168C610.139 277.44 610.885 276.88 611.837 276.488C612.789 276.096 613.881 275.9 615.113 275.9C615.729 275.9 616.355 275.947 616.989 276.04C617.624 276.133 618.175 276.283 618.641 276.488V275.704C618.641 274.771 618.361 274.052 617.801 273.548C617.26 273.044 616.448 272.792 615.365 272.792C614.563 272.792 613.797 272.932 613.069 273.212C612.341 273.492 611.576 273.903 610.773 274.444L609.569 271.98C610.54 271.345 611.529 270.869 612.537 270.552C613.564 270.235 614.637 270.076 615.757 270.076C617.848 270.076 619.472 270.599 620.629 271.644C621.805 272.689 622.393 274.183 622.393 276.124V280.8C622.393 281.192 622.459 281.472 622.589 281.64C622.739 281.808 622.972 281.911 623.289 281.948V285C622.953 285.056 622.645 285.103 622.365 285.14C622.104 285.177 621.88 285.196 621.693 285.196C620.947 285.196 620.377 285.028 619.985 284.692C619.612 284.356 619.379 283.945 619.285 283.46L619.201 282.704C618.567 283.525 617.773 284.16 616.821 284.608C615.869 285.056 614.899 285.28 613.909 285.28C612.939 285.28 612.061 285.084 611.277 284.692C610.512 284.281 609.905 283.731 609.457 283.04C609.028 282.331 608.813 281.537 608.813 280.66ZM617.941 281.416C618.147 281.192 618.315 280.968 618.445 280.744C618.576 280.52 618.641 280.315 618.641 280.128V278.644C618.193 278.457 617.708 278.317 617.185 278.224C616.663 278.112 616.168 278.056 615.701 278.056C614.731 278.056 613.928 278.271 613.293 278.7C612.677 279.111 612.369 279.661 612.369 280.352C612.369 280.725 612.472 281.08 612.677 281.416C612.883 281.752 613.181 282.023 613.573 282.228C613.965 282.433 614.432 282.536 614.973 282.536C615.533 282.536 616.084 282.433 616.625 282.228C617.167 282.004 617.605 281.733 617.941 281.416Z" fill="#282828"/>
<path d="M34.22 114.01H50.83L58.97 138.98L67.11 114.01H83.83L70.52 150.31L78.44 171.1L98.02 113.9H117.71L87.24 192H71.62L58.97 161.42L46.43 192H30.7L0.34 113.9H19.92L39.61 171.1L47.31 150.31L34.22 114.01ZM142.724 193.1C137.81 193.1 133.41 192.293 129.524 190.68C125.71 189.067 122.484 186.867 119.844 184.08C117.204 181.293 115.187 178.103 113.794 174.51C112.474 170.917 111.814 167.14 111.814 163.18C111.814 159.147 112.474 155.333 113.794 151.74C115.187 148.147 117.204 144.957 119.844 142.17C122.484 139.383 125.71 137.183 129.524 135.57C133.41 133.957 137.81 133.15 142.724 133.15C147.637 133.15 152 133.957 155.814 135.57C159.627 137.183 162.854 139.383 165.494 142.17C168.134 144.957 170.15 148.147 171.544 151.74C172.937 155.333 173.634 159.147 173.634 163.18C173.634 167.14 172.937 170.917 171.544 174.51C170.15 178.103 168.134 181.293 165.494 184.08C162.854 186.867 159.627 189.067 155.814 190.68C152 192.293 147.637 193.1 142.724 193.1ZM129.854 163.18C129.854 166.187 130.404 168.827 131.504 171.1C132.677 173.373 134.217 175.133 136.124 176.38C138.03 177.627 140.23 178.25 142.724 178.25C145.144 178.25 147.307 177.627 149.214 176.38C151.194 175.06 152.734 173.263 153.834 170.99C154.934 168.717 155.484 166.113 155.484 163.18C155.484 160.173 154.934 157.533 153.834 155.26C152.734 152.987 151.194 151.227 149.214 149.98C147.307 148.733 145.144 148.11 142.724 148.11C140.23 148.11 138.03 148.733 136.124 149.98C134.217 151.227 132.677 152.987 131.504 155.26C130.404 157.533 129.854 160.173 129.854 163.18ZM218.993 149.32C214.739 149.32 210.889 150.017 207.443 151.41C203.996 152.73 201.503 154.71 199.963 157.35V192H182.363V134.25H198.533V145.91C200.513 142.023 203.079 138.98 206.233 136.78C209.386 134.58 212.686 133.443 216.133 133.37C216.939 133.37 217.526 133.37 217.893 133.37C218.333 133.37 218.699 133.407 218.993 133.48V149.32ZM265.235 192L250.165 168.9L244.005 175.17V192H226.405V111.7H244.005V158.12L263.585 134.25H282.175L261.385 159.11L283.935 192H265.235ZM310.605 193.1C305.692 193.1 300.889 192.293 296.195 190.68C291.502 189.067 287.542 186.683 284.315 183.53L290.365 172.42C293.885 174.987 297.295 176.93 300.595 178.25C303.969 179.57 307.122 180.23 310.055 180.23C312.329 180.23 314.089 179.863 315.335 179.13C316.582 178.397 317.205 177.26 317.205 175.72C317.205 174.62 316.839 173.777 316.105 173.19C315.372 172.53 314.235 171.943 312.695 171.43C311.229 170.917 309.395 170.367 307.195 169.78C302.795 168.313 299.129 166.883 296.195 165.49C293.262 164.097 291.062 162.41 289.595 160.43C288.129 158.377 287.395 155.737 287.395 152.51C287.395 148.623 288.349 145.25 290.255 142.39C292.235 139.457 295.022 137.183 298.615 135.57C302.209 133.957 306.499 133.15 311.485 133.15C315.445 133.15 319.295 133.773 323.035 135.02C326.849 136.267 330.405 138.357 333.705 141.29L326.885 152.29C323.585 150.017 320.652 148.367 318.085 147.34C315.519 146.313 313.025 145.8 310.605 145.8C309.359 145.8 308.222 145.947 307.195 146.24C306.169 146.533 305.325 147.047 304.665 147.78C304.079 148.44 303.785 149.32 303.785 150.42C303.785 151.52 304.079 152.4 304.665 153.06C305.325 153.72 306.315 154.307 307.635 154.82C309.029 155.26 310.752 155.81 312.805 156.47C317.572 157.863 321.532 159.293 324.685 160.76C327.839 162.153 330.185 163.913 331.725 166.04C333.339 168.093 334.145 170.843 334.145 174.29C334.145 180.157 332.019 184.777 327.765 188.15C323.585 191.45 317.865 193.1 310.605 193.1ZM398.833 192H381.233V159.55C381.233 155.81 380.463 153.06 378.923 151.3C377.456 149.54 375.476 148.66 372.983 148.66C371.663 148.66 370.16 149.1 368.473 149.98C366.86 150.787 365.356 151.96 363.963 153.5C362.57 155.04 361.506 156.837 360.773 158.89V192H343.173V111.7H360.773V143.93C362.9 140.483 365.686 137.843 369.133 136.01C372.653 134.103 376.503 133.15 380.683 133.15C384.643 133.15 387.796 133.81 390.143 135.13C392.563 136.45 394.396 138.21 395.643 140.41C396.89 142.537 397.733 144.883 398.173 147.45C398.613 150.017 398.833 152.547 398.833 155.04V192ZM438.027 193.1C433.113 193.1 428.713 192.293 424.827 190.68C421.013 189.067 417.787 186.867 415.147 184.08C412.507 181.293 410.49 178.103 409.097 174.51C407.777 170.917 407.117 167.14 407.117 163.18C407.117 159.147 407.777 155.333 409.097 151.74C410.49 148.147 412.507 144.957 415.147 142.17C417.787 139.383 421.013 137.183 424.827 135.57C428.713 133.957 433.113 133.15 438.027 133.15C442.94 133.15 447.303 133.957 451.117 135.57C454.93 137.183 458.157 139.383 460.797 142.17C463.437 144.957 465.453 148.147 466.847 151.74C468.24 155.333 468.937 159.147 468.937 163.18C468.937 167.14 468.24 170.917 466.847 174.51C465.453 178.103 463.437 181.293 460.797 184.08C458.157 186.867 454.93 189.067 451.117 190.68C447.303 192.293 442.94 193.1 438.027 193.1ZM425.157 163.18C425.157 166.187 425.707 168.827 426.807 171.1C427.98 173.373 429.52 175.133 431.427 176.38C433.333 177.627 435.533 178.25 438.027 178.25C440.447 178.25 442.61 177.627 444.517 176.38C446.497 175.06 448.037 173.263 449.137 170.99C450.237 168.717 450.787 166.113 450.787 163.18C450.787 160.173 450.237 157.533 449.137 155.26C448.037 152.987 446.497 151.227 444.517 149.98C442.61 148.733 440.447 148.11 438.027 148.11C435.533 148.11 433.333 148.733 431.427 149.98C429.52 151.227 427.98 152.987 426.807 155.26C425.707 157.533 425.157 160.173 425.157 163.18ZM514.185 193.1C509.859 193.1 506.082 192.183 502.855 190.35C499.629 188.443 497.099 185.877 495.265 182.65V215.43H477.665V134.25H492.955V143.6C495.082 140.3 497.759 137.733 500.985 135.9C504.212 134.067 507.989 133.15 512.315 133.15C516.202 133.15 519.759 133.92 522.985 135.46C526.285 137 529.145 139.127 531.565 141.84C533.985 144.553 535.855 147.707 537.175 151.3C538.495 154.893 539.155 158.78 539.155 162.96C539.155 168.68 538.092 173.813 535.965 178.36C533.839 182.907 530.869 186.5 527.055 189.14C523.315 191.78 519.025 193.1 514.185 193.1ZM508.245 178.25C510.152 178.25 511.875 177.847 513.415 177.04C515.029 176.16 516.422 175.023 517.595 173.63C518.769 172.237 519.649 170.623 520.235 168.79C520.895 166.883 521.225 164.903 521.225 162.85C521.225 160.723 520.859 158.78 520.125 157.02C519.465 155.26 518.512 153.72 517.265 152.4C516.019 151.007 514.552 149.943 512.865 149.21C511.179 148.477 509.345 148.11 507.365 148.11C506.192 148.11 504.982 148.293 503.735 148.66C502.562 149.027 501.425 149.577 500.325 150.31C499.299 150.97 498.345 151.777 497.465 152.73C496.585 153.683 495.852 154.783 495.265 156.03V167.91C496.072 169.89 497.135 171.65 498.455 173.19C499.775 174.73 501.279 175.977 502.965 176.93C504.652 177.81 506.412 178.25 508.245 178.25Z" fill="url(#paint1_linear_0_1)"/>
<defs>
<linearGradient id="paint0_linear_0_1" x1="135" y1="81" x2="955" y2="17" gradientUnits="userSpaceOnUse">
<stop stop-color="#018297"/>
<stop offset="0.946422" stop-color="#1ABFAF"/>
</linearGradient>
<linearGradient id="paint1_linear_0_1" x1="44" y1="192" x2="567" y2="166" gradientUnits="userSpaceOnUse">
<stop stop-color="#018297"/>
<stop offset="1" stop-color="#1ABFAF"/>
</linearGradient>
</defs>
</svg>
