<svg width="731" height="72" viewBox="0 0 731 72" fill="none" xmlns="http://www.w3.org/2000/svg">
<path d="M56.88 53.528C56.88 57.432 55.824 60.696 53.712 63.32C51.664 65.88 48.88 67.8 45.36 69.08C41.84 70.36 37.968 71 33.744 71H0.528V2.84H38.448C41.648 2.84 44.4 3.704 46.704 5.432C49.072 7.096 50.864 9.272 52.08 11.96C53.36 14.648 54 17.432 54 20.312C54 23.512 53.168 26.584 51.504 29.528C49.84 32.408 47.408 34.584 44.208 36.056C48.112 37.208 51.184 39.256 53.424 42.2C55.728 45.144 56.88 48.92 56.88 53.528ZM40.848 50.36C40.848 48.888 40.56 47.608 39.984 46.52C39.408 45.368 38.64 44.472 37.68 43.832C36.784 43.128 35.696 42.776 34.416 42.776H16.272V57.656H33.744C35.088 57.656 36.272 57.336 37.296 56.696C38.384 56.056 39.248 55.192 39.888 54.104C40.528 53.016 40.848 51.768 40.848 50.36ZM16.272 16.28V30.392H31.728C32.88 30.392 33.936 30.136 34.896 29.624C35.92 29.112 36.752 28.344 37.392 27.32C38.032 26.232 38.352 24.888 38.352 23.288C38.352 21.752 38.064 20.472 37.488 19.448C36.976 18.424 36.272 17.656 35.376 17.144C34.48 16.568 33.456 16.28 32.304 16.28H16.272ZM64.905 71V20.6H80.265V71H64.905ZM64.905 14.84V0.919998H80.265V14.84H64.905ZM124.668 71L111.516 50.84L106.14 56.312V71H90.78V0.919998H106.14V41.432L123.228 20.6H139.452L121.308 42.296L140.988 71H124.668ZM167.001 71.96C162.713 71.96 158.905 71.288 155.577 69.944C152.249 68.536 149.401 66.648 147.033 64.28C144.729 61.912 142.969 59.192 141.753 56.12C140.537 52.984 139.929 49.72 139.929 46.328C139.929 41.464 140.985 37.048 143.097 33.08C145.273 29.048 148.377 25.816 152.409 23.384C156.441 20.888 161.305 19.64 167.001 19.64C172.697 19.64 177.529 20.856 181.497 23.288C185.529 25.72 188.601 28.92 190.713 32.888C192.825 36.792 193.881 41.048 193.881 45.656C193.881 46.552 193.817 47.448 193.689 48.344C193.625 49.176 193.561 49.912 193.497 50.552H156.249C156.441 52.792 157.049 54.68 158.073 56.216C159.161 57.752 160.537 58.936 162.201 59.768C163.865 60.536 165.625 60.92 167.481 60.92C169.785 60.92 171.929 60.376 173.913 59.288C175.961 58.2 177.369 56.728 178.137 54.872L191.193 58.52C189.913 61.144 188.089 63.48 185.721 65.528C183.417 67.512 180.665 69.08 177.465 70.232C174.329 71.384 170.841 71.96 167.001 71.96ZM155.865 41.144H177.753C177.497 39.032 176.889 37.208 175.929 35.672C174.969 34.072 173.689 32.856 172.089 32.024C170.489 31.128 168.729 30.68 166.809 30.68C164.825 30.68 163.033 31.128 161.433 32.024C159.897 32.856 158.649 34.072 157.689 35.672C156.729 37.208 156.121 39.032 155.865 41.144ZM268.081 71L236.785 37.688C234.097 34.808 231.953 32.344 230.353 30.296C228.753 28.248 227.601 26.36 226.897 24.632C226.257 22.84 225.937 20.92 225.937 18.872C225.937 15.416 226.769 12.44 228.433 9.944C230.097 7.384 232.369 5.432 235.249 4.088C238.193 2.68 241.489 1.976 245.137 1.976C248.401 1.976 251.473 2.552 254.353 3.704C257.233 4.792 259.601 6.488 261.457 8.792C263.313 11.096 264.241 14.04 264.241 17.624C264.241 20.696 263.505 23.512 262.033 26.072C260.625 28.568 258.673 30.872 256.177 32.984C253.745 35.096 250.993 37.08 247.921 38.936C245.681 40.28 243.665 41.592 241.873 42.872C240.145 44.088 238.769 45.368 237.745 46.712C236.785 48.056 236.305 49.528 236.305 51.128C236.305 52.472 236.689 53.848 237.457 55.256C238.289 56.6 239.473 57.72 241.009 58.616C242.609 59.512 244.497 59.96 246.673 59.96C249.105 59.96 251.537 59.352 253.969 58.136C256.401 56.856 258.609 55.032 260.593 52.664C262.641 50.296 264.241 47.416 265.393 44.024C266.609 40.632 267.217 36.792 267.217 32.504H279.601C279.601 38.968 278.609 44.664 276.625 49.592C274.641 54.52 271.985 58.648 268.657 61.976C265.393 65.304 261.713 67.8 257.617 69.464C253.521 71.128 249.329 71.96 245.041 71.96C240.113 71.96 235.889 70.968 232.369 68.984C228.849 66.936 226.161 64.344 224.305 61.208C222.513 58.008 221.617 54.616 221.617 51.032C221.617 47.384 222.449 44.216 224.113 41.528C225.777 38.776 227.857 36.376 230.353 34.328C232.913 32.28 235.441 30.488 237.937 28.952C240.689 27.16 242.961 25.72 244.753 24.632C246.545 23.48 247.889 22.392 248.785 21.368C249.681 20.344 250.129 19.16 250.129 17.816C250.129 16.408 249.649 15.288 248.689 14.456C247.793 13.624 246.609 13.208 245.137 13.208C244.113 13.208 243.185 13.464 242.353 13.976C241.521 14.424 240.881 15.032 240.433 15.8C240.049 16.504 239.857 17.336 239.857 18.296C239.857 19.192 240.113 20.056 240.625 20.888C241.201 21.656 242.129 22.68 243.409 23.96C244.753 25.24 246.577 27.128 248.881 29.624L288.241 71H268.081ZM339.689 71.96C335.401 71.96 331.593 71.288 328.265 69.944C324.937 68.536 322.089 66.648 319.721 64.28C317.417 61.912 315.657 59.192 314.441 56.12C313.225 52.984 312.617 49.72 312.617 46.328C312.617 41.464 313.673 37.048 315.785 33.08C317.961 29.048 321.065 25.816 325.097 23.384C329.129 20.888 333.993 19.64 339.689 19.64C345.385 19.64 350.217 20.856 354.185 23.288C358.217 25.72 361.289 28.92 363.401 32.888C365.513 36.792 366.569 41.048 366.569 45.656C366.569 46.552 366.505 47.448 366.377 48.344C366.313 49.176 366.249 49.912 366.185 50.552H328.937C329.129 52.792 329.737 54.68 330.761 56.216C331.849 57.752 333.225 58.936 334.889 59.768C336.553 60.536 338.313 60.92 340.169 60.92C342.473 60.92 344.617 60.376 346.601 59.288C348.649 58.2 350.057 56.728 350.825 54.872L363.881 58.52C362.601 61.144 360.777 63.48 358.409 65.528C356.105 67.512 353.353 69.08 350.153 70.232C347.017 71.384 343.529 71.96 339.689 71.96ZM328.553 41.144H350.441C350.185 39.032 349.577 37.208 348.617 35.672C347.657 34.072 346.377 32.856 344.777 32.024C343.177 31.128 341.417 30.68 339.497 30.68C337.513 30.68 335.721 31.128 334.121 32.024C332.585 32.856 331.337 34.072 330.377 35.672C329.417 37.208 328.809 39.032 328.553 41.144ZM414.83 22.808C414.638 22.488 413.966 22.008 412.814 21.368C411.662 20.664 410.222 19.928 408.494 19.16C406.766 18.392 404.878 17.72 402.83 17.144C400.782 16.568 398.734 16.28 396.686 16.28C393.998 16.28 391.918 16.76 390.446 17.72C388.974 18.616 388.238 20.024 388.238 21.944C388.238 23.48 388.782 24.696 389.87 25.592C391.022 26.488 392.654 27.288 394.766 27.992C396.878 28.632 399.47 29.4 402.542 30.296C406.894 31.448 410.67 32.856 413.87 34.52C417.07 36.12 419.502 38.2 421.166 40.76C422.894 43.32 423.758 46.712 423.758 50.936C423.758 54.776 423.054 58.04 421.646 60.728C420.238 63.352 418.318 65.496 415.886 67.16C413.518 68.76 410.798 69.944 407.726 70.712C404.654 71.416 401.486 71.768 398.222 71.768C394.894 71.768 391.47 71.448 387.95 70.808C384.494 70.104 381.166 69.144 377.966 67.928C374.766 66.648 371.822 65.112 369.134 63.32L376.046 49.592C376.302 49.912 377.134 50.52 378.542 51.416C379.95 52.248 381.678 53.144 383.726 54.104C385.838 55 388.174 55.8 390.734 56.504C393.294 57.208 395.886 57.56 398.51 57.56C401.326 57.56 403.406 57.112 404.75 56.216C406.158 55.32 406.862 54.072 406.862 52.472C406.862 50.744 406.126 49.4 404.654 48.44C403.246 47.48 401.294 46.616 398.798 45.848C396.366 45.08 393.55 44.216 390.35 43.256C386.19 41.976 382.734 40.536 379.982 38.936C377.294 37.336 375.278 35.384 373.934 33.08C372.654 30.776 372.014 27.896 372.014 24.44C372.014 19.64 373.134 15.608 375.374 12.344C377.678 9.016 380.75 6.52 384.59 4.856C388.43 3.128 392.622 2.264 397.166 2.264C400.366 2.264 403.438 2.648 406.382 3.41599C409.39 4.184 412.174 5.144 414.734 6.296C417.358 7.448 419.694 8.6 421.742 9.752L414.83 22.808ZM455.845 71.96C451.557 71.96 447.749 71.256 444.421 69.848C441.093 68.44 438.245 66.52 435.877 64.088C433.573 61.656 431.813 58.872 430.597 55.736C429.381 52.6 428.773 49.272 428.773 45.752C428.773 41.144 429.829 36.856 431.941 32.888C434.117 28.92 437.221 25.72 441.253 23.288C445.285 20.856 450.149 19.64 455.845 19.64C461.605 19.64 466.469 20.888 470.437 23.384C474.469 25.816 477.477 29.016 479.461 32.984L464.485 37.496C463.525 35.96 462.277 34.776 460.741 33.944C459.269 33.112 457.605 32.696 455.749 32.696C453.637 32.696 451.717 33.24 449.989 34.328C448.325 35.416 446.981 36.92 445.957 38.84C444.997 40.76 444.517 43.064 444.517 45.752C444.517 48.376 445.029 50.68 446.053 52.664C447.077 54.648 448.421 56.216 450.085 57.368C451.749 58.456 453.637 59 455.749 59C457.029 59 458.213 58.808 459.301 58.424C460.453 57.976 461.477 57.368 462.373 56.6C463.333 55.832 464.069 54.968 464.581 54.008L479.557 58.616C478.341 61.176 476.581 63.48 474.277 65.528C472.037 67.512 469.381 69.08 466.309 70.232C463.237 71.384 459.749 71.96 455.845 71.96ZM510.03 71.96C505.742 71.96 501.902 71.256 498.51 69.848C495.182 68.44 492.366 66.52 490.062 64.088C487.758 61.656 485.998 58.872 484.782 55.736C483.63 52.6 483.054 49.304 483.054 45.848C483.054 42.328 483.63 39 484.782 35.864C485.998 32.728 487.758 29.944 490.062 27.512C492.366 25.08 495.182 23.16 498.51 21.752C501.902 20.344 505.742 19.64 510.03 19.64C514.318 19.64 518.126 20.344 521.454 21.752C524.782 23.16 527.598 25.08 529.902 27.512C532.206 29.944 533.966 32.728 535.182 35.864C536.398 39 537.006 42.328 537.006 45.848C537.006 49.304 536.398 52.6 535.182 55.736C533.966 58.872 532.206 61.656 529.902 64.088C527.598 66.52 524.782 68.44 521.454 69.848C518.126 71.256 514.318 71.96 510.03 71.96ZM498.798 45.848C498.798 48.472 499.278 50.776 500.238 52.76C501.262 54.744 502.606 56.28 504.27 57.368C505.934 58.456 507.854 59 510.03 59C512.142 59 514.03 58.456 515.694 57.368C517.422 56.216 518.766 54.648 519.726 52.664C520.686 50.68 521.166 48.408 521.166 45.848C521.166 43.224 520.686 40.92 519.726 38.936C518.766 36.952 517.422 35.416 515.694 34.328C514.03 33.24 512.142 32.696 510.03 32.696C507.854 32.696 505.934 33.24 504.27 34.328C502.606 35.416 501.262 36.952 500.238 38.936C499.278 40.92 498.798 43.224 498.798 45.848ZM568.624 71.96C564.336 71.96 560.496 71.256 557.104 69.848C553.776 68.44 550.96 66.52 548.656 64.088C546.352 61.656 544.592 58.872 543.376 55.736C542.224 52.6 541.648 49.304 541.648 45.848C541.648 42.328 542.224 39 543.376 35.864C544.592 32.728 546.352 29.944 548.656 27.512C550.96 25.08 553.776 23.16 557.104 21.752C560.496 20.344 564.336 19.64 568.624 19.64C572.912 19.64 576.72 20.344 580.048 21.752C583.376 23.16 586.192 25.08 588.496 27.512C590.8 29.944 592.56 32.728 593.776 35.864C594.992 39 595.6 42.328 595.6 45.848C595.6 49.304 594.992 52.6 593.776 55.736C592.56 58.872 590.8 61.656 588.496 64.088C586.192 66.52 583.376 68.44 580.048 69.848C576.72 71.256 572.912 71.96 568.624 71.96ZM557.392 45.848C557.392 48.472 557.872 50.776 558.832 52.76C559.856 54.744 561.2 56.28 562.864 57.368C564.528 58.456 566.448 59 568.624 59C570.736 59 572.624 58.456 574.288 57.368C576.016 56.216 577.36 54.648 578.32 52.664C579.28 50.68 579.76 48.408 579.76 45.848C579.76 43.224 579.28 40.92 578.32 38.936C577.36 36.952 576.016 35.416 574.288 34.328C572.624 33.24 570.736 32.696 568.624 32.696C566.448 32.696 564.528 33.24 562.864 34.328C561.2 35.416 559.856 36.952 558.832 38.936C557.872 40.92 557.392 43.224 557.392 45.848ZM635.108 68.312C633.7 68.888 632.132 69.464 630.404 70.04C628.74 70.616 626.98 71.064 625.124 71.384C623.268 71.768 621.444 71.96 619.652 71.96C617.092 71.96 614.724 71.544 612.548 70.712C610.436 69.816 608.74 68.376 607.46 66.392C606.244 64.408 605.636 61.784 605.636 58.52V32.216H599.204V20.6H605.636V4.568H620.996V20.6H631.268V32.216H620.996V53.24C620.996 54.904 621.412 56.12 622.244 56.888C623.076 57.592 624.132 57.944 625.411 57.944C626.5 57.944 627.652 57.752 628.868 57.368C630.148 56.984 631.236 56.568 632.132 56.12L635.108 68.312ZM664.626 71.96C660.338 71.96 656.53 71.288 653.202 69.944C649.874 68.536 647.026 66.648 644.658 64.28C642.354 61.912 640.594 59.192 639.378 56.12C638.162 52.984 637.554 49.72 637.554 46.328C637.554 41.464 638.61 37.048 640.722 33.08C642.898 29.048 646.002 25.816 650.034 23.384C654.066 20.888 658.93 19.64 664.626 19.64C670.322 19.64 675.154 20.856 679.122 23.288C683.154 25.72 686.226 28.92 688.338 32.888C690.45 36.792 691.506 41.048 691.506 45.656C691.506 46.552 691.442 47.448 691.314 48.344C691.25 49.176 691.186 49.912 691.122 50.552H653.874C654.066 52.792 654.674 54.68 655.698 56.216C656.786 57.752 658.162 58.936 659.826 59.768C661.49 60.536 663.25 60.92 665.106 60.92C667.41 60.92 669.554 60.376 671.538 59.288C673.586 58.2 674.994 56.728 675.762 54.872L688.818 58.52C687.538 61.144 685.714 63.48 683.346 65.528C681.042 67.512 678.29 69.08 675.09 70.232C671.954 71.384 668.466 71.96 664.626 71.96ZM653.49 41.144H675.378C675.122 39.032 674.514 37.208 673.554 35.672C672.594 34.072 671.314 32.856 669.714 32.024C668.114 31.128 666.354 30.68 664.434 30.68C662.45 30.68 660.658 31.128 659.058 32.024C657.522 32.856 656.274 34.072 655.314 35.672C654.354 37.208 653.746 39.032 653.49 41.144ZM730.436 33.752C726.724 33.752 723.364 34.36 720.356 35.576C717.348 36.728 715.172 38.456 713.828 40.76V71H698.468V20.6H712.58V30.776C714.308 27.384 716.548 24.728 719.3 22.808C722.052 20.888 724.932 19.896 727.94 19.832C728.644 19.832 729.156 19.832 729.476 19.832C729.86 19.832 730.18 19.864 730.436 19.928V33.752Z" fill="url(#paint0_linear_1_47)"/>
<defs>
<linearGradient id="paint0_linear_1_47" x1="128" y1="81" x2="948" y2="17" gradientUnits="userSpaceOnUse">
<stop stop-color="#018297"/>
<stop offset="0.946422" stop-color="#1ABFAF"/>
</linearGradient>
</defs>
</svg>
