<svg width="540" height="105" viewBox="0 0 540 105" fill="none" xmlns="http://www.w3.org/2000/svg">
<path d="M34.22 3.00999H50.83L58.97 27.98L67.11 3.00999H83.83L70.52 39.31L78.44 60.1L98.02 2.9H117.71L87.24 81H71.62L58.97 50.42L46.43 81H30.7L0.34 2.9H19.92L39.61 60.1L47.31 39.31L34.22 3.00999ZM142.724 82.1C137.81 82.1 133.41 81.2933 129.524 79.68C125.71 78.0667 122.484 75.8667 119.844 73.08C117.204 70.2933 115.187 67.1033 113.794 63.51C112.474 59.9167 111.814 56.14 111.814 52.18C111.814 48.1467 112.474 44.3333 113.794 40.74C115.187 37.1467 117.204 33.9567 119.844 31.17C122.484 28.3833 125.71 26.1833 129.524 24.57C133.41 22.9567 137.81 22.15 142.724 22.15C147.637 22.15 152 22.9567 155.814 24.57C159.627 26.1833 162.854 28.3833 165.494 31.17C168.134 33.9567 170.15 37.1467 171.544 40.74C172.937 44.3333 173.634 48.1467 173.634 52.18C173.634 56.14 172.937 59.9167 171.544 63.51C170.15 67.1033 168.134 70.2933 165.494 73.08C162.854 75.8667 159.627 78.0667 155.814 79.68C152 81.2933 147.637 82.1 142.724 82.1ZM129.854 52.18C129.854 55.1867 130.404 57.8267 131.504 60.1C132.677 62.3733 134.217 64.1333 136.124 65.38C138.03 66.6267 140.23 67.25 142.724 67.25C145.144 67.25 147.307 66.6267 149.214 65.38C151.194 64.06 152.734 62.2633 153.834 59.99C154.934 57.7167 155.484 55.1133 155.484 52.18C155.484 49.1733 154.934 46.5333 153.834 44.26C152.734 41.9867 151.194 40.2267 149.214 38.98C147.307 37.7333 145.144 37.11 142.724 37.11C140.23 37.11 138.03 37.7333 136.124 38.98C134.217 40.2267 132.677 41.9867 131.504 44.26C130.404 46.5333 129.854 49.1733 129.854 52.18ZM218.993 38.32C214.739 38.32 210.889 39.0167 207.443 40.41C203.996 41.73 201.503 43.71 199.963 46.35V81H182.363V23.25H198.533V34.91C200.513 31.0233 203.079 27.98 206.233 25.78C209.386 23.58 212.686 22.4433 216.133 22.37C216.939 22.37 217.526 22.37 217.893 22.37C218.333 22.37 218.699 22.4067 218.993 22.48V38.32ZM265.235 81L250.165 57.9L244.005 64.17V81H226.405V0.699998H244.005V47.12L263.585 23.25H282.175L261.385 48.11L283.935 81H265.235ZM310.605 82.1C305.692 82.1 300.889 81.2933 296.195 79.68C291.502 78.0667 287.542 75.6833 284.315 72.53L290.365 61.42C293.885 63.9867 297.295 65.93 300.595 67.25C303.969 68.57 307.122 69.23 310.055 69.23C312.329 69.23 314.089 68.8633 315.335 68.13C316.582 67.3967 317.205 66.26 317.205 64.72C317.205 63.62 316.839 62.7767 316.105 62.19C315.372 61.53 314.235 60.9433 312.695 60.43C311.229 59.9167 309.395 59.3667 307.195 58.78C302.795 57.3133 299.129 55.8833 296.195 54.49C293.262 53.0967 291.062 51.41 289.595 49.43C288.129 47.3767 287.395 44.7367 287.395 41.51C287.395 37.6233 288.349 34.25 290.255 31.39C292.235 28.4567 295.022 26.1833 298.615 24.57C302.209 22.9567 306.499 22.15 311.485 22.15C315.445 22.15 319.295 22.7733 323.035 24.02C326.849 25.2667 330.405 27.3567 333.705 30.29L326.885 41.29C323.585 39.0167 320.652 37.3667 318.085 36.34C315.519 35.3133 313.025 34.8 310.605 34.8C309.359 34.8 308.222 34.9467 307.195 35.24C306.169 35.5333 305.325 36.0467 304.665 36.78C304.079 37.44 303.785 38.32 303.785 39.42C303.785 40.52 304.079 41.4 304.665 42.06C305.325 42.72 306.315 43.3067 307.635 43.82C309.029 44.26 310.752 44.81 312.805 45.47C317.572 46.8633 321.532 48.2933 324.685 49.76C327.839 51.1533 330.185 52.9133 331.725 55.04C333.339 57.0933 334.145 59.8433 334.145 63.29C334.145 69.1567 332.019 73.7767 327.765 77.15C323.585 80.45 317.865 82.1 310.605 82.1ZM398.833 81H381.233V48.55C381.233 44.81 380.463 42.06 378.923 40.3C377.456 38.54 375.476 37.66 372.983 37.66C371.663 37.66 370.16 38.1 368.473 38.98C366.86 39.7867 365.356 40.96 363.963 42.5C362.57 44.04 361.506 45.8367 360.773 47.89V81H343.173V0.699998H360.773V32.93C362.9 29.4833 365.686 26.8433 369.133 25.01C372.653 23.1033 376.503 22.15 380.683 22.15C384.643 22.15 387.796 22.81 390.143 24.13C392.563 25.45 394.396 27.21 395.643 29.41C396.89 31.5367 397.733 33.8833 398.173 36.45C398.613 39.0167 398.833 41.5467 398.833 44.04V81ZM438.027 82.1C433.113 82.1 428.713 81.2933 424.827 79.68C421.013 78.0667 417.787 75.8667 415.147 73.08C412.507 70.2933 410.49 67.1033 409.097 63.51C407.777 59.9167 407.117 56.14 407.117 52.18C407.117 48.1467 407.777 44.3333 409.097 40.74C410.49 37.1467 412.507 33.9567 415.147 31.17C417.787 28.3833 421.013 26.1833 424.827 24.57C428.713 22.9567 433.113 22.15 438.027 22.15C442.94 22.15 447.303 22.9567 451.117 24.57C454.93 26.1833 458.157 28.3833 460.797 31.17C463.437 33.9567 465.453 37.1467 466.847 40.74C468.24 44.3333 468.937 48.1467 468.937 52.18C468.937 56.14 468.24 59.9167 466.847 63.51C465.453 67.1033 463.437 70.2933 460.797 73.08C458.157 75.8667 454.93 78.0667 451.117 79.68C447.303 81.2933 442.94 82.1 438.027 82.1ZM425.157 52.18C425.157 55.1867 425.707 57.8267 426.807 60.1C427.98 62.3733 429.52 64.1333 431.427 65.38C433.333 66.6267 435.533 67.25 438.027 67.25C440.447 67.25 442.61 66.6267 444.517 65.38C446.497 64.06 448.037 62.2633 449.137 59.99C450.237 57.7167 450.787 55.1133 450.787 52.18C450.787 49.1733 450.237 46.5333 449.137 44.26C448.037 41.9867 446.497 40.2267 444.517 38.98C442.61 37.7333 440.447 37.11 438.027 37.11C435.533 37.11 433.333 37.7333 431.427 38.98C429.52 40.2267 427.98 41.9867 426.807 44.26C425.707 46.5333 425.157 49.1733 425.157 52.18ZM514.185 82.1C509.859 82.1 506.082 81.1833 502.855 79.35C499.629 77.4433 497.099 74.8767 495.265 71.65V104.43H477.665V23.25H492.955V32.6C495.082 29.3 497.759 26.7333 500.985 24.9C504.212 23.0667 507.989 22.15 512.315 22.15C516.202 22.15 519.759 22.92 522.985 24.46C526.285 26 529.145 28.1267 531.565 30.84C533.985 33.5533 535.855 36.7067 537.175 40.3C538.495 43.8933 539.155 47.78 539.155 51.96C539.155 57.68 538.092 62.8133 535.965 67.36C533.839 71.9067 530.869 75.5 527.055 78.14C523.315 80.78 519.025 82.1 514.185 82.1ZM508.245 67.25C510.152 67.25 511.875 66.8467 513.415 66.04C515.029 65.16 516.422 64.0233 517.595 62.63C518.769 61.2367 519.649 59.6233 520.235 57.79C520.895 55.8833 521.225 53.9033 521.225 51.85C521.225 49.7233 520.859 47.78 520.125 46.02C519.465 44.26 518.512 42.72 517.265 41.4C516.019 40.0067 514.552 38.9433 512.865 38.21C511.179 37.4767 509.345 37.11 507.365 37.11C506.192 37.11 504.982 37.2933 503.735 37.66C502.562 38.0267 501.425 38.5767 500.325 39.31C499.299 39.97 498.345 40.7767 497.465 41.73C496.585 42.6833 495.852 43.7833 495.265 45.03V56.91C496.072 58.89 497.135 60.65 498.455 62.19C499.775 63.73 501.279 64.9767 502.965 65.93C504.652 66.81 506.412 67.25 508.245 67.25Z" fill="url(#paint0_linear_1_48)"/>
<defs>
<linearGradient id="paint0_linear_1_48" x1="44" y1="81" x2="567" y2="55" gradientUnits="userSpaceOnUse">
<stop stop-color="#018297"/>
<stop offset="1" stop-color="#1ABFAF"/>
</linearGradient>
</defs>
</svg>
